<svg width="76" height="119" viewBox="0 0 76 119" fill="none" xmlns="http://www.w3.org/2000/svg">
<g clip-path="url(#clip0_1419_620)">
<path d="M75.7021 55.407L75.3527 57.2899L74.8672 59.1432L74.2567 60.9521L73.5358 62.724L72.6973 64.4627L71.7484 66.1569L70.7075 67.8178L69.5674 69.4455L68.3353 71.0325L67.0259 72.5861L65.632 74.1102L64.1645 75.601L62.6309 77.0622L61.031 78.4938L59.3686 79.8921L57.6583 81.2645L55.893 82.611L54.0834 83.9279L52.2335 85.2226L50.3467 86.4915L48.4232 87.7381L46.4739 88.944L44.5209 90.1463L42.5312 91.3115L40.5451 92.4731L38.5406 93.594L36.5399 94.7111L34.5391 95.7913L32.542 96.8715L30.5559 97.9146L28.5809 98.9541L26.6463 99.9566L24.7154 100.959L22.8397 101.932L20.964 102.901L19.1692 103.837L17.378 104.773L15.6862 105.679L13.9944 106.586L12.3908 107.466L10.8498 108.332L9.38231 109.182L7.98471 110.018L6.6717 110.84L6.0722 111.236L7.04317 111.446L8.98142 111.868L10.9197 112.29L12.8506 112.708L14.7851 113.107L16.7271 113.507L18.669 113.906L20.6109 114.306L22.5528 114.705L24.4948 115.105L26.4367 115.504L28.3786 115.904C29.2172 116.078 29.7542 116.906 29.5813 117.754C29.4084 118.601 28.5883 119.144 27.7497 118.971L25.8078 118.571L23.8659 118.172L21.9239 117.772L19.982 117.373L18.0401 116.973L16.0981 116.573L14.1562 116.174L12.2069 115.774L10.2613 115.353L8.32307 114.931L6.38482 114.509L4.43554 114.084L3.81398 113.925L3.22919 113.725L2.68854 113.488L2.18467 113.215L1.71758 112.893L1.30197 112.53L0.937863 112.12L0.625242 111.668L0.382501 111.199L0.198606 110.71L0.0735579 110.203L0 109.637V108.713L0.147116 107.718L0.408246 106.737L0.753968 105.761L1.17325 104.777L1.6477 103.793L2.1626 102.809L2.71061 101.825L3.27333 100.848L3.83604 99.8826L4.38773 98.9356L4.90263 98.0293L5.82946 96.287L6.47309 94.7925L6.78204 93.4608C6.98064 92.6211 7.82288 92.0995 8.66144 92.3029C9.5 92.5027 10.0186 93.3461 9.81998 94.1858L9.43012 95.7987L8.63937 97.6446L7.64266 99.5238L7.09098 100.504L6.53194 101.462L5.9729 102.42L5.42857 103.367L4.90999 104.299L4.43554 105.206L4.01258 106.079L3.6595 106.904L3.38734 107.669L3.19977 108.361L3.1115 108.946L3.11885 109.493L3.14092 109.623L3.17034 109.745C3.28436 109.471 3.44986 109.219 3.71467 109.042L4.98722 108.206L6.3554 107.351L7.79714 106.486L9.30139 105.613L10.8719 104.729L12.5048 103.83L14.2114 102.916L15.9179 102.002L17.7238 101.059L19.5259 100.119L21.4053 99.1465L23.2811 98.1773L25.212 97.1748L27.1392 96.176L29.1069 95.1402L31.0708 94.1081L33.0532 93.0354L35.0356 91.9663L37.018 90.8602L38.9967 89.7542L40.957 88.6074L42.9137 87.4644L44.8298 86.2769L46.7497 85.0858L48.6218 83.8724L50.4607 82.6369L52.2629 81.3755L54.0209 80.0955L55.7275 78.7934L57.3788 77.4691L58.975 76.1226L60.505 74.7539L61.9652 73.363L63.3591 71.9499L64.6721 70.5146L65.9005 69.0571L67.048 67.5774L68.0999 66.0792L69.0561 64.5551L69.9204 63.0089L70.6781 61.4441L71.3254 59.8534L71.8697 58.2406L72.2964 56.6055L72.6053 54.9372L72.8002 53.2429L72.8664 51.5228L72.7966 49.7361L72.7156 48.8446L72.6016 47.9716L72.4582 47.1318L72.289 46.3291L72.0904 45.5671L71.8771 44.8716L71.3438 43.477L70.7296 42.26L70.0234 41.165L69.24 40.1773L68.3794 39.308L67.4342 38.5386L66.4228 37.8616L65.3415 37.2845L64.1866 36.7999L62.9692 36.4004L62.0424 36.1785L61.4245 37.8579L60.5014 39.9591L59.4237 42.0121L58.1953 43.9986L56.8271 45.9222L55.3045 47.7718L53.6605 49.4993L53.175 49.9728L52.5976 50.5166L51.9098 51.1455L51.1301 51.8409L50.2584 52.5956L49.3058 53.3946L48.2907 54.2232L47.2094 55.0703L46.0767 55.9212L44.9034 56.7646L43.6934 57.5858L42.4613 58.37L41.2108 59.1062L39.9456 59.7831L38.6804 60.3787L37.4152 60.8892L36.15 61.2961L34.8995 61.5736L33.6527 61.7141L32.4059 61.6734L31.2731 61.4367L30.6185 61.2036L30.0484 60.9225L29.5114 60.5785L29.0075 60.1716L28.5405 59.6981L28.1285 59.1802L27.7276 58.5846L27.3746 57.9816L27.073 57.3713L26.8118 56.7535L26.5985 56.1209L26.422 55.4403L26.2307 54.2158L26.2087 52.9285L26.3558 51.6634L26.6463 50.4167L27.084 49.1886L27.6504 47.9938L28.3271 46.8285L29.1179 45.6891L30.0116 44.5868L30.9899 43.5177L32.0639 42.4782L33.2151 41.4794L34.4361 40.5176L35.7307 39.5928L37.0842 38.7161L38.4928 37.8801L39.953 37.0922L41.4572 36.3597L42.9946 35.6791L44.5687 35.0539L46.1686 34.4953L47.7869 33.9959L49.4235 33.5668L51.0639 33.2117L52.7079 32.9269L54.3519 32.7234L55.9849 32.605L57.6032 32.568L59.2067 32.6272L59.8467 32.6901L60.2733 30.7554L60.5933 28.7282L60.7735 26.6937L60.8177 24.6517L60.7404 22.6171L60.5271 20.5974L60.1777 18.5961L59.7069 16.6207L59.1038 14.686L58.3645 12.792L57.5039 10.9424L56.5145 9.1557L55.3891 7.43187L54.1423 5.77463L52.7667 4.20246L51.2183 2.67838C50.6078 2.07171 50.6041 1.08402 51.2073 0.466255C51.8105 -0.151512 52.7962 -0.15892 53.4067 0.447754L55.0397 2.05321L56.5697 3.79924L57.9489 5.63036L59.192 7.53545L60.2917 9.51823L61.2406 11.5602L62.0534 13.6502L62.7228 15.7921L63.2414 17.9672L63.6239 20.1683L63.8593 22.3952L63.9439 24.6295L63.8924 26.8712L63.6938 29.113L63.3444 31.3399L62.9361 33.1895L63.8262 33.4041L65.2789 33.8812L66.6802 34.4694L68.0263 35.1871L69.2915 36.0305L70.4795 36.9997L71.5755 38.1095L72.5612 39.3487L73.4402 40.7137L74.2015 42.223L74.8194 43.8247L75.0989 44.7199L75.3343 45.6189L75.5329 46.5511L75.6984 47.5128L75.8271 48.5116L75.9228 49.5696L75.9963 51.5302L75.9191 53.4908L75.7021 55.407ZM57.5921 35.6976L56.143 35.7309L54.6682 35.8381L53.1787 36.0231L51.6707 36.2857L50.1591 36.615L48.6512 37.0108L47.1506 37.4732L45.6647 37.9911L44.2046 38.5682L42.7739 39.2007L41.38 39.8814L40.0302 40.6064L38.7319 41.3759L37.4888 42.1823L36.3118 43.022L35.2048 43.895L34.1713 44.7902L33.2261 45.7039L32.3728 46.6361L31.6115 47.5757L30.9568 48.5153L30.4088 49.4586L29.9638 50.3908L29.6512 51.3045L29.4415 52.2072L29.3386 53.0913L29.3533 53.9458L29.5004 54.8521L29.5997 55.2294L29.7431 55.6511L29.9233 56.0765L30.1367 56.5019L30.3831 56.9273L30.6663 57.3491L30.8906 57.6339L31.1113 57.8596L31.3467 58.0482L31.5931 58.2073L31.8506 58.333L32.0676 58.4181L32.7811 58.5735L33.5277 58.5957L34.392 58.4958L35.3446 58.285L36.3633 57.9594L37.441 57.5229L38.5554 56.9976L39.6918 56.391L40.843 55.7103L41.9942 54.9816L43.1307 54.2121L44.2414 53.4131L45.3227 52.603L46.3562 51.7928L47.3308 50.9975L48.2466 50.2281L49.0815 49.503L49.8281 48.8372L50.4865 48.2342L51.0345 47.72L51.4317 47.3353L52.9801 45.7076L54.3593 44.0319L55.6024 42.2822L56.7205 40.4732L57.6988 38.6125L58.541 36.7001L58.8904 35.7494L57.5921 35.6976Z" fill="black"/>
</g>
<defs>
<clipPath id="clip0_1419_620">
<rect width="76" height="119" fill="white" transform="matrix(1 0 0 -1 0 119)"/>
</clipPath>
</defs>
</svg>
