<svg width="1590" height="541" viewBox="0 0 1590 541" fill="none" xmlns="http://www.w3.org/2000/svg">
<path opacity="0.5" d="M794.974 704.061C752.712 704.061 714.471 691.334 686.807 670.782C659.142 650.229 642.081 621.876 642.081 590.602C642.081 559.327 659.142 530.974 686.807 510.422C714.471 489.869 752.712 477.143 794.974 477.143C837.236 477.143 875.478 489.869 903.142 510.422C930.806 530.974 947.868 559.327 947.868 590.602C947.868 621.876 930.806 650.229 903.142 670.782C875.477 691.334 837.236 704.061 794.974 704.061Z" stroke="url(#paint0_linear_1365_2882)"/>
<path opacity="0.5" d="M794.973 771.205C727.753 771.205 666.916 750.963 622.896 718.26C578.876 685.556 551.698 640.416 551.698 590.6C551.698 540.784 578.876 495.644 622.896 462.941C666.916 430.238 727.753 409.995 794.973 409.995C862.193 409.995 923.03 430.238 967.05 462.941C1011.07 495.644 1038.25 540.784 1038.25 590.6C1038.25 640.416 1011.07 685.556 967.05 718.26C923.029 750.963 862.193 771.205 794.973 771.205Z" stroke="url(#paint1_linear_1365_2882)"/>
<path opacity="0.5" d="M794.974 836.462C703.499 836.462 620.703 808.915 560.788 764.403C500.873 719.891 463.864 658.437 463.864 590.602C463.864 522.766 500.873 461.313 560.788 416.801C620.703 372.288 703.499 344.742 794.974 344.742C886.449 344.742 969.244 372.288 1029.16 416.801C1089.07 461.313 1126.08 522.766 1126.08 590.602C1126.08 658.437 1089.07 719.891 1029.16 764.403C969.244 808.915 886.449 836.462 794.974 836.462Z" stroke="url(#paint2_linear_1365_2882)"/>
<path opacity="0.5" d="M794.974 906.445C677.487 906.445 571.141 871.065 494.179 813.888C417.217 756.712 369.664 677.763 369.664 590.602C369.664 503.441 417.217 424.491 494.179 367.315C571.141 310.138 677.487 274.759 794.974 274.759C912.462 274.759 1018.81 310.138 1095.77 367.315C1172.73 424.491 1220.28 503.441 1220.28 590.602C1220.28 677.763 1172.73 756.712 1095.77 813.888C1018.81 871.065 912.462 906.445 794.974 906.445Z" stroke="url(#paint3_linear_1365_2882)"/>
<path opacity="0.5" d="M794.973 974.535C652.176 974.535 522.917 931.534 429.369 862.036C335.82 792.537 278.009 696.565 278.009 590.601C278.009 484.637 335.82 388.664 429.369 319.166C522.917 249.667 652.176 206.666 794.973 206.666C937.771 206.666 1067.03 249.667 1160.58 319.166C1254.13 388.664 1311.94 484.637 1311.94 590.601C1311.94 696.565 1254.13 792.537 1160.58 862.036C1067.03 931.534 937.771 974.535 794.973 974.535Z" stroke="url(#paint4_linear_1365_2882)"/>
<path opacity="0.5" d="M794.973 1042.63C626.866 1042.63 474.694 992.006 364.559 910.185C254.425 828.364 186.354 715.368 186.354 590.602C186.354 465.835 254.425 352.839 364.559 271.018C474.694 189.197 626.866 138.575 794.973 138.575C963.08 138.575 1115.25 189.197 1225.39 271.018C1335.52 352.839 1403.59 465.835 1403.59 590.602C1403.59 715.369 1335.52 828.364 1225.39 910.185C1115.25 992.006 963.08 1042.63 794.973 1042.63Z" stroke="url(#paint5_linear_1365_2882)"/>
<path opacity="0.5" d="M794.974 1108.83C602.26 1108.83 427.81 1050.8 301.55 956.994C175.291 863.193 97.2462 733.648 97.2462 590.601C97.2462 447.553 175.291 318.008 301.55 224.207C427.81 130.406 602.26 72.374 794.974 72.374C987.687 72.374 1162.14 130.406 1288.4 224.207C1414.66 318.008 1492.7 447.553 1492.7 590.601C1492.7 733.648 1414.66 863.194 1288.4 956.994C1162.14 1050.8 987.687 1108.83 794.974 1108.83Z" stroke="url(#paint6_linear_1365_2882)"/>
<path opacity="0.5" d="M794.973 1180.7C575.544 1180.7 376.908 1114.63 233.14 1007.82C89.373 901.01 0.499948 753.497 0.499959 590.601C0.499971 427.706 89.373 280.192 233.14 173.384C376.908 66.5768 575.544 0.499972 794.974 0.499978C1014.4 0.499984 1213.04 66.5768 1356.81 173.384C1500.57 280.192 1589.45 427.706 1589.45 590.601C1589.45 753.497 1500.57 901.01 1356.81 1007.82C1213.04 1114.63 1014.4 1180.7 794.973 1180.7Z" stroke="url(#paint7_linear_1365_2882)"/>
<defs>
<linearGradient id="paint0_linear_1365_2882" x1="948.368" y1="590.602" x2="641.581" y2="590.602" gradientUnits="userSpaceOnUse">
<stop stop-color="#FFD165"/>
<stop offset="0.555208" stop-color="#AA731F"/>
<stop offset="1" stop-color="#FFD165"/>
</linearGradient>
<linearGradient id="paint1_linear_1365_2882" x1="1038.75" y1="590.6" x2="551.198" y2="590.6" gradientUnits="userSpaceOnUse">
<stop stop-color="#FFD165"/>
<stop offset="0.555208" stop-color="#AA731F"/>
<stop offset="1" stop-color="#FFD165"/>
</linearGradient>
<linearGradient id="paint2_linear_1365_2882" x1="1126.58" y1="590.602" x2="463.364" y2="590.602" gradientUnits="userSpaceOnUse">
<stop stop-color="#FFD165"/>
<stop offset="0.555208" stop-color="#AA731F"/>
<stop offset="1" stop-color="#FFD165"/>
</linearGradient>
<linearGradient id="paint3_linear_1365_2882" x1="1220.78" y1="590.602" x2="369.164" y2="590.602" gradientUnits="userSpaceOnUse">
<stop stop-color="#FFD165"/>
<stop offset="0.555208" stop-color="#AA731F"/>
<stop offset="1" stop-color="#FFD165"/>
</linearGradient>
<linearGradient id="paint4_linear_1365_2882" x1="1312.44" y1="590.601" x2="277.509" y2="590.601" gradientUnits="userSpaceOnUse">
<stop stop-color="#FFD165"/>
<stop offset="0.555208" stop-color="#AA731F"/>
<stop offset="1" stop-color="#FFD165"/>
</linearGradient>
<linearGradient id="paint5_linear_1365_2882" x1="1404.09" y1="590.602" x2="185.854" y2="590.601" gradientUnits="userSpaceOnUse">
<stop stop-color="#FFD165"/>
<stop offset="0.555208" stop-color="#AA731F"/>
<stop offset="1" stop-color="#FFD165"/>
</linearGradient>
<linearGradient id="paint6_linear_1365_2882" x1="1493.2" y1="590.601" x2="96.7462" y2="590.601" gradientUnits="userSpaceOnUse">
<stop stop-color="#FFD165"/>
<stop offset="0.555208" stop-color="#AA731F"/>
<stop offset="1" stop-color="#FFD165"/>
</linearGradient>
<linearGradient id="paint7_linear_1365_2882" x1="1589.95" y1="590.601" x2="-4.07275e-05" y2="590.601" gradientUnits="userSpaceOnUse">
<stop stop-color="#FFD165"/>
<stop offset="0.555208" stop-color="#AA731F"/>
<stop offset="1" stop-color="#FFD165"/>
</linearGradient>
</defs>
</svg>
