<svg width="24" height="24" viewBox="0 0 24 24" fill="none" xmlns="http://www.w3.org/2000/svg">
<g id="ep:arrow-down-bold">
<path id="Vector" d="M2.45395 16.0608C2.73524 16.342 3.1167 16.5 3.51445 16.5C3.9122 16.5 4.29366 16.342 4.57495 16.0608L12 8.63582L19.4249 16.0608C19.7079 16.3341 20.0868 16.4852 20.4801 16.4818C20.8733 16.4784 21.2496 16.3207 21.5277 16.0425C21.8058 15.7644 21.9635 15.3882 21.967 14.9949C21.9704 14.6016 21.8192 14.2227 21.5459 13.9398L13.0604 5.45432C12.7792 5.17311 12.3977 5.01514 12 5.01514C11.6022 5.01514 11.2207 5.17311 10.9395 5.45432L2.45395 13.9398C2.17274 14.2211 2.01477 14.6026 2.01477 15.0003C2.01477 15.3981 2.17274 15.7795 2.45395 16.0608Z" fill="#2F2F2F"/>
</g>
</svg>
