<svg width="1920" height="1024" viewBox="0 0 1920 1024" fill="none" xmlns="http://www.w3.org/2000/svg">
<path d="M1587.96 330.008C1534.8 332.1 1478.83 346.179 1443.47 383.648C1399.72 430.017 1398.4 498.645 1373.08 555.927C1341.77 626.767 1269.68 680.166 1189.27 692.103C1108.85 704.04 1022.84 674.102 969.954 615.758C924.108 565.188 902.031 495.81 846.306 454.991C773.225 401.459 666.792 415.341 582.254 450.834C497.709 486.327 421.654 540.514 332.551 564.114C243.455 587.715 130.548 569.047 88.2289 491.463C48.5796 418.773 86.759 331.489 125.046 258.158C163.333 184.826 202.227 98.0764 163.724 24.8401C158.964 15.7825 153.374 7.55117 147.089 0.0126953H218.519C227.797 10.8755 238.067 21.1535 247.993 31.4442C276.273 60.7654 303.036 92.1651 319.807 128.497C336.577 164.829 342.571 206.908 328.714 244.314C305.801 306.16 236.428 341.208 199.335 396.602C191.553 408.222 185.06 421.64 186.988 435.261C190.703 461.499 222.45 475.032 250.265 478.674C417.008 500.508 565.295 347.202 732.901 362.018C766.832 365.018 805.18 373.904 831.943 354.009C855.672 336.371 858.585 304.361 866.428 276.851C879.711 230.292 912.874 189.066 956.852 164.448C996.866 142.049 1045.64 132.553 1078.93 101.909C1107.82 75.3148 1119.98 37.5589 1129.36 0.0126953H1213.14C1212.99 0.858072 1212.85 1.70345 1212.73 2.55518C1206.46 45.288 1222.02 90.004 1208.99 131.358C1195.58 173.919 1154.48 203.672 1111.79 222.429C1069.1 241.187 1022.65 252.043 981.343 273.375C940.035 294.706 902.685 330.301 898.268 374.502C894.128 415.989 919.684 455.105 949.887 485.539C979.758 515.642 1018.36 541.944 1062.06 543.081C1118.94 544.562 1166.38 504.15 1204.9 464.69C1239.34 429.42 1272.12 392.712 1303.14 354.721C1331.26 320.264 1358.51 284.193 1395.49 258.209C1434.55 230.769 1482.1 216.327 1529.47 205.649C1628.21 183.396 1732.91 175.724 1830.7 201.416C1859.61 209.011 1890.61 219.264 1920 220.612V388.95C1871.77 385.873 1822.05 369.531 1774.96 356.323C1714.28 339.295 1651.22 327.517 1587.96 330.008Z" fill="url(#paint0_linear_1236_892)" fill-opacity="0.7"/>
<path d="M1529.47 205.649C1482.09 216.327 1434.55 230.769 1395.49 258.209C1358.5 284.186 1331.26 320.264 1303.14 354.721C1272.12 392.712 1239.34 429.413 1204.9 464.69C1166.37 504.156 1118.94 544.562 1062.06 543.081C1018.36 541.944 979.758 515.642 949.887 485.539C919.691 455.111 894.128 415.989 898.268 374.502C902.685 330.301 940.035 294.706 981.343 273.374C1022.65 252.043 1069.1 241.187 1111.79 222.429C1154.48 203.672 1195.58 173.919 1208.99 131.358C1222.02 90.004 1206.46 45.288 1212.73 2.55518C1212.85 1.70345 1212.99 0.858072 1213.14 0.0126953H1387.91C1355.75 29.5818 1330.71 68.4056 1309.7 106.295C1273.99 170.728 1239.76 241.174 1174.35 279.68C1143.71 297.719 1108.41 307.234 1075.63 321.548C1051.52 332.08 1025.62 350.336 1027.16 375.347C1028.29 393.837 1045.57 408.927 1064.67 413.256C1083.78 417.584 1103.99 413.046 1122.04 405.736C1216.45 367.504 1258.42 265.016 1330.6 196.07C1385.49 143.644 1460.42 110.268 1538.24 103.575C1608.01 97.5806 1677.9 112.34 1745.12 130.913C1792.97 144.134 1843.3 159.477 1891.69 148.106C1901.58 145.78 1911.17 141.807 1920 136.582V220.612C1890.61 219.264 1859.61 209.011 1830.7 201.416C1732.91 175.73 1628.21 183.402 1529.47 205.649Z" fill="url(#paint1_linear_1236_892)"/>
<path d="M1745.12 130.913C1677.9 112.333 1608.01 97.5743 1538.24 103.575C1460.42 110.261 1385.49 143.644 1330.6 196.07C1258.42 265.01 1216.45 367.497 1122.04 405.736C1103.99 413.046 1083.78 417.591 1064.67 413.256C1045.57 408.927 1028.29 393.838 1027.16 375.347C1025.62 350.342 1051.52 332.081 1075.63 321.548C1108.41 307.234 1143.71 297.719 1174.35 279.68C1239.76 241.174 1273.98 170.722 1309.7 106.295C1330.71 68.4056 1355.75 29.5818 1387.91 0.0126953H1920V136.582C1911.17 141.801 1901.58 145.78 1891.69 148.106C1843.31 159.477 1792.97 144.134 1745.12 130.913Z" fill="url(#paint2_linear_1236_892)" fill-opacity="0.7"/>
<path d="M720.702 38.8428C704.728 68.2085 695.921 100.676 679.765 129.953C669.954 147.738 652.334 166.368 631.478 162.433C612.665 158.886 602.921 137.904 604.647 119.897C607.803 86.9085 636.791 62.0176 652.024 32.1624C657.29 21.8463 660.851 11.0725 663.13 0.0126953H750.372C738.315 11.0979 728.369 24.7511 720.702 38.8428Z" fill="url(#paint3_linear_1236_892)" fill-opacity="0.7"/>
<path d="M705.321 123.202C692.206 139.207 684.371 158.396 676.245 177.115C665.436 202.019 653.42 227.158 633.663 246.576C613.905 265.994 584.762 278.917 556.778 273.603C528.794 268.289 505.618 240.57 512.995 214.579C520.757 187.235 557.264 167.568 550.595 139.97C545.369 118.34 517.156 110.483 501.849 93.6329C481.869 71.6277 487.54 36.6812 505.376 13.0997C508.895 8.4469 512.779 4.11196 516.933 0.0185547H663.13C660.851 11.0784 657.29 21.8522 652.024 32.1683C636.791 62.0171 607.803 86.908 604.647 119.903C602.928 137.91 612.671 158.892 631.478 162.439C652.334 166.373 669.954 147.743 679.765 129.959C695.915 100.682 704.728 68.2144 720.702 38.8487C728.369 24.757 738.309 11.1038 750.372 0.0185547H927.101C926.393 0.978343 925.665 1.93178 924.917 2.8725C873.352 67.7313 757.884 59.0487 705.321 123.202Z" fill="url(#paint4_linear_1236_892)"/>
<path d="M791.673 184.19C773.197 213.912 762.186 251.287 730.008 267.609C711.532 276.985 689.637 277.252 668.808 279.674C567.473 291.445 483.602 356.501 391.06 397.156C373.562 404.84 347.823 409.258 339.206 392.973C335.726 386.401 336.738 378.557 338.498 371.406C344.802 345.797 359.934 322.197 381.06 305.035C414.937 277.519 468.707 257.414 467.351 215.279C466.805 198.238 456.212 182.97 444.486 169.991C411.168 133.112 362.847 100.676 359.86 52.318C358.727 34.0121 364.607 16.469 373.582 0.00635758H516.94C512.786 4.09976 508.902 8.4347 505.382 13.0875C487.547 36.6754 481.869 71.6155 501.856 93.6207C517.156 110.471 545.376 118.334 550.601 139.958C557.27 167.556 520.763 187.222 513.002 214.567C505.625 240.557 528.808 268.277 556.785 273.591C584.769 278.904 613.905 265.976 633.669 246.564C653.433 227.152 665.443 202.007 676.252 177.103C684.377 158.384 692.213 139.201 705.328 123.19C757.89 59.0365 873.359 67.7191 924.93 2.85394C925.679 1.91322 926.4 0.959789 927.115 0H1038.88C968.619 69.4735 844.937 98.515 791.673 184.19Z" fill="url(#paint5_linear_1236_892)" fill-opacity="0.7"/>
<path d="M956.845 164.454C912.867 189.072 879.704 230.305 866.42 276.858C858.571 304.367 855.658 336.377 831.936 354.016C805.18 373.911 766.832 365.025 732.894 362.025C565.288 347.202 417.001 500.514 250.258 478.68C222.443 475.038 190.696 461.506 186.981 435.267C185.052 421.646 191.546 408.228 199.327 396.609C236.421 341.214 305.794 306.166 328.707 244.32C342.564 206.908 336.562 164.842 319.799 128.504C303.036 92.1651 276.266 60.7654 247.985 31.4505C238.059 21.1598 227.79 10.8818 218.511 0.0190505H373.575C364.607 16.4816 358.727 34.0248 359.853 52.3307C362.847 100.689 411.161 133.125 444.479 170.003C456.205 182.983 466.798 198.25 467.344 215.291C468.7 257.427 414.93 277.525 381.053 305.047C359.927 322.209 344.789 345.81 338.491 371.419C336.731 378.57 335.726 386.413 339.199 392.986C347.817 409.264 373.555 404.853 391.053 397.168C483.595 356.514 567.466 291.458 668.801 279.686C689.623 277.264 711.525 276.997 730.001 267.622C762.179 251.293 773.19 213.918 791.666 184.203C844.937 98.515 968.618 69.4734 1038.88 0.0126953H1129.36C1119.98 37.5589 1107.82 75.3148 1078.93 101.909C1045.63 132.559 996.858 142.049 956.845 164.454Z" fill="url(#paint6_linear_1236_892)" fill-opacity="0.7"/>
<path d="M544.922 878.498C573.911 884.422 603.83 895.819 620.155 919.159C640.991 948.944 633.864 988.81 646.514 1022.43C646.709 1022.96 646.912 1023.48 647.121 1024H172.516C233.035 982.734 286.076 929.723 353.621 899.404C412.637 872.917 481.039 865.442 544.922 878.498Z" fill="url(#paint7_linear_1236_892)" fill-opacity="0.7"/>
<path d="M1768.03 442.939C1744.43 447.376 1721.1 455.652 1702.9 470.5C1671.29 496.287 1659.97 537.018 1644.44 573.604C1589.09 703.983 1457.76 802.993 1310.66 825.253C1163.56 847.512 1005.96 792.22 910.096 684.717C878.221 648.976 851.532 606.968 808.7 583.513C763.791 558.921 707.891 559.035 657.237 569.879C606.589 580.723 558.949 601.33 509.395 616.013C426.003 640.719 336.988 648.423 250.218 638.437C170.906 629.31 88.822 602.41 40.1572 542.681C23.2051 521.871 11.2902 498.353 0.919312 473.97V0.0126953H147.082C153.374 7.55117 158.957 15.7825 163.717 24.8401C202.22 98.0764 163.333 184.82 125.039 258.158C86.7452 331.496 48.5726 418.773 88.2219 491.463C130.542 569.047 243.448 587.715 332.544 564.114C421.64 540.513 497.702 486.327 582.247 450.834C666.792 415.341 773.224 401.459 846.299 454.991C902.024 495.81 924.101 565.188 969.947 615.758C1022.83 674.102 1108.84 704.033 1189.26 692.103C1269.68 680.166 1341.76 626.767 1373.07 555.927C1398.39 498.651 1399.71 430.017 1443.46 383.648C1478.81 346.179 1534.79 332.1 1587.95 330.008C1651.21 327.517 1714.27 339.295 1774.96 356.323C1822.05 369.531 1871.77 385.867 1920 388.95V450.357C1869.38 440.301 1818.28 433.488 1768.03 442.939Z" fill="url(#paint8_linear_1236_892)" fill-opacity="0.4"/>
<path d="M516.199 696.776C455.794 713.334 398.929 739.833 338.869 757.472C229.294 789.659 107.554 790.384 0.925903 751.834V894.645C36.8126 898.789 72.8475 900.099 108.896 896.679C202.746 887.787 289.435 847.641 377.857 816.68C466.279 785.712 564.506 763.631 654.034 791.617C673.265 797.63 692.132 806.154 706.279 819.826C721.64 834.661 730.298 854.359 738.983 873.402C762.732 925.479 789.765 977.047 823.272 1024H1069.02H1537.67C1573.27 1014.57 1605.44 991.526 1632.48 966.699C1668.68 933.469 1700.99 895.026 1745.21 871.96C1763.01 862.673 1785.06 856.184 1803.36 864.574C1827.94 875.843 1832.54 907.974 1824.52 932.604C1816.5 957.235 1799.62 978.75 1792.43 1003.6C1790.49 1010.31 1789.32 1017.14 1788.81 1024H1920V549.172C1883.1 573.523 1855.66 609.931 1833.12 647.172C1806.59 690.966 1784.79 737.691 1751.65 777.265C1687.73 853.565 1587.93 895.605 1488 919.644C1265.52 973.157 1010.47 943.543 838.443 800.198C794.452 763.542 755.126 719.391 701.161 697.596C643.339 674.243 576.603 680.218 516.199 696.776Z" fill="url(#paint9_linear_1236_892)" fill-opacity="0.7"/>
<path d="M108.89 896.679C202.74 887.78 289.436 847.641 377.851 816.679C466.273 785.718 564.5 763.631 654.027 791.617C673.259 797.63 692.126 806.147 706.273 819.826C721.627 834.668 730.292 854.359 738.977 873.402C762.726 925.485 789.766 977.053 823.265 1024H647.116C646.907 1023.48 646.704 1022.96 646.509 1022.44C633.859 988.812 640.986 948.94 620.15 919.161C603.818 895.821 573.906 884.424 544.918 878.5C481.034 865.438 412.632 872.913 353.61 899.406C286.064 929.725 233.023 982.736 172.504 1024H0.919678V894.645C36.7996 898.789 72.8414 900.092 108.89 896.679Z" fill="url(#paint10_linear_1236_892)"/>
<path d="M1833.11 647.172C1806.59 690.96 1784.79 737.69 1751.64 777.264C1687.73 853.564 1587.92 895.611 1487.99 919.644C1265.52 973.156 1010.47 943.543 838.437 800.198C794.445 763.541 755.126 719.391 701.154 697.595C643.332 674.243 576.596 680.218 516.191 696.776C455.787 713.333 398.922 739.833 338.862 757.471C229.287 789.659 107.547 790.384 0.91217 751.833V473.965C11.283 498.354 23.1981 521.865 40.1501 542.675C88.8149 602.411 170.898 629.311 250.211 638.432C336.981 648.417 425.996 640.714 509.388 616.007C558.936 601.324 606.576 580.724 657.23 569.874C707.877 559.03 763.777 558.916 808.693 583.508C851.525 606.962 878.214 648.97 910.089 684.711C1005.95 792.208 1163.56 847.501 1310.65 825.247C1457.75 802.988 1589.08 703.977 1644.44 573.598C1659.97 537.018 1671.29 496.288 1702.89 470.494C1721.09 455.646 1744.42 447.37 1768.02 442.934C1818.28 433.488 1869.38 440.302 1920 450.358V549.171C1883.09 573.522 1855.66 609.931 1833.11 647.172Z" fill="url(#paint11_linear_1236_892)" fill-opacity="0.7"/>
<path d="M1745.21 871.958C1763.02 862.671 1785.06 856.181 1803.36 864.572C1827.94 875.841 1832.54 907.972 1824.52 932.602C1816.49 957.232 1799.62 978.748 1792.43 1003.6C1790.49 1010.31 1789.31 1017.13 1788.81 1024H1537.67C1573.27 1014.57 1605.44 991.524 1632.48 966.697C1668.68 933.467 1700.99 895.024 1745.21 871.958Z" fill="url(#paint12_linear_1236_892)" fill-opacity="0.7"/>
<defs>
<linearGradient id="paint0_linear_1236_892" x1="912.385" y1="826.009" x2="1209.37" y2="-157.944" gradientUnits="userSpaceOnUse">
<stop stop-color="#FFA600"/>
<stop offset="1" stop-color="#FFC47F"/>
</linearGradient>
<linearGradient id="paint1_linear_1236_892" x1="1198.41" y1="632.734" x2="1571.61" y2="-53.0194" gradientUnits="userSpaceOnUse">
<stop stop-color="#FFA600"/>
<stop offset="1" stop-color="#FFC47F"/>
</linearGradient>
<linearGradient id="paint2_linear_1236_892" x1="1295.24" y1="541.074" x2="1665.18" y2="-138.67" gradientUnits="userSpaceOnUse">
<stop stop-color="#FFA600"/>
<stop offset="1" stop-color="#FFC47F"/>
</linearGradient>
<linearGradient id="paint3_linear_1236_892" x1="616.016" y1="155.585" x2="712.037" y2="-20.8516" gradientUnits="userSpaceOnUse">
<stop stop-color="#FFA600"/>
<stop offset="1" stop-color="#FFC47F"/>
</linearGradient>
<linearGradient id="paint4_linear_1236_892" x1="552.141" y1="274.108" x2="752.907" y2="-94.7921" gradientUnits="userSpaceOnUse">
<stop stop-color="#FFA600"/>
<stop offset="1" stop-color="#FFC47F"/>
</linearGradient>
<linearGradient id="paint5_linear_1236_892" x1="432.297" y1="447.261" x2="758.689" y2="-152.476" gradientUnits="userSpaceOnUse">
<stop stop-color="#FFA600"/>
<stop offset="1" stop-color="#FFC47F"/>
</linearGradient>
<linearGradient id="paint6_linear_1236_892" x1="350.586" y1="542.254" x2="962.027" y2="-249.282" gradientUnits="userSpaceOnUse">
<stop stop-color="#FFA600"/>
<stop offset="1" stop-color="#FFC47F"/>
</linearGradient>
<linearGradient id="paint7_linear_1236_892" x1="350.489" y1="1120.86" x2="500.605" y2="845.025" gradientUnits="userSpaceOnUse">
<stop stop-color="#FFA600"/>
<stop offset="1" stop-color="#FFC47F"/>
</linearGradient>
<linearGradient id="paint8_linear_1236_892" x1="576.401" y1="852.229" x2="1077.94" y2="-69.3253" gradientUnits="userSpaceOnUse">
<stop stop-color="#FFA600"/>
<stop offset="1" stop-color="#FCEE21"/>
<stop offset="1" stop-color="#FFC47F"/>
</linearGradient>
<linearGradient id="paint9_linear_1236_892" x1="717.485" y1="1284.62" x2="1301.05" y2="212.325" gradientUnits="userSpaceOnUse">
<stop stop-color="#FFA600"/>
<stop offset="0.796875" stop-color="#FFC47F"/>
</linearGradient>
<linearGradient id="paint10_linear_1236_892" x1="279.59" y1="1175.66" x2="528.104" y2="719.022" gradientUnits="userSpaceOnUse">
<stop stop-color="#FFA600"/>
<stop offset="1" stop-color="#FFC47F"/>
</linearGradient>
<linearGradient id="paint11_linear_1236_892" x1="610.204" y1="1083.42" x2="1175.3" y2="45.0727" gradientUnits="userSpaceOnUse">
<stop stop-color="#FFA600"/>
<stop offset="0.895833" stop-color="#FFC47F"/>
</linearGradient>
<linearGradient id="paint12_linear_1236_892" x1="1631.85" y1="1075.25" x2="1759.54" y2="840.619" gradientUnits="userSpaceOnUse">
<stop stop-color="#FFA600"/>
<stop offset="1" stop-color="#FFC47F"/>
</linearGradient>
</defs>
</svg>