<svg width="1594" height="591" viewBox="0 0 1594 591" fill="none" xmlns="http://www.w3.org/2000/svg">
<path d="M2 259V109.972L54 78.9861L106 48" stroke="#C89642" stroke-width="4"/>
<path d="M1592 259V109.972L1539 78.9861L1486 48" stroke="#C89642" stroke-width="4"/>
<path d="M320 111.461V476.01L372.5 507.004L425 537.998" stroke="#C89642" stroke-width="4"/>
<path d="M320 474.537V109.988L267.5 78.9938L215 47.9997" stroke="#C89642" stroke-width="4"/>
<path d="M956 111.461V476.01L1008.5 507.004L1061 537.998" stroke="#C89642" stroke-width="4"/>
<path d="M956 474.537V109.988L903.5 78.9938L851 47.9997" stroke="#C89642" stroke-width="4"/>
<path d="M637 111.461V476.01L584.5 507.004L532 537.998" stroke="#C89642" stroke-width="4"/>
<path d="M637 474.537V109.988L689.5 78.9938L742 47.9997" stroke="#C89642" stroke-width="4"/>
<path d="M1273 111.461V476.01L1220.5 507.004L1168 537.998" stroke="#C89642" stroke-width="4"/>
<path d="M1273 474.537V109.988L1325.5 78.9938L1378 47.9997" stroke="#C89642" stroke-width="4"/>
<path d="M453.477 556.544C453.477 551.469 454.386 547.495 456.205 544.62C458.053 541.745 461.103 540.308 465.357 540.308C469.61 540.308 472.646 541.745 474.465 544.62C476.313 547.495 477.237 551.469 477.237 556.544C477.237 561.648 476.313 565.652 474.465 568.556C472.646 571.46 469.61 572.912 465.357 572.912C461.103 572.912 458.053 571.46 456.205 568.556C454.386 565.652 453.477 561.648 453.477 556.544ZM471.165 556.544C471.165 554.373 471.018 552.555 470.725 551.088C470.461 549.592 469.903 548.375 469.053 547.436C468.231 546.497 466.999 546.028 465.357 546.028C463.714 546.028 462.467 546.497 461.617 547.436C460.795 548.375 460.238 549.592 459.945 551.088C459.681 552.555 459.549 554.373 459.549 556.544C459.549 558.773 459.681 560.651 459.945 562.176C460.209 563.672 460.766 564.889 461.617 565.828C462.467 566.737 463.714 567.192 465.357 567.192C466.999 567.192 468.246 566.737 469.097 565.828C469.947 564.889 470.505 563.672 470.769 562.176C471.033 560.651 471.165 558.773 471.165 556.544ZM483.858 566.048C486.674 563.701 488.918 561.751 490.59 560.196C492.262 558.612 493.655 556.969 494.77 555.268C495.885 553.567 496.442 551.895 496.442 550.252C496.442 548.756 496.09 547.583 495.386 546.732C494.682 545.881 493.597 545.456 492.13 545.456C490.663 545.456 489.534 545.955 488.742 546.952C487.95 547.92 487.539 549.255 487.51 550.956H481.526C481.643 547.436 482.685 544.767 484.65 542.948C486.645 541.129 489.167 540.22 492.218 540.22C495.562 540.22 498.129 541.115 499.918 542.904C501.707 544.664 502.602 546.996 502.602 549.9C502.602 552.188 501.986 554.373 500.754 556.456C499.522 558.539 498.114 560.357 496.53 561.912C494.946 563.437 492.878 565.285 490.326 567.456H503.306V572.56H481.57V567.984L483.858 566.048Z" fill="#C89642"/>
<path d="M140.639 31.544C140.639 26.4693 141.548 22.4947 143.367 19.62C145.215 16.7453 148.265 15.308 152.519 15.308C156.772 15.308 159.808 16.7453 161.627 19.62C163.475 22.4947 164.399 26.4693 164.399 31.544C164.399 36.648 163.475 40.652 161.627 43.556C159.808 46.46 156.772 47.912 152.519 47.912C148.265 47.912 145.215 46.46 143.367 43.556C141.548 40.652 140.639 36.648 140.639 31.544ZM158.327 31.544C158.327 29.3733 158.18 27.5547 157.887 26.088C157.623 24.592 157.065 23.3747 156.215 22.436C155.393 21.4973 154.161 21.028 152.519 21.028C150.876 21.028 149.629 21.4973 148.779 22.436C147.957 23.3747 147.4 24.592 147.107 26.088C146.843 27.5547 146.711 29.3733 146.711 31.544C146.711 33.7733 146.843 35.6507 147.107 37.176C147.371 38.672 147.928 39.8893 148.779 40.828C149.629 41.7373 150.876 42.192 152.519 42.192C154.161 42.192 155.408 41.7373 156.259 40.828C157.109 39.8893 157.667 38.672 157.931 37.176C158.195 35.6507 158.327 33.7733 158.327 31.544ZM168.336 21.6V15.924H178.94V48H172.604V21.6H168.336Z" fill="#C89642"/>
<path d="M771.439 31.544C771.439 26.4693 772.349 22.4947 774.167 19.62C776.015 16.7453 779.066 15.308 783.319 15.308C787.573 15.308 790.609 16.7453 792.427 19.62C794.275 22.4947 795.199 26.4693 795.199 31.544C795.199 36.648 794.275 40.652 792.427 43.556C790.609 46.46 787.573 47.912 783.319 47.912C779.066 47.912 776.015 46.46 774.167 43.556C772.349 40.652 771.439 36.648 771.439 31.544ZM789.127 31.544C789.127 29.3733 788.981 27.5547 788.687 26.088C788.423 24.592 787.866 23.3747 787.015 22.436C786.194 21.4973 784.962 21.028 783.319 21.028C781.677 21.028 780.43 21.4973 779.579 22.436C778.758 23.3747 778.201 24.592 777.907 26.088C777.643 27.5547 777.511 29.3733 777.511 31.544C777.511 33.7733 777.643 35.6507 777.907 37.176C778.171 38.672 778.729 39.8893 779.579 40.828C780.43 41.7373 781.677 42.192 783.319 42.192C784.962 42.192 786.209 41.7373 787.059 40.828C787.91 39.8893 788.467 38.672 788.731 37.176C788.995 35.6507 789.127 33.7733 789.127 31.544ZM799.973 24.372C800.119 21.4387 801.146 19.18 803.053 17.596C804.989 15.9827 807.526 15.176 810.665 15.176C812.806 15.176 814.639 15.5573 816.165 16.32C817.69 17.0533 818.834 18.0653 819.597 19.356C820.389 20.6173 820.785 22.0547 820.785 23.668C820.785 25.516 820.301 27.0853 819.333 28.376C818.394 29.6373 817.265 30.488 815.945 30.928V31.104C817.646 31.632 818.966 32.5707 819.905 33.92C820.873 35.2693 821.357 37 821.357 39.112C821.357 40.872 820.946 42.4413 820.125 43.82C819.333 45.1987 818.145 46.284 816.561 47.076C815.006 47.8387 813.129 48.22 810.929 48.22C807.614 48.22 804.915 47.384 802.833 45.712C800.75 44.04 799.65 41.576 799.533 38.32H805.517C805.575 39.7573 806.059 40.916 806.969 41.796C807.907 42.6467 809.183 43.072 810.797 43.072C812.293 43.072 813.437 42.6613 814.229 41.84C815.05 40.9893 815.461 39.904 815.461 38.584C815.461 36.824 814.903 35.5627 813.789 34.8C812.674 34.0373 810.943 33.656 808.597 33.656H807.321V28.596H808.597C812.762 28.596 814.845 27.2027 814.845 24.416C814.845 23.1547 814.463 22.172 813.701 21.468C812.967 20.764 811.897 20.412 810.489 20.412C809.11 20.412 808.039 20.7933 807.277 21.556C806.543 22.2893 806.118 23.228 806.001 24.372H799.973Z" fill="#C89642"/>
<path d="M1405.45 31.544C1405.45 26.4693 1406.36 22.4947 1408.18 19.62C1410.03 16.7453 1413.08 15.308 1417.33 15.308C1421.58 15.308 1424.62 16.7453 1426.44 19.62C1428.29 22.4947 1429.21 26.4693 1429.21 31.544C1429.21 36.648 1428.29 40.652 1426.44 43.556C1424.62 46.46 1421.58 47.912 1417.33 47.912C1413.08 47.912 1410.03 46.46 1408.18 43.556C1406.36 40.652 1405.45 36.648 1405.45 31.544ZM1423.14 31.544C1423.14 29.3733 1422.99 27.5547 1422.7 26.088C1422.44 24.592 1421.88 23.3747 1421.03 22.436C1420.21 21.4973 1418.97 21.028 1417.33 21.028C1415.69 21.028 1414.44 21.4973 1413.59 22.436C1412.77 23.3747 1412.21 24.592 1411.92 26.088C1411.66 27.5547 1411.52 29.3733 1411.52 31.544C1411.52 33.7733 1411.66 35.6507 1411.92 37.176C1412.18 38.672 1412.74 39.8893 1413.59 40.828C1414.44 41.7373 1415.69 42.192 1417.33 42.192C1418.97 42.192 1420.22 41.7373 1421.07 40.828C1421.92 39.8893 1422.48 38.672 1422.74 37.176C1423.01 35.6507 1423.14 33.7733 1423.14 31.544ZM1455.46 21.248H1441.2V28.772C1441.82 28.0093 1442.7 27.3933 1443.84 26.924C1444.98 26.4253 1446.2 26.176 1447.49 26.176C1449.84 26.176 1451.76 26.6893 1453.26 27.716C1454.75 28.7427 1455.84 30.0627 1456.51 31.676C1457.19 33.26 1457.52 34.9613 1457.52 36.78C1457.52 40.1533 1456.56 42.8667 1454.62 44.92C1452.71 46.9733 1449.99 48 1446.44 48C1443.09 48 1440.42 47.164 1438.43 45.492C1436.43 43.82 1435.3 41.6347 1435.04 38.936H1441.02C1441.29 40.1093 1441.88 41.048 1442.78 41.752C1443.72 42.456 1444.91 42.808 1446.35 42.808C1448.08 42.808 1449.38 42.2653 1450.26 41.18C1451.14 40.0947 1451.58 38.6573 1451.58 36.868C1451.58 35.0493 1451.13 33.6707 1450.22 32.732C1449.34 31.764 1448.04 31.28 1446.3 31.28C1445.07 31.28 1444.05 31.588 1443.22 32.204C1442.4 32.82 1441.82 33.6413 1441.46 34.668H1435.57V15.836H1455.46V21.248Z" fill="#C89642"/>
<path d="M1087.56 556.544C1087.56 551.469 1088.47 547.495 1090.29 544.62C1092.14 541.745 1095.19 540.308 1099.44 540.308C1103.7 540.308 1106.73 541.745 1108.55 544.62C1110.4 547.495 1111.32 551.469 1111.32 556.544C1111.32 561.648 1110.4 565.652 1108.55 568.556C1106.73 571.46 1103.7 572.912 1099.44 572.912C1095.19 572.912 1092.14 571.46 1090.29 568.556C1088.47 565.652 1087.56 561.648 1087.56 556.544ZM1105.25 556.544C1105.25 554.373 1105.11 552.555 1104.81 551.088C1104.55 549.592 1103.99 548.375 1103.14 547.436C1102.32 546.497 1101.09 546.028 1099.44 546.028C1097.8 546.028 1096.56 546.497 1095.7 547.436C1094.88 548.375 1094.33 549.592 1094.03 551.088C1093.77 552.555 1093.64 554.373 1093.64 556.544C1093.64 558.773 1093.77 560.651 1094.03 562.176C1094.3 563.672 1094.85 564.889 1095.7 565.828C1096.56 566.737 1097.8 567.192 1099.44 567.192C1101.09 567.192 1102.33 566.737 1103.18 565.828C1104.04 564.889 1104.59 563.672 1104.86 562.176C1105.12 560.651 1105.25 558.773 1105.25 556.544ZM1115.75 566.752V561.912L1130.13 541.32H1137.31V561.384H1141.18V566.752H1137.31V573H1131.15V566.752H1115.75ZM1131.54 547.92L1122.52 561.384H1131.54V547.92Z" fill="#C89642"/>
</svg>
