<svg width="323" height="259" viewBox="0 0 323 259" fill="none" xmlns="http://www.w3.org/2000/svg">
<path d="M2 259V109.972L54 78.9861L106 48" stroke="#C89642" stroke-width="4"/>
<path d="M321 259V109.972L268 78.9861L215 48" stroke="#C89642" stroke-width="4"/>
<path d="M140.639 31.544C140.639 26.4693 141.548 22.4947 143.367 19.62C145.215 16.7453 148.265 15.308 152.519 15.308C156.772 15.308 159.808 16.7453 161.627 19.62C163.475 22.4947 164.399 26.4693 164.399 31.544C164.399 36.648 163.475 40.652 161.627 43.556C159.808 46.46 156.772 47.912 152.519 47.912C148.265 47.912 145.215 46.46 143.367 43.556C141.548 40.652 140.639 36.648 140.639 31.544ZM158.327 31.544C158.327 29.3733 158.18 27.5547 157.887 26.088C157.623 24.592 157.065 23.3747 156.215 22.436C155.393 21.4973 154.161 21.028 152.519 21.028C150.876 21.028 149.629 21.4973 148.779 22.436C147.957 23.3747 147.4 24.592 147.107 26.088C146.843 27.5547 146.711 29.3733 146.711 31.544C146.711 33.7733 146.843 35.6507 147.107 37.176C147.371 38.672 147.928 39.8893 148.779 40.828C149.629 41.7373 150.876 42.192 152.519 42.192C154.161 42.192 155.408 41.7373 156.259 40.828C157.109 39.8893 157.667 38.672 157.931 37.176C158.195 35.6507 158.327 33.7733 158.327 31.544ZM168.336 21.6V15.924H178.94V48H172.604V21.6H168.336Z" fill="#C89642"/>
</svg>
