<svg width="185" height="149" viewBox="0 0 185 149" fill="none" xmlns="http://www.w3.org/2000/svg">
<path d="M136.666 144.763C146.343 141.837 155.41 136.953 163.345 129.07C200.329 92.3324 188.535 16.6097 138.676 2.00105C133.803 0.572597 128.757 -0.111271 123.717 0.0147345C110.68 0.341204 97.9238 6.08249 88.0306 15.447C77.661 25.2629 73.1197 40.5508 61.3772 48.7733C50.2495 56.565 36.6866 57.9786 24.5966 63.1815C7.74354 70.4337 -2.89946 87.9657 0.699089 108.313C2.43699 118.137 7.5486 127.176 14.7632 133.18C29.7206 145.627 49.7926 145.518 67.6213 146.617C89.7366 147.98 114.764 151.387 136.666 144.763Z" fill="url(#paint0_linear_8_582)"/>
<g clip-path="url(#clip0_8_582)">
<path d="M50.559 52.2945C51.536 54.1996 51.9762 56.2356 51.9904 58.189C52.0216 62.2924 50.1643 66.0313 47.4293 67.4409C43.7629 69.3289 36.359 67.0849 33.3287 61.1733C31.5708 57.7391 31.3038 54.0173 32.3205 51.0159C33.0561 48.8489 34.4619 47.0578 36.4556 46.0298C41.2183 43.5752 47.5316 46.3829 50.559 52.2945Z" fill="#C4359B"/>
<path d="M36.0381 46.8529C36.6572 46.4799 37.3388 46.2265 38.0346 46.0186C38.7332 45.8164 39.4574 45.6911 40.1958 45.637C41.667 45.5373 43.2119 45.7737 44.5978 46.4514C45.9667 47.1263 47.1368 48.16 47.9774 49.393C48.4006 50.0052 48.7414 50.6687 48.9998 51.355C49.2441 52.0469 49.4429 52.756 49.4684 53.485C48.7868 52.2178 47.9916 51.0901 47.0828 50.1077C46.1712 49.131 45.1232 48.3137 43.9702 47.7243C42.8228 47.1519 41.5306 46.8415 40.1873 46.7305C38.844 46.6194 37.4581 46.6764 36.0381 46.8529Z" fill="#ECD4E5"/>
<path d="M51.9904 58.1886C52.0216 62.292 50.1643 66.0309 47.4293 67.4405C43.7629 69.3285 36.359 67.0845 33.3287 61.1729C31.5708 57.7387 31.3038 54.0169 32.3205 51.0155C32.3717 51.2975 32.4228 51.5908 32.4654 51.8812C32.4654 51.8812 33.6553 60.5863 40.5707 62.7277C45.8531 64.3594 50.3602 59.732 51.9904 58.1886Z" fill="#B52A8D"/>
<path d="M63.7167 103.679C58.298 101.74 54.8076 98.978 53.3393 95.4755C51.9108 92.064 52.334 87.9777 54.6372 82.9831C57.8975 75.9039 47.4122 68.4062 47.3043 68.3322L47.6309 67.8652C48.0796 68.1812 58.6132 75.7131 55.1512 83.2223C52.9218 88.0632 52.4987 91.9985 53.8619 95.2562C55.2648 98.6078 58.6444 101.262 63.907 103.144L63.7167 103.679Z" fill="#280A1F"/>
<path d="M47.6735 66.8482L47.1594 67.1131C46.8414 67.2754 46.7164 67.6712 46.8783 67.9901L46.8925 68.0215C47.0544 68.3404 47.4491 68.4657 47.7672 68.3034L48.2812 68.0385C48.5993 67.8762 48.7243 67.4804 48.5624 67.1615L48.5482 67.1302C48.3835 66.8112 47.9916 66.6859 47.6735 66.8482Z" fill="#B52A8D"/>
<path d="M47.9689 68.5347C47.8809 68.8793 47.5287 69.0843 47.1879 68.996C46.8443 68.9077 46.6398 68.5546 46.7278 68.2129C46.8159 67.8684 47.168 67.6633 47.5088 67.7516C47.8525 67.8399 48.0569 68.1902 47.9689 68.5347Z" fill="#B52A8D"/>
<path d="M49.1503 67.9256C49.0623 68.2701 48.7101 68.4752 48.3693 68.3869C48.0257 68.2986 47.8212 67.9455 47.9092 67.6038C47.9973 67.2592 48.3494 67.0542 48.6902 67.1425C49.0339 67.2308 49.2412 67.581 49.1503 67.9256Z" fill="#B52A8D"/>
<path d="M136.671 42.7669C135.691 44.672 135.248 46.7052 135.231 48.6586C135.194 52.762 137.046 56.5037 139.778 57.9162C143.441 59.8098 150.848 57.5773 153.887 51.6685C155.65 48.2372 155.923 44.5154 154.909 41.5111C154.176 39.3413 152.773 37.5501 150.78 36.5193C146.026 34.0618 139.709 36.861 136.671 42.7669Z" fill="#F2BB22"/>
<path d="M151.203 37.3474C149.783 37.1681 148.397 37.1083 147.051 37.2193C145.708 37.3275 144.415 37.6351 143.265 38.2074C142.112 38.794 141.061 39.6084 140.15 40.5852C139.238 41.5676 138.443 42.6952 137.758 43.9596C137.787 43.2306 137.986 42.5215 138.233 41.8324C138.491 41.1461 138.832 40.4827 139.258 39.8704C140.101 38.6374 141.272 37.6066 142.64 36.9345C144.026 36.2625 145.574 36.0262 147.042 36.1287C147.781 36.1828 148.505 36.3081 149.204 36.5131C149.902 36.721 150.584 36.9744 151.203 37.3474Z" fill="#FFE08C"/>
<path d="M135.231 48.6582C135.194 52.7616 137.046 56.5033 139.778 57.9157C143.441 59.8094 150.848 57.5769 153.887 51.6681C155.65 48.2367 155.923 44.5149 154.909 41.5107C154.858 41.7926 154.807 42.0859 154.764 42.3735C154.764 42.3735 153.56 51.0758 146.642 53.2086C141.359 54.8403 136.861 50.2044 135.231 48.6582Z" fill="#DEA300"/>
<path d="M119.324 99.7897L119.134 99.2544C124.856 97.2155 129.278 93.0637 131.59 87.5678C133.598 82.7896 133.768 77.4703 132.033 73.6915C128.582 66.1767 139.127 58.6619 139.576 58.3458L139.903 58.8128C139.798 58.8868 129.298 66.3703 132.55 73.4523C134.35 77.3734 134.183 82.8693 132.115 87.7899C129.738 93.4339 125.197 97.6967 119.324 99.7897Z" fill="#503B00"/>
<path d="M139.536 57.3263L140.059 57.5969C140.377 57.762 140.502 58.155 140.337 58.4739L140.317 58.5109C140.152 58.8299 139.761 58.9552 139.442 58.79L138.92 58.5195C138.602 58.3543 138.477 57.9613 138.642 57.6424L138.661 57.6054C138.826 57.2893 139.218 57.1612 139.536 57.3263Z" fill="#DEA300"/>
<path d="M139.238 59.0097C139.326 59.3543 139.676 59.5593 140.019 59.471C140.363 59.3828 140.567 59.0325 140.479 58.6879C140.391 58.3434 140.042 58.1384 139.698 58.2266C139.357 58.3178 139.15 58.668 139.238 59.0097Z" fill="#DEA300"/>
<path d="M138.057 58.4006C138.145 58.7451 138.494 58.9502 138.838 58.8619C139.181 58.7736 139.386 58.4234 139.298 58.0788C139.21 57.7342 138.86 57.5292 138.517 57.6175C138.173 57.7058 137.969 58.056 138.057 58.4006Z" fill="#DEA300"/>
<path d="M164 13.7979V14.2535C162.313 15.2302 156.068 18.6074 145.412 21.8423C134.617 25.1199 117.086 28.873 93.4516 28.873C91.7334 28.873 89.9896 28.8531 88.2061 28.8104C61.9048 28.2038 45.1204 24.0805 35.6689 20.7289C27.7482 17.9183 23.5705 15.2217 22 14.0712V13.7979H22.6078C24.343 15.0195 28.5064 17.588 35.9132 20.2106C45.3192 23.5395 62.0298 27.6372 88.2203 28.2409C114.428 28.8474 133.683 24.8067 145.219 21.307C155.716 18.1234 161.898 14.8031 163.648 13.7979H164Z" fill="#502500"/>
<path d="M28.2538 16.8984L27.0354 29.163L37.5604 20.6174L28.2538 16.8984Z" fill="#C91E1E"/>
<path d="M38.4009 21.0938L38.5429 33.421L48.0569 23.648L38.4009 21.0938Z" fill="#F2BB22"/>
<path d="M49.4771 24.2314L50.7039 36.4875L59.3176 25.8318L49.4771 24.2314Z" fill="#C4359B"/>
<path d="M61.7061 26.125L63.4271 38.3127L71.6063 27.284L61.7061 26.125Z" fill="#C91E1E"/>
<path d="M73.5886 27.1875L75.9827 39.2499L83.5371 27.7371L73.5886 27.1875Z" fill="#F2BB22"/>
<path d="M85.0139 27.9419L88.3481 39.805L95.4708 27.791L85.0139 27.9419Z" fill="#C4359B"/>
<path d="M97.0726 28.044L100.393 39.8587L107.03 27.7365L97.0726 28.044Z" fill="#C91E1E"/>
<path d="M108.197 27.4117L113.161 39.0242L118.125 26.5518L108.197 27.4117Z" fill="#F2BB22"/>
<path d="M119.196 26.4748L126.262 37.7854L129.051 24.9229L119.196 26.4748Z" fill="#C4359B"/>
<path d="M130.255 24.5192L137.364 35.565L140.022 22.4404L130.255 24.5192Z" fill="#C91E1E"/>
<path d="M141.024 21.9481L149.093 32.2194L150.678 19.334L141.024 21.9481Z" fill="#F2BB22"/>
<path d="M151.771 18.9463L161.015 28.5883V15.0166L151.771 18.9463Z" fill="#C4359B"/>
<path d="M110.671 111.759H106.698V133.799H110.671V111.759Z" fill="#52291D"/>
<path d="M51.2635 110.053H47.4039V134.143H51.2635V110.053Z" fill="#52291D"/>
<path d="M115.524 140.403L114.212 138.814V112.234H116.016L115.524 140.799" fill="#7C3E2B"/>
<path d="M119.46 111.782H115.567V140.403H119.46V111.782Z" fill="#A5523A"/>
<path d="M57.2589 140.403L55.9468 138.814V112.234H57.7502L57.2589 140.799" fill="#7C3E2B"/>
<path d="M61.1949 111.782H57.3013V140.403H61.1949V111.782Z" fill="#A5523A"/>
<path d="M122.028 113.561H53.9757V107.624L125.086 107.052V110.255C125.086 112.083 123.718 113.561 122.028 113.561Z" fill="#7C3E2B"/>
<path d="M52.1098 107.052H125.086L115.198 104.686H42.1584L52.1098 107.052Z" fill="#A5523A"/>
<path d="M42.1584 104.686V108.632C42.1584 110.181 43.9192 111.574 46.6059 112.149L53.9728 113.564V107.627L42.1584 104.686Z" fill="#52291D"/>
<path d="M125.086 107.624H53.9757V107.055L125.086 107.052V107.624Z" fill="#B77561"/>
<path d="M53.9757 107.055L42.1584 104.686V105.03L53.9757 107.624V107.055Z" fill="#B77561"/>
<path d="M133.373 116.582L155.931 116.593L148.885 114.919H126.279L133.373 116.582Z" fill="#A5523A"/>
<path d="M145.835 118.299H143.421V134.484H145.835V118.299Z" fill="#52291D"/>
<path d="M130.246 117.012H127.832V133.197H130.246V117.012Z" fill="#52291D"/>
<path d="M149.544 138.18L148.195 137.11V120.269L149.544 120.044" fill="#7C3E2B"/>
<path d="M152.293 120.044H149.544V138.177H152.293V120.044Z" fill="#A5523A"/>
<path d="M135.989 138.18L134.637 137.11V120.269L135.989 120.044" fill="#7C3E2B"/>
<path d="M138.738 120.044H135.989V138.177H138.738V120.044Z" fill="#A5523A"/>
<path d="M152.966 121.152H133.325L133.373 117.305H155.931V117.846C155.931 119.671 154.605 121.152 152.966 121.152Z" fill="#7C3E2B"/>
<path d="M126.279 115.813V117.69C126.279 118.778 126.91 119.755 127.869 120.159L133.325 121.153L133.373 117.306L126.279 115.813Z" fill="#52291D"/>
<path d="M148.749 114.919L150.973 91.7363L157.971 92.696L154.457 116.593L148.749 114.919Z" fill="#A5523A"/>
<path d="M157.971 92.6963C159.405 93.5591 160.138 95.2335 159.805 96.8737L155.931 116.593H154.458L157.971 92.6963Z" fill="#7C3E2B"/>
<path d="M133.373 116.582L155.931 116.593V117.305H133.373V116.582V117.305L126.262 115.788L126.282 114.919L133.373 116.582Z" fill="#B77561"/>
<path d="M81.7053 106.722C90.3947 106.722 97.4389 105.719 97.4389 104.483C97.4389 103.247 90.3947 102.245 81.7053 102.245C73.0159 102.245 65.9717 103.247 65.9717 104.483C65.9717 105.719 73.0159 106.722 81.7053 106.722Z" fill="#683333"/>
<g opacity="0.35">
<path d="M66.105 97.1535C66.2328 97.0624 66.071 97.4212 66.7469 97.424C67.3887 97.4269 67.3632 97.2019 67.5279 97.1535C67.5279 97.1535 67.491 98.1388 66.8179 98.1388C66.1789 98.1388 65.9176 97.2873 66.105 97.1535Z" fill="#682929"/>
</g>
<g opacity="0.35">
<path d="M93.3748 86.4748C93.2811 86.3951 93.4003 86.7083 92.9119 86.7112C92.4489 86.714 92.466 86.5175 92.3495 86.4748C92.3495 86.4748 92.3751 87.3319 92.8607 87.3319C93.3208 87.3319 93.5083 86.5916 93.3748 86.4748Z" fill="#682929"/>
</g>
<g opacity="0.35">
<path d="M92.9431 98.7625C93.0454 98.6543 92.9488 99.0302 93.5566 98.9476C94.1331 98.8679 94.0791 98.6486 94.2183 98.5803C94.2183 98.5803 94.2069 99.5713 93.7213 99.6453C93.1476 99.7307 92.7926 98.9192 92.9431 98.7625Z" fill="#682929"/>
</g>
<g opacity="0.35">
<path d="M95.9819 99.0329C96.0416 98.9332 95.999 99.3006 96.388 99.2493C96.7572 99.2009 96.7118 98.9788 96.797 98.9161C96.797 98.9161 96.9418 99.9014 96.53 99.9498C96.1608 99.9897 95.8939 99.181 95.9819 99.0329Z" fill="#682929"/>
</g>
<g opacity="0.35">
<path d="M97.3168 100.218C97.3764 100.118 97.3878 100.178 97.5468 99.993C97.7882 99.7082 97.5724 99.5715 97.6604 99.5117C97.6604 99.5117 98.2341 100.306 97.7371 100.685C97.4446 100.91 97.2287 100.366 97.3168 100.218Z" fill="#682929"/>
</g>
<g opacity="0.35">
<path d="M91.8355 88.3058C91.7446 88.2403 91.8611 88.4938 91.384 88.4966C90.9324 88.4995 90.9494 88.34 90.833 88.3058C90.833 88.3058 90.8586 89.0006 91.3329 89.0006C91.7816 89.0006 91.9662 88.3998 91.8355 88.3058Z" fill="#682929"/>
</g>
<path d="M69.3739 94.3797C69.3455 94.4537 69.0133 94.3968 68.627 94.2516C68.2408 94.1063 67.9511 93.9326 67.9767 93.8586C68.0051 93.7846 68.3402 93.8415 68.7236 93.9867C69.1098 94.132 69.4023 94.3085 69.3739 94.3797Z" fill="#531515"/>
<path d="M92.875 95.0201C92.8466 95.0942 92.5115 95.0372 92.1281 94.892C91.7418 94.7468 91.4521 94.5731 91.4777 94.499C91.5061 94.425 91.8384 94.4819 92.2246 94.6272C92.6109 94.7696 92.9005 94.9461 92.875 95.0201Z" fill="#531515"/>
<path d="M93.8549 94.7528C93.8634 94.8297 93.5368 94.9237 93.125 94.9635C92.716 95.0006 92.3781 94.9692 92.3695 94.8895C92.361 94.8126 92.6876 94.7187 93.0994 94.6788C93.5112 94.6446 93.8492 94.6759 93.8549 94.7528Z" fill="#531515"/>
<path d="M95.4395 94.3199C95.4111 94.394 95.0788 94.337 94.6926 94.1918C94.3063 94.0466 94.0167 93.8729 94.0422 93.7988C94.0706 93.7248 94.4029 93.7818 94.7891 93.927C95.1754 94.0694 95.4651 94.2459 95.4395 94.3199Z" fill="#531515"/>
<path d="M96.4193 94.0526C96.4278 94.1295 96.1012 94.2235 95.6894 94.2634C95.2805 94.3004 94.9425 94.269 94.934 94.1893C94.9255 94.1124 95.2521 94.0185 95.6639 93.9786C96.0757 93.9444 96.4136 93.9757 96.4193 94.0526Z" fill="#531515"/>
<path d="M81.7762 107.194C91.6969 107.194 99.7392 106.35 99.7392 105.309C99.7392 104.268 91.6969 103.424 81.7762 103.424C71.8555 103.424 63.8132 104.268 63.8132 105.309C63.8132 106.35 71.8555 107.194 81.7762 107.194Z" fill="#82391A"/>
<path d="M97.4417 94.2005L97.4389 100.274L97.436 104.458L65.9887 104.432L65.9915 100.596L65.9972 94.1891V94.1777L81.5519 94.1891L97.4417 94.2005Z" fill="#683333"/>
<path d="M97.4389 104.11C97.4389 105.141 90.3928 105.975 81.7053 105.975C73.0149 105.975 65.9717 105.141 65.9717 104.11C65.9717 103.079 73.0177 102.245 81.7053 102.245C90.3928 102.245 97.4389 103.082 97.4389 104.11Z" fill="#683333"/>
<path d="M95.5389 98.8818C92.875 99.4656 87.6778 99.8585 81.7052 99.8585C75.7299 99.8585 70.5327 99.4656 67.8688 98.8818C66.6561 98.6198 65.9688 98.3151 65.9688 97.9934V99.7703C65.9688 100.801 73.0148 101.635 81.7052 101.635C90.3928 101.635 97.4388 100.801 97.4388 99.7703V97.9934C97.4388 98.3151 96.7516 98.6198 95.5389 98.8818Z" fill="#D37575"/>
<path d="M95.5388 102.675C92.8749 103.258 87.6777 103.651 81.7052 103.651C75.7298 103.651 70.5326 103.258 67.8687 102.675C66.656 102.413 65.9688 102.108 65.9688 101.786V103.563C65.9688 104.594 73.0148 105.428 81.7052 105.428C90.3927 105.428 97.4388 104.594 97.4388 103.563V101.786C97.4388 102.105 96.7515 102.41 95.5388 102.675Z" fill="#D37575"/>
<path d="M65.9688 94.232C65.9688 94.232 65.0288 98.4464 66.6674 98.586C68.0874 98.7056 67.9994 97.2533 68.6157 97.1736C69.232 97.0938 66.5709 100.924 68.8883 101.206C70.6889 101.425 69.5529 97.7602 70.4077 97.7829C71.9271 97.8228 69.9874 99.2181 71.5153 99.6083C72.887 99.9585 71.5153 98.1958 73.0432 98.4749C73.9691 98.6429 73.1512 101.112 74.7984 101.197C76.4172 101.283 75.3152 98.2528 76.4512 98.3069C77.5872 98.361 76.7466 102.299 78.3313 102.413C79.916 102.53 78.3569 98.2699 79.8791 98.2101C81.2111 98.1588 80.0467 100.608 81.5434 100.722C83.04 100.838 82.5345 97.9025 83.6222 97.7288C84.71 97.5551 84.1448 101.715 85.7778 102.063C87.4108 102.41 85.8005 97.0198 87.5045 97.1736C89.2085 97.3245 88.4985 100.001 90.3445 100.138C92.1905 100.272 90.6228 96.7721 91.7872 96.604C92.9516 96.436 92.0968 99.8304 93.5622 100.138C95.0305 100.445 93.8462 97.5409 94.8885 97.1736C95.9308 96.8062 95.3912 100.537 96.5329 100.445C97.9415 100.334 95.8598 97.0796 96.6522 97.1736C97.4417 97.2675 96.993 99.725 97.2202 100.762C97.3906 101.536 98.5237 101.103 98.0154 100.107C97.6973 99.4858 97.436 98.0677 97.4388 96.399C97.4417 94.8044 97.666 94.7873 97.4417 94.2462C97.1719 93.5998 65.9688 94.232 65.9688 94.232Z" fill="#3E1010"/>
<path d="M81.7052 96.2025C90.3946 96.2025 97.4388 95.3011 97.4388 94.1893C97.4388 93.0774 90.3946 92.176 81.7052 92.176C73.0158 92.176 65.9716 93.0774 65.9716 94.1893C65.9716 95.3011 73.0158 96.2025 81.7052 96.2025Z" fill="#531515"/>
<path d="M65.9689 94.4106C65.9689 94.4106 65.2475 97.9786 66.6675 98.0982C68.0875 98.2178 67.9995 96.7656 68.6157 96.6858C69.232 96.6061 67.0878 100.487 68.8884 100.718C70.6889 100.949 69.5529 97.2724 70.4078 97.2952C71.9272 97.3351 70.2431 98.7105 71.5154 99.1205C72.8644 99.5534 71.5154 97.7081 73.0433 97.9872C73.9691 98.1552 73.1512 100.624 74.7984 100.709C76.4172 100.795 75.3153 97.7651 76.4513 97.8192C77.5873 97.8733 76.7467 101.812 78.3314 101.925C79.9161 102.042 78.3569 97.7822 79.8792 97.7224C81.2111 97.6711 80.0467 100.12 81.5434 100.234C83.0401 100.351 82.5346 97.4148 83.6223 97.2411C84.71 97.0674 84.1449 101.228 85.7779 101.575C87.4109 101.923 85.8006 96.5321 87.5046 96.6858C89.2086 96.8367 88.4986 99.5135 90.3446 99.6502C92.1906 99.784 90.6229 96.2843 91.7873 96.1163C92.9517 95.9483 92.0969 99.3426 93.5623 99.6502C95.0277 99.9577 93.8463 97.0532 94.8886 96.6858C95.9309 96.3185 95.3856 99.9577 96.5329 99.9577C97.6803 99.9577 95.8599 96.5919 96.6522 96.6858C97.4417 96.7798 96.993 99.2373 97.2202 100.274C97.3906 101.048 98.3023 100.616 97.9529 99.9378C97.6349 99.317 97.4361 97.58 97.4389 95.9113C97.4417 94.2454 97.8507 94.8121 97.4417 94.2454C97.0328 93.6788 65.9689 94.4106 65.9689 94.4106Z" fill="#390909"/>
<path d="M65.9688 94.2318C65.9688 94.2318 65.2474 98.1558 66.6674 98.2754C68.0874 98.395 67.9994 96.9427 68.6157 96.863C69.232 96.7833 67.0878 100.665 68.8883 100.895C70.6889 101.126 69.5529 97.4496 70.4077 97.4724C71.9271 97.5122 70.243 98.8876 71.5153 99.2977C72.8643 99.7305 71.5153 97.8853 73.0432 98.1643C73.9691 98.3324 73.1512 100.801 74.7984 100.887C76.4172 100.972 75.3152 97.9422 76.4512 97.9963C77.5872 98.0504 76.7466 101.989 78.3313 102.103C79.916 102.219 78.3569 97.9593 79.8791 97.8995C81.2111 97.8483 80.0467 100.297 81.5434 100.411C83.04 100.528 82.5345 97.592 83.6222 97.4183C84.71 97.2446 84.1448 101.405 85.7778 101.752C87.4108 102.1 85.8005 96.7092 87.5045 96.863C89.2085 97.0139 88.4985 99.6907 90.3445 99.8273C92.1905 99.9612 90.6228 96.4615 91.7872 96.2935C92.9516 96.1255 92.0968 99.5198 93.5622 99.8273C95.0305 100.135 93.8462 97.2303 94.8885 96.863C95.9308 96.4957 95.3855 100.135 96.5329 100.135C97.6802 100.135 95.8598 96.769 96.6522 96.863C97.4417 96.957 96.993 99.4144 97.2202 100.451C97.3906 101.226 98.3022 100.793 97.9529 100.115C97.6348 99.4942 97.436 97.7571 97.4388 96.0885C97.4417 94.4739 97.9642 94.7415 97.3054 93.9243C96.8652 93.3832 65.9688 94.2318 65.9688 94.2318Z" fill="#531515"/>
<g opacity="0.35">
<path d="M96.5385 94.5938C95.3656 95.0409 94.116 95.243 92.8835 95.431C91.6452 95.6018 90.3985 95.7271 89.1517 95.7955C86.6525 95.9065 84.1561 95.9293 81.6598 95.9948C79.1606 96.0432 76.6614 96.0005 74.165 95.8183C72.9182 95.7328 71.6715 95.6018 70.4332 95.4196C69.8141 95.3256 69.1978 95.2203 68.5844 95.0864C67.9738 94.9497 67.3632 94.796 66.781 94.5596L66.7924 94.534C67.3831 94.7333 67.9994 94.8387 68.6128 94.9469C69.2262 95.0551 69.8454 95.1234 70.4616 95.2003C71.6999 95.3455 72.941 95.4367 74.1849 95.5249C75.4288 95.6018 76.6727 95.673 77.9195 95.7243C79.1662 95.7698 80.413 95.8097 81.6598 95.8382C82.9065 95.8581 84.1561 95.8638 85.4029 95.8097C86.6497 95.7641 87.8936 95.6588 89.1375 95.5563C90.3786 95.4538 91.6225 95.3569 92.8579 95.2089C93.4742 95.132 94.0961 95.0636 94.7067 94.9554C95.3202 94.8501 95.9336 94.7447 96.53 94.5596L96.5385 94.5938Z" fill="#682929"/>
</g>
<g opacity="0.35">
<path d="M74.0429 99.8123C74.1793 99.7297 74.006 100.054 74.7217 100.057C75.4005 100.06 75.3721 99.855 75.5453 99.8123C75.5453 99.8123 75.3692 100.704 74.7984 100.706C74.1225 100.712 73.847 99.9347 74.0429 99.8123Z" fill="#682929"/>
</g>
<g opacity="0.35">
<path d="M68.3458 99.6789C68.4736 99.5878 68.3117 99.9466 68.9876 99.9494C69.6294 99.9523 69.6039 99.7273 69.7686 99.6789C69.7686 99.6789 69.7317 100.664 69.0586 100.664C68.4196 100.664 68.1583 99.8127 68.3458 99.6789Z" fill="#682929"/>
</g>
<path d="M70.7599 92.8511C70.7599 93.9246 75.8435 94.7988 82.117 94.7988C88.3906 94.7988 93.4742 93.9275 93.4742 92.8511C93.4742 91.7775 88.3906 90.9062 82.117 90.9062C75.8435 90.9062 70.7599 91.7775 70.7599 92.8511Z" fill="#683333"/>
<path d="M70.7571 83.9096L70.7599 89.1919L70.7628 92.8283L93.4572 92.8055V89.4709L93.4515 83.8982V83.8896L82.225 83.8982L70.7571 83.9096Z" fill="#683333"/>
<path d="M82.117 94.1494C88.3894 94.1494 93.4742 93.4227 93.4742 92.5262C93.4742 91.6298 88.3894 90.9031 82.117 90.9031C75.8447 90.9031 70.7599 91.6298 70.7599 92.5262C70.7599 93.4227 75.8447 94.1494 82.117 94.1494Z" fill="#683333"/>
<path d="M72.1316 87.9786C74.0543 88.4855 77.8059 88.8272 82.1142 88.8272C86.4253 88.8272 90.177 88.4855 92.0997 87.9786C92.9744 87.7508 93.4714 87.486 93.4714 87.2069V88.7531C93.4714 89.6501 88.3849 90.3763 82.1142 90.3763C75.8435 90.3763 70.7599 89.6501 70.7599 88.7531V87.2069C70.7599 87.486 71.2569 87.7508 72.1316 87.9786Z" fill="#D37575"/>
<path d="M72.1316 91.2757C74.0543 91.7826 77.8059 92.1243 82.1142 92.1243C86.4253 92.1243 90.177 91.7826 92.0997 91.2757C92.9744 91.0479 93.4714 90.783 93.4714 90.504V92.0502C93.4714 92.9472 88.3849 93.6734 82.1142 93.6734C75.8435 93.6734 70.7599 92.9472 70.7599 92.0502V90.504C70.7599 90.783 71.2569 91.0479 72.1316 91.2757Z" fill="#D37575"/>
<path d="M70.7598 83.9007C70.7598 84.8689 75.8434 85.652 82.1169 85.652C88.3905 85.652 93.4741 84.8689 93.4741 83.9007C93.4741 82.9325 88.3905 82.1494 82.1169 82.1494C75.8434 82.1494 70.7598 82.9325 70.7598 83.9007Z" fill="#531515"/>
<path d="M93.4714 83.9379C93.4714 83.9379 94.1501 87.6027 92.9658 87.7223C91.9406 87.8277 92.0031 86.5634 91.56 86.4922C91.117 86.4238 93.1391 89.3141 91.4663 89.559C90.1684 89.7498 90.8841 87.0019 90.265 87.0218C89.1688 87.056 90.5973 89.0436 89.4954 89.3796C88.5042 89.6843 89.467 87.3778 88.365 87.6198C87.6948 87.7679 88.7144 89.5163 87.5244 89.5932C86.3572 89.6672 86.7235 87.429 85.9028 87.4774C85.082 87.5258 85.8261 90.1883 84.6844 90.288C83.5399 90.3877 84.5282 87.4433 83.4291 87.392C82.4664 87.3465 83.2246 90.4048 82.1426 90.5044C81.0634 90.6041 81.5121 87.1243 80.7254 86.9734C79.9388 86.8225 80.3222 89.6302 79.1436 89.9321C77.965 90.2339 79.1549 86.3583 77.9252 86.4893C76.6955 86.6203 77.4396 89.1234 76.0877 89.1832C73.9748 89.2771 75.6759 86.1419 74.8353 85.9938C73.9946 85.8486 75.1448 89.0977 73.5544 89.0664C72.461 89.0436 73.7902 86.8794 73.0376 86.5577C72.285 86.2387 72.7536 88.9981 71.9271 88.9183C70.9104 88.8215 71.8959 86.4067 71.325 86.4865C70.7542 86.5691 71.1603 88.1523 70.9928 89.0579C70.8706 89.7299 69.9107 89.0949 70.2771 88.2292C70.5071 87.6882 70.757 87.2639 70.7542 85.8144C70.7514 84.4277 70.5895 84.4134 70.7514 83.9407C70.953 83.3883 93.4714 83.9379 93.4714 83.9379Z" fill="#3E1010"/>
<path d="M93.4714 83.9376C93.4714 83.9376 93.9911 87.349 92.9658 87.4544C91.9406 87.5598 92.0031 86.2954 91.56 86.2242C91.117 86.1559 92.7642 89.0918 91.4663 89.2911C90.1684 89.4933 90.8841 86.734 90.265 86.7539C89.1688 86.7881 90.4127 88.7586 89.4954 89.1117C88.5212 89.4876 89.467 87.1098 88.365 87.3519C87.6948 87.4999 88.7144 89.2484 87.5244 89.3253C86.3572 89.3993 86.7235 87.1611 85.9028 87.2095C85.082 87.2579 85.8261 89.9204 84.6844 90.0201C83.5399 90.1197 84.5282 87.1753 83.4291 87.1241C82.4664 87.0785 83.2246 90.1368 82.1426 90.2365C81.0606 90.3362 81.5121 86.8564 80.7254 86.7055C79.9388 86.5545 80.3222 89.3623 79.1436 89.6641C77.965 89.966 79.1549 86.0904 77.9252 86.2214C76.6955 86.3524 77.4367 88.5336 76.0877 88.6361C74.0997 88.7871 75.6759 85.8711 74.8353 85.7259C73.9946 85.5807 75.1108 88.7871 73.5544 88.7985C72.461 88.807 73.7902 86.6115 73.0376 86.2897C72.285 85.9708 72.7564 88.6504 71.9271 88.6504C71.0978 88.6504 71.8959 86.1388 71.325 86.2185C70.7542 86.3011 71.1603 87.8844 70.9928 88.7899C70.8706 89.4619 70.0698 88.8269 70.3225 88.2375C70.5526 87.6993 70.757 86.9959 70.7542 85.5465C70.7514 84.1426 70.3736 84.3733 70.8508 83.6642C71.1717 83.1972 93.4714 83.9376 93.4714 83.9376Z" fill="#531515"/>
<g opacity="0.35">
<path d="M71.4188 84.2249C72.2737 84.5153 73.1683 84.6434 74.0572 84.7744C74.949 84.9026 75.8464 84.9852 76.7438 85.0763C77.6413 85.1674 78.5387 85.2671 79.4418 85.3069C80.3449 85.3525 81.2481 85.3496 82.1512 85.3269C83.0543 85.2984 83.9546 85.2614 84.8577 85.2187C85.758 85.1731 86.6583 85.1076 87.5557 85.0421C88.4531 84.9652 89.3506 84.8855 90.2423 84.763C90.6882 84.6976 91.1341 84.6406 91.5743 84.5466C92.0145 84.4555 92.4576 84.3672 92.8779 84.1992L92.8892 84.2249C92.0685 84.6235 91.1653 84.8086 90.2793 84.9823C89.3847 85.1418 88.4844 85.2585 87.5813 85.3354C85.775 85.4977 83.9603 85.5319 82.1512 85.4835L79.439 85.4066C78.5359 85.3753 77.6299 85.3696 76.724 85.3126C75.8208 85.2528 74.9177 85.1446 74.0231 84.9909C73.1342 84.8257 72.2311 84.6434 71.4075 84.2533L71.4188 84.2249Z" fill="#682929"/>
</g>
<g opacity="0.35">
<path d="M71.1461 98.5092C71.237 98.4523 71.1206 98.6772 71.6034 98.6801C72.0606 98.6829 72.0436 98.5406 72.16 98.5092C72.16 98.5092 72.1345 99.1272 71.6545 99.1272C71.2001 99.1243 71.0127 98.5918 71.1461 98.5092Z" fill="#682929"/>
</g>
<g opacity="0.35">
<path d="M77.6696 100.892C77.786 100.801 77.6384 101.16 78.249 101.162C78.8283 101.165 78.8056 100.94 78.9504 100.892C78.9504 100.892 78.7999 101.871 78.3114 101.877C77.7349 101.88 77.4992 101.023 77.6696 100.892Z" fill="#682929"/>
</g>
<g opacity="0.35">
<path d="M81.1004 99.1349C81.2169 99.0438 81.0692 99.4026 81.6798 99.4055C82.2591 99.4083 82.2364 99.1833 82.3813 99.1349C82.3813 99.1349 82.2307 100.115 81.7423 100.12C81.1686 100.123 80.9329 99.2688 81.1004 99.1349Z" fill="#682929"/>
</g>
<g opacity="0.35">
<path d="M89.4613 98.7501C89.592 98.639 89.4585 99.0206 90.2281 98.9124C90.9552 98.8127 90.8955 98.5906 91.0745 98.5166C91.0745 98.5166 91.0262 99.5133 90.4127 99.6072C89.6829 99.7183 89.2682 98.9124 89.4613 98.7501Z" fill="#682929"/>
</g>
<path d="M78.4251 81.1441C78.3115 81.0729 78.1695 81.0302 78.0161 81.0302C77.8656 81.0302 77.7264 81.0729 77.6128 81.1413C77.6071 81.1413 77.6015 81.1413 77.5958 81.1413C77.5929 81.1413 77.5873 81.1413 77.5844 81.1413C77.4708 81.0729 77.3317 81.0302 77.1811 81.0302C76.9341 81.0302 76.7182 81.1413 76.5989 81.3036C76.5109 81.4004 76.4655 81.557 76.4655 81.8247C76.4655 82.4512 76.971 82.958 77.5958 82.958C78.2206 82.958 78.7261 82.4512 78.7261 81.8247C78.7261 81.3919 78.6182 81.2096 78.4251 81.1441Z" fill="#6A2525"/>
<path d="M78.6749 81.7815C78.6749 82.0207 78.5415 82.2144 78.3767 82.2144C78.212 82.2144 78.0786 82.0207 78.0786 81.7815C78.0786 81.5423 78.212 81.3487 78.3767 81.3487C78.5415 81.3487 78.6749 81.5423 78.6749 81.7815Z" fill="#E7D3D3"/>
<path d="M77.5503 81.178L77.2067 81.0897L77.5446 81.2236L77.5503 81.178Z" fill="#651A1A"/>
<path d="M77.5447 81.2235L77.3317 81.3687L77.6157 81.2349L77.5447 81.2235Z" fill="#651A1A"/>
<path d="M77.6156 81.235L77.8882 81.3176L77.6355 81.1923L77.6156 81.235Z" fill="#651A1A"/>
<path d="M77.6156 81.1814L77.8882 81.1102L77.6582 81.2241L77.6156 81.1814Z" fill="#651A1A"/>
<path d="M77.5447 81.2122C77.5447 81.2122 77.7378 79.552 78.604 79.683L78.763 79.8624C78.763 79.8624 77.7037 79.9877 77.6327 81.2065C77.6327 81.2065 77.6327 81.2378 77.593 81.2378C77.5532 81.2378 77.5447 81.2122 77.5447 81.2122Z" fill="#265331"/>
<path d="M86.164 80.9283C86.0476 80.8571 85.9056 80.8144 85.7494 80.8144C85.596 80.8144 85.454 80.8571 85.3376 80.9254C85.3319 80.9254 85.3262 80.9254 85.3205 80.9254C85.3177 80.9254 85.312 80.9254 85.3092 80.9254C85.1927 80.8542 85.0536 80.8115 84.8974 80.8115C84.6446 80.8115 84.4259 80.9226 84.3038 81.0906C84.2158 81.1903 84.1675 81.3497 84.1675 81.6202C84.1675 82.2581 84.6815 82.7735 85.3177 82.7735C85.9538 82.7735 86.4679 82.2581 86.4679 81.6202C86.4707 81.1789 86.3628 80.9966 86.164 80.9283Z" fill="#6A2525"/>
<path d="M86.4196 81.577C86.4196 81.8219 86.2833 82.0184 86.1157 82.0184C85.9481 82.0184 85.8118 81.8219 85.8118 81.577C85.8118 81.3321 85.9481 81.1356 86.1157 81.1356C86.2833 81.1356 86.4196 81.3321 86.4196 81.577Z" fill="#E7D3D3"/>
<path d="M85.2751 80.9613L84.9258 80.873L85.2723 81.0097L85.2751 80.9613Z" fill="#651A1A"/>
<path d="M85.2723 81.0098L85.0508 81.155L85.3433 81.0183L85.2723 81.0098Z" fill="#651A1A"/>
<path d="M85.3433 81.0191L85.6187 81.1045L85.3631 80.9764L85.3433 81.0191Z" fill="#651A1A"/>
<path d="M85.3433 80.9649L85.6187 80.8937L85.383 81.0105L85.3433 80.9649Z" fill="#651A1A"/>
<path d="M85.2722 80.9959C85.2722 80.9959 84.8491 79.2047 85.7323 79.3414L85.8942 79.5237C85.8942 79.5237 85.4369 79.7515 85.3631 80.993C85.3631 80.993 85.3631 81.0244 85.3233 81.0244C85.2779 81.0244 85.2722 80.9959 85.2722 80.9959Z" fill="#265331"/>
<g opacity="0.35">
<path d="M85.0279 100.492C85.1359 100.383 85.0336 100.759 85.6669 100.674C86.2662 100.591 86.2122 100.369 86.3571 100.301C86.3571 100.301 86.34 101.295 85.8345 101.369C85.2353 101.46 84.8717 100.648 85.0279 100.492Z" fill="#682929"/>
</g>
<g opacity="0.35">
<path d="M87.939 88.4795C87.8453 88.4197 87.9646 88.6504 87.4619 88.6532C86.9848 88.6561 87.0018 88.5109 86.8826 88.4795C86.8826 88.4795 87.0047 89.1088 87.408 89.1088C87.8822 89.1117 88.0754 88.565 87.939 88.4795Z" fill="#682929"/>
</g>
<g opacity="0.35">
<path d="M89.7397 88.4938C89.68 88.4539 89.7567 88.6106 89.4386 88.6134C89.1376 88.6162 89.1489 88.5137 89.0723 88.4938C89.0723 88.4938 89.0893 88.9266 89.4045 88.9266C89.7056 88.9295 89.8277 88.5536 89.7397 88.4938Z" fill="#682929"/>
</g>
<g opacity="0.35">
<path d="M85.0735 89.1602C84.9911 89.0947 85.0962 89.3482 84.6674 89.351C84.2613 89.3539 84.2755 89.1944 84.1732 89.1602C84.1732 89.1602 84.2783 89.8494 84.6219 89.8522C85.0252 89.855 85.1928 89.2542 85.0735 89.1602Z" fill="#682929"/>
</g>
<g opacity="0.35">
<path d="M82.4606 89.3507C82.3782 89.2852 82.4833 89.5386 82.0545 89.5414C81.6483 89.5443 81.6625 89.3848 81.5603 89.3507C81.5603 89.3507 81.6654 90.0426 82.009 90.0426C82.4151 90.0455 82.5799 89.4446 82.4606 89.3507Z" fill="#682929"/>
</g>
<g opacity="0.35">
<path d="M76.6302 87.6973C76.5137 87.6147 76.6387 87.8881 75.9684 87.7941C75.3323 87.7058 75.3806 87.5521 75.2244 87.4951C75.2244 87.4951 75.2897 88.2013 75.8264 88.2811C76.4598 88.375 76.8034 87.8169 76.6302 87.6973Z" fill="#682929"/>
</g>
<path d="M85.809 82.9754C85.7806 83.0494 85.4455 82.9925 85.0621 82.8473C84.6758 82.702 84.3862 82.5283 84.4117 82.4543C84.4401 82.3803 84.7724 82.4372 85.1586 82.5824C85.5449 82.7277 85.8374 82.9042 85.809 82.9754Z" fill="#531515"/>
<path d="M78.0757 82.9955C78.0729 83.0724 77.7349 83.1208 77.3231 83.098C76.9113 83.0752 76.5819 82.9955 76.5847 82.9186C76.5876 82.8417 76.9255 82.7933 77.3373 82.8161C77.7491 82.8389 78.0786 82.9186 78.0757 82.9955Z" fill="#531515"/>
<g opacity="0.35">
<path d="M74.2361 87.9846C74.1651 87.9105 74.2304 88.1725 73.8044 88.1156C73.3983 88.0586 73.438 87.9049 73.3386 87.8564C73.3386 87.8564 73.3471 88.5541 73.6879 88.6054C74.0912 88.6652 74.3411 88.0928 74.2361 87.9846Z" fill="#682929"/>
</g>
<g opacity="0.35">
<path d="M72.2452 87.8531C72.2026 87.7819 72.2338 88.041 71.9583 88.004C71.6999 87.9698 71.7311 87.8132 71.6715 87.7705C71.6715 87.7705 71.5693 88.4624 71.8589 88.4966C72.1174 88.5279 72.3077 87.9584 72.2452 87.8531Z" fill="#682929"/>
</g>
<g opacity="0.35">
<path d="M70.8565 88.5248C70.8139 88.4536 70.8054 88.4963 70.6946 88.3682C70.5242 88.1688 70.6747 88.072 70.6151 88.0293C70.6151 88.0293 70.209 88.5874 70.5611 88.8551C70.7685 89.0117 70.919 88.6301 70.8565 88.5248Z" fill="#682929"/>
</g>
<g opacity="0.35">
<path d="M79.6321 88.7187C79.5582 88.6418 79.6292 88.9067 79.1833 88.8469C78.7602 88.7899 78.7999 88.6333 78.6977 88.5849C78.6977 88.5849 78.7091 89.2854 79.0669 89.3366C79.4844 89.3993 79.7428 88.8269 79.6321 88.7187Z" fill="#682929"/>
</g>
<path d="M69.8369 92.3358C69.7233 92.2647 69.5813 92.2219 69.4279 92.2219C69.2774 92.2219 69.1382 92.2647 69.0246 92.333C69.0189 92.333 69.0133 92.333 69.0076 92.333C69.0047 92.333 68.9991 92.333 68.9962 92.333C68.8826 92.2647 68.7435 92.2219 68.5929 92.2219C68.3459 92.2219 68.13 92.333 68.0107 92.4953C67.9227 92.5921 67.8773 92.7487 67.8773 93.0164C67.8773 93.6429 68.3828 94.1498 69.0076 94.1498C69.6324 94.1498 70.1379 93.6429 70.1379 93.0164C70.1379 92.5836 70.03 92.4013 69.8369 92.3358Z" fill="#B00000"/>
<path d="M69.7885 93.4058C69.9532 93.4058 70.0867 93.212 70.0867 92.9729C70.0867 92.7339 69.9532 92.5401 69.7885 92.5401C69.6238 92.5401 69.4903 92.7339 69.4903 92.9729C69.4903 93.212 69.6238 93.4058 69.7885 93.4058Z" fill="#E7D3D3"/>
<path d="M68.9621 92.3667L68.6213 92.2812L68.9593 92.4151L68.9621 92.3667Z" fill="#651A1A"/>
<path d="M68.9593 92.4149L68.7435 92.5601L69.0303 92.4263L68.9593 92.4149Z" fill="#651A1A"/>
<path d="M69.0303 92.4266L69.3001 92.5063L69.0474 92.3839L69.0303 92.4266Z" fill="#651A1A"/>
<path d="M69.0303 92.373L69.3001 92.3018L69.0701 92.4157L69.0303 92.373Z" fill="#651A1A"/>
<path d="M68.9593 92.4008C68.9593 92.4008 69.1524 90.7407 70.0186 90.8717L70.1776 91.0511C70.1776 91.0511 69.1183 91.1764 69.0473 92.3951C69.0473 92.3951 69.0473 92.4265 69.0076 92.4265C68.965 92.4293 68.9593 92.4008 68.9593 92.4008Z" fill="#326E41"/>
<path d="M73.4067 93.2164C73.2903 93.1452 73.1483 93.1025 72.9921 93.1025C72.8387 93.1025 72.6967 93.1452 72.5803 93.2136C72.5746 93.2136 72.5689 93.2136 72.5633 93.2136C72.5604 93.2136 72.5547 93.2136 72.5519 93.2136C72.4355 93.1424 72.2963 93.0997 72.1401 93.0997C71.8873 93.0997 71.6687 93.2107 71.5465 93.3787C71.4585 93.4784 71.4102 93.6379 71.4102 93.9084C71.4102 94.5462 71.9243 95.0617 72.5604 95.0617C73.1966 95.0617 73.7106 94.5462 73.7106 93.9084C73.7135 93.467 73.6027 93.2848 73.4067 93.2164Z" fill="#B00000"/>
<path d="M73.6623 93.8652C73.6623 94.1101 73.526 94.3065 73.3584 94.3065C73.1909 94.3065 73.0546 94.1101 73.0546 93.8652C73.0546 93.6203 73.1909 93.4238 73.3584 93.4238C73.526 93.4238 73.6623 93.6203 73.6623 93.8652Z" fill="#E7D3D3"/>
<path d="M72.5178 93.2495L72.1685 93.1612L72.5122 93.2979L72.5178 93.2495Z" fill="#651A1A"/>
<path d="M72.5122 93.2979L72.2935 93.446L72.586 93.3065L72.5122 93.2979Z" fill="#651A1A"/>
<path d="M72.586 93.3073L72.8615 93.3927L72.603 93.2645L72.586 93.3073Z" fill="#651A1A"/>
<path d="M72.586 93.2559L72.8615 93.1819L72.6258 93.2986L72.586 93.2559Z" fill="#651A1A"/>
<path d="M72.5122 93.284C72.5122 93.284 72.089 91.4929 72.9722 91.6296L73.1341 91.8118C73.1341 91.8118 72.6769 92.0396 72.603 93.2812C72.603 93.2812 72.603 93.3125 72.5633 93.3125C72.5207 93.3125 72.5122 93.284 72.5122 93.284Z" fill="#326E41"/>
<path d="M93.4884 93.0035C93.3719 92.9323 93.2299 92.8896 93.0737 92.8896C92.9204 92.8896 92.7784 92.9323 92.6648 93.0007C92.6591 93.0007 92.6534 93.0007 92.6477 93.0007C92.6449 93.0007 92.6392 93.0007 92.6364 93.0007C92.5199 92.9295 92.3808 92.8868 92.2246 92.8868C91.9718 92.8868 91.7531 92.9978 91.631 93.1658C91.543 93.2655 91.4947 93.425 91.4947 93.6955C91.4947 94.3334 92.0087 94.8488 92.6449 94.8488C93.2811 94.8488 93.7951 94.3334 93.7951 93.6955C93.7951 93.257 93.6843 93.0747 93.4884 93.0035Z" fill="#B00000"/>
<path d="M93.744 93.6562C93.744 93.9011 93.6077 94.0976 93.4401 94.0976C93.2726 94.0976 93.1362 93.9011 93.1362 93.6562C93.1362 93.4113 93.2726 93.2148 93.4401 93.2148C93.6077 93.2148 93.744 93.4113 93.744 93.6562Z" fill="#E7D3D3"/>
<path d="M92.5994 93.0377L92.2501 92.9494L92.5938 93.0861L92.5994 93.0377Z" fill="#651A1A"/>
<path d="M92.5937 93.0862L92.3751 93.2343L92.6647 93.0976L92.5937 93.0862Z" fill="#651A1A"/>
<path d="M92.6648 93.0983L92.9431 93.1809L92.6847 93.0556L92.6648 93.0983Z" fill="#651A1A"/>
<path d="M92.6648 93.0439L92.9431 92.9698L92.7074 93.0866L92.6648 93.0439Z" fill="#651A1A"/>
<path d="M92.6846 93.075C92.6846 93.075 93.1106 91.2839 92.2246 91.4206L92.0627 91.6028C92.0627 91.6028 92.5199 91.8306 92.5938 93.0722C92.5938 93.0722 92.5938 93.1035 92.6335 93.1035C92.6761 93.1035 92.6846 93.075 92.6846 93.075Z" fill="#326E41"/>
<path d="M86.4622 93.6695C86.3457 93.5984 86.2037 93.5556 86.0475 93.5556C85.8942 93.5556 85.7522 93.5984 85.6357 93.6667C85.63 93.6667 85.6244 93.6667 85.6187 93.6667C85.6158 93.6667 85.6102 93.6667 85.6073 93.6667C85.4909 93.5955 85.3517 93.5528 85.1955 93.5528C84.9428 93.5528 84.7241 93.6638 84.602 93.8319C84.5139 93.9315 84.4656 94.091 84.4656 94.3615C84.4656 94.9994 84.9797 95.5148 85.6158 95.5148C86.252 95.5148 86.766 94.9994 86.766 94.3615C86.7689 93.9201 86.6581 93.7379 86.4622 93.6695Z" fill="#B00000"/>
<path d="M86.7177 94.3183C86.7177 94.5632 86.5814 94.7597 86.4139 94.7597C86.2463 94.7597 86.11 94.5632 86.11 94.3183C86.11 94.0734 86.2463 93.8769 86.4139 93.8769C86.5814 93.8769 86.7177 94.0734 86.7177 94.3183Z" fill="#E7D3D3"/>
<path d="M85.5733 93.7026L85.2239 93.6143L85.5676 93.751L85.5733 93.7026Z" fill="#651A1A"/>
<path d="M85.5676 93.751L85.3489 93.8991L85.6415 93.7596L85.5676 93.751Z" fill="#651A1A"/>
<path d="M85.6414 93.7604L85.9169 93.8458L85.6613 93.7177L85.6414 93.7604Z" fill="#651A1A"/>
<path d="M85.6414 93.7062L85.9169 93.635L85.6812 93.7517L85.6414 93.7062Z" fill="#651A1A"/>
<path d="M85.5676 93.7372C85.5676 93.7372 85.1444 91.946 86.0276 92.0827L86.1895 92.2649C86.1895 92.2649 85.7323 92.4928 85.6584 93.7343C85.6584 93.7343 85.6584 93.7656 85.6187 93.7656C85.5761 93.7656 85.5676 93.7372 85.5676 93.7372Z" fill="#326E41"/>
<path d="M77.627 93.577C77.5134 93.5086 77.377 93.4659 77.2265 93.4659C77.0788 93.4659 76.9425 93.5058 76.8289 93.5741C76.8232 93.5741 76.8176 93.5741 76.8119 93.5741C76.809 93.5741 76.8034 93.5741 76.8005 93.5741C76.6898 93.5058 76.5534 93.4631 76.4029 93.4631C76.1587 93.4631 75.9485 93.5713 75.8292 93.7336C75.744 93.8276 75.6986 93.9842 75.6986 94.2462C75.6986 94.8612 76.1956 95.3624 76.8119 95.3624C77.4253 95.3624 77.9252 94.8641 77.9252 94.2462C77.9252 93.8219 77.8172 93.6425 77.627 93.577Z" fill="#B00000"/>
<path d="M77.874 94.2068C77.874 94.4431 77.7434 94.6339 77.5787 94.6339C77.414 94.6339 77.2833 94.4431 77.2833 94.2068C77.2833 93.9704 77.414 93.7796 77.5787 93.7796C77.7434 93.7796 77.874 93.9704 77.874 94.2068Z" fill="#E7D3D3"/>
<path d="M76.7693 93.6109L76.4313 93.5255L76.7636 93.6565L76.7693 93.6109Z" fill="#651A1A"/>
<path d="M76.7635 93.6574L76.5533 93.7998L76.8345 93.6659L76.7635 93.6574Z" fill="#651A1A"/>
<path d="M76.8346 93.665L77.1016 93.7476L76.8516 93.6252L76.8346 93.665Z" fill="#651A1A"/>
<path d="M76.8346 93.6143L77.1016 93.5431L76.8744 93.657L76.8346 93.6143Z" fill="#651A1A"/>
<path d="M76.7636 93.6427C76.7636 93.6427 77.1101 92.0993 77.9621 92.2275L78.1183 92.404C78.1183 92.404 77.1584 92.6005 76.8488 93.637C76.8488 93.637 76.8488 93.6683 76.8119 93.6683C76.7721 93.6712 76.7636 93.6427 76.7636 93.6427Z" fill="#326E41"/>
<path d="M90.2167 93.4281C90.1031 93.3597 89.9668 93.317 89.8163 93.317C89.6686 93.317 89.5323 93.3569 89.4187 93.4252C89.413 93.4252 89.4074 93.4252 89.4017 93.4252C89.3988 93.4252 89.3931 93.4252 89.3903 93.4252C89.2795 93.3569 89.1432 93.3142 88.9927 93.3142C88.7485 93.3142 88.5383 93.4224 88.419 93.5847C88.3338 93.6787 88.2884 93.8353 88.2884 94.0973C88.2884 94.7123 88.7854 95.2135 89.4017 95.2135C90.018 95.2135 90.5149 94.7152 90.5149 94.0973C90.5149 93.673 90.407 93.4964 90.2167 93.4281Z" fill="#B00000"/>
<path d="M90.4638 94.0578C90.4638 94.2941 90.3332 94.4849 90.1685 94.4849C90.0037 94.4849 89.8731 94.2941 89.8731 94.0578C89.8731 93.8214 90.0037 93.6306 90.1685 93.6306C90.3332 93.6306 90.4638 93.8214 90.4638 94.0578Z" fill="#E7D3D3"/>
<path d="M89.3591 93.4633L89.0211 93.3779L89.3534 93.5089L89.3591 93.4633Z" fill="#651A1A"/>
<path d="M89.3534 93.5078L89.1432 93.6501L89.4244 93.5191L89.3534 93.5078Z" fill="#651A1A"/>
<path d="M89.4244 93.5192L89.6913 93.5989L89.4414 93.4765L89.4244 93.5192Z" fill="#651A1A"/>
<path d="M89.4244 93.4676L89.6914 93.3964L89.4642 93.5075L89.4244 93.4676Z" fill="#651A1A"/>
<path d="M89.4244 93.4569C89.4244 93.4569 89.0779 91.9135 88.2259 92.0417L88.0697 92.2182C88.0697 92.2182 89.0296 92.4147 89.3392 93.4512C89.3392 93.4512 89.3392 93.4826 89.3761 93.4826C89.4159 93.4854 89.4244 93.4569 89.4244 93.4569Z" fill="#326E41"/>
<path d="M81.8984 93.8455C81.7905 93.78 81.657 93.7373 81.5121 93.7373C81.3701 93.7373 81.2395 93.7771 81.1316 93.8398C81.1259 93.8398 81.1202 93.8398 81.1145 93.8398C81.1117 93.8398 81.1089 93.8398 81.1032 93.8398C80.9953 93.7743 80.8646 93.7344 80.7226 93.7344C80.4897 93.7344 80.2853 93.8398 80.1717 93.9936C80.0893 94.0847 80.0467 94.2356 80.0467 94.4834C80.0467 95.0757 80.5238 95.5541 81.1145 95.5541C81.7053 95.5541 82.1824 95.0757 82.1824 94.4834C82.1824 94.079 82.0801 93.9081 81.8984 93.8455Z" fill="#B00000"/>
<path d="M82.1341 94.4493C82.1341 94.6743 82.0063 94.8594 81.8501 94.8594C81.6939 94.8594 81.5661 94.6771 81.5661 94.4493C81.5661 94.2215 81.6939 94.0393 81.8501 94.0393C82.0091 94.0393 82.1341 94.2215 82.1341 94.4493Z" fill="#E7D3D3"/>
<path d="M81.0719 93.8766L80.7481 93.794L81.069 93.9221L81.0719 93.8766Z" fill="#651A1A"/>
<path d="M81.0691 93.9219L80.8646 94.0586L81.1344 93.9304L81.0691 93.9219Z" fill="#651A1A"/>
<path d="M81.1343 93.9315L81.3928 94.0084L81.1542 93.8917L81.1343 93.9315Z" fill="#651A1A"/>
<path d="M81.1344 93.8792L81.3928 93.8137L81.1742 93.9219L81.1344 93.8792Z" fill="#651A1A"/>
<path d="M81.0691 93.908C81.0691 93.908 81.2509 92.3389 82.0716 92.4642L82.2221 92.6351C82.2221 92.6351 81.2224 92.7547 81.1543 93.9051C81.1543 93.9051 81.1543 93.9336 81.1174 93.9336C81.0748 93.9336 81.0691 93.908 81.0691 93.908Z" fill="#326E41"/>
<path d="M96.104 92.4532C95.9989 92.3877 95.8711 92.3478 95.7291 92.3478C95.59 92.3478 95.4622 92.3849 95.3599 92.4504C95.3543 92.4504 95.3486 92.4504 95.3457 92.4504C95.3429 92.4504 95.3401 92.4504 95.3344 92.4504C95.2293 92.3877 95.1043 92.3478 94.9652 92.3478C94.738 92.3478 94.5392 92.4504 94.4313 92.5984C94.3517 92.6867 94.3091 92.8319 94.3091 93.0768C94.3091 93.652 94.7749 94.1191 95.3486 94.1191C95.9223 94.1191 96.388 93.652 96.388 93.0768C96.3795 92.681 96.2801 92.5159 96.104 92.4532Z" fill="#B00000"/>
<path d="M96.334 93.0394C96.334 93.2586 96.2119 93.438 96.0586 93.438C95.908 93.438 95.7831 93.2586 95.7831 93.0394C95.7831 92.8201 95.9052 92.6407 96.0586 92.6407C96.2119 92.6407 96.334 92.8201 96.334 93.0394Z" fill="#E7D3D3"/>
<path d="M95.3004 92.4841L94.9852 92.4044L95.2976 92.5297L95.3004 92.4841Z" fill="#651A1A"/>
<path d="M95.2975 92.5294L95.0987 92.6603L95.36 92.5379L95.2975 92.5294Z" fill="#651A1A"/>
<path d="M95.3599 92.5378L95.6098 92.6118L95.3798 92.4979L95.3599 92.5378Z" fill="#651A1A"/>
<path d="M95.3599 92.4894L95.6098 92.4239L95.3997 92.5293L95.3599 92.4894Z" fill="#651A1A"/>
<path d="M95.2975 92.5154C95.2975 92.5154 95.4736 90.9891 96.2716 91.1115L96.4164 91.2767C96.4164 91.2767 95.4423 91.3935 95.377 92.5126C95.377 92.5126 95.377 92.541 95.3401 92.541C95.3032 92.541 95.2975 92.5154 95.2975 92.5154Z" fill="#326E41"/>
<path d="M83.2844 79.4047V79.7293V79.8945V80.3216L83.2815 80.6292V80.8342V81.3638V81.4208V81.9134V82.0928V82.5L83.2787 82.7165V82.8759V83.4454V83.4654L83.2758 83.5878C83.29 83.7928 83.1367 83.9665 82.9322 83.9808L82.5403 84.0064C82.3358 84.0207 82.1626 83.8669 82.1484 83.6619L82.137 83.5565L82.1285 83.4881L82.0688 82.9756L82.0433 82.7478L82.0262 82.6054L81.978 82.1498L81.9638 82.0216L81.9098 81.5432L81.8928 81.3952L81.8445 80.9595L81.8132 80.6947L81.7877 80.4555L81.7309 79.94L81.7224 79.8717L81.6826 79.5072C81.6684 79.305 81.8246 79.1285 82.0262 79.1142L82.8782 79.0573C83.0941 79.0459 83.2702 79.2025 83.2844 79.4047Z" fill="#E8E7CC"/>
<path d="M82.5119 79.4639L82.3784 79.4725C82.3131 79.4782 82.2534 79.4269 82.2506 79.3586L82.1682 78.0914C82.1625 78.023 82.2137 77.9661 82.2818 77.9632L82.4153 77.9547C82.4835 77.949 82.5403 78.0003 82.5431 78.0686L82.6255 79.3358C82.6283 79.4013 82.5772 79.4582 82.5119 79.4639Z" fill="#3A3A33"/>
<path d="M82.3074 78.1599C82.3074 78.1599 81.2396 78.8462 80.5381 77.8239C79.8366 76.8016 78.8682 76.5766 78.8682 76.5766C78.8682 76.5766 81.4724 76.047 82.1739 77.0693C82.8726 78.0887 82.3074 78.1599 82.3074 78.1599Z" fill="#C91E1E"/>
<path d="M82.3643 78.0738C82.3643 78.0738 81.6146 78.555 81.1204 77.8374C80.6291 77.1198 79.5442 76.7297 79.5442 76.7297C79.5442 76.7297 81.7764 76.5902 82.2678 77.3078C82.7619 78.0253 82.3643 78.0738 82.3643 78.0738Z" fill="#F2BB22"/>
<path d="M81.8474 79.4755C81.8843 79.521 81.944 79.5353 82.0008 79.5467C82.0576 79.5581 82.1144 79.5637 82.1712 79.5666C82.2876 79.5694 82.4041 79.5694 82.5205 79.5637C82.6369 79.5609 82.7505 79.5495 82.8585 79.5267C82.9607 79.4983 83.0771 79.4555 83.1141 79.3359C83.1311 79.3986 83.097 79.4669 83.0573 79.5182C83.0118 79.5666 82.955 79.6008 82.8954 79.6321C82.7761 79.6862 82.6483 79.7004 82.5262 79.709C82.4041 79.7118 82.2791 79.709 82.157 79.6777C82.0434 79.6406 81.89 79.6036 81.8474 79.4755Z" fill="#F7F5E2"/>
<path d="M83.2844 79.8917V80.3188L83.2815 80.6264C83.0543 80.6748 82.8271 80.6976 82.6198 80.7061C82.3926 80.7146 82.1114 80.7203 81.8246 80.6947L81.799 80.4555L81.7422 79.9401C82.0916 80.0056 82.4551 80.0084 82.8072 79.9714C82.9549 79.9543 83.1196 79.9316 83.2844 79.8917Z" fill="#3D6398"/>
<path d="M83.2815 81.3633V81.4202V81.9129V82.0923C83.0855 82.1264 82.8952 82.1464 82.7163 82.1549C82.509 82.1663 82.2534 82.1691 81.9893 82.1492L81.9751 82.0211L81.9211 81.5427L81.9041 81.3946C82.2335 81.4487 82.5743 81.4487 82.9066 81.4174C83.0173 81.4088 83.148 81.3918 83.2815 81.3633Z" fill="#3D6398"/>
<path d="M83.2787 82.716V82.8755V83.445C83.114 83.4706 82.9521 83.4849 82.8015 83.4934C82.6113 83.502 82.3756 83.5048 82.1342 83.4906L82.0745 82.978L82.049 82.7502C82.3585 82.7929 82.6794 82.7929 82.989 82.7587C83.0799 82.7474 83.1793 82.736 83.2787 82.716Z" fill="#3D6398"/>
<path d="M79.1862 79.8374L79.2316 80.1592L79.2572 80.3215L79.3168 80.7458L79.3594 81.0505L79.3906 81.2527L79.4673 81.7766L79.4758 81.8336L79.5468 82.3205L79.5724 82.4999L79.632 82.9043L79.6604 83.1179L79.6832 83.2773L79.7627 83.8412L79.7655 83.8611L79.7826 83.9835C79.8252 84.1829 79.7002 84.3794 79.4986 84.4221L79.1152 84.5046C78.9164 84.5474 78.7204 84.4221 78.6778 84.2199L78.6522 84.1174L78.6352 84.0519L78.5017 83.5536L78.4449 83.3343L78.408 83.1948L78.2944 82.7505L78.2603 82.6252L78.1382 82.1611L78.1013 82.0187L77.9905 81.5944L77.9224 81.3381L77.8627 81.1046L77.7321 80.6006L77.715 80.5351L77.6242 80.182C77.5816 79.9855 77.7094 79.7862 77.9082 79.7435L78.7431 79.5641C78.9448 79.5128 79.1436 79.641 79.1862 79.8374Z" fill="#E8E7CC"/>
<path d="M78.4278 80.008L78.2971 80.0365C78.2318 80.0507 78.1665 80.008 78.1523 79.9425L77.8882 78.7009C77.874 78.6355 77.9166 78.57 77.9819 78.5557L78.1125 78.5272C78.1779 78.513 78.2432 78.5557 78.2574 78.6212L78.5215 79.8628C78.5357 79.9311 78.4931 79.9938 78.4278 80.008Z" fill="#3A3A33"/>
<path d="M78.0387 78.7494C78.0387 78.7494 77.0816 79.5809 76.241 78.6725C75.4003 77.7612 74.4092 77.6787 74.4092 77.6787C74.4092 77.6787 76.9112 76.7788 77.7519 77.6872C78.5897 78.5984 78.0387 78.7494 78.0387 78.7494Z" fill="#C91E1E"/>
<path d="M78.0841 78.6554C78.0841 78.6554 77.411 79.2392 76.8203 78.6013C76.2296 77.9606 75.1021 77.7328 75.1021 77.7328C75.1021 77.7328 77.2918 77.2715 77.8825 77.9122C78.4704 78.55 78.0841 78.6554 78.0841 78.6554Z" fill="#F2BB22"/>
<path d="M77.7747 80.1157C77.8173 80.1556 77.8797 80.1613 77.9365 80.1641C77.9933 80.167 78.0501 80.1641 78.1069 80.1584C78.2205 80.1442 78.337 80.1271 78.4506 80.1043C78.5642 80.0844 78.6749 80.0559 78.78 80.0189C78.8766 79.9762 78.9845 79.9164 79.0044 79.7939C79.0299 79.8537 79.0072 79.9249 78.9731 79.9819C78.9362 80.0388 78.8823 80.0787 78.8311 80.1157C78.7204 80.1869 78.5983 80.2211 78.4761 80.2439C78.3569 80.2638 78.2319 80.2809 78.1069 80.2666C77.9905 80.2524 77.8371 80.2382 77.7747 80.1157Z" fill="#F7F5E2"/>
<path d="M79.2542 80.3211L79.3138 80.7454L79.3564 81.0501C79.1378 81.1298 78.9191 81.1868 78.7146 81.2238C78.4902 81.2665 78.2148 81.3121 77.9251 81.3263L77.8654 81.0928L77.7348 80.5888C78.0898 80.603 78.4505 80.5546 78.7941 80.4663C78.939 80.4322 79.098 80.3838 79.2542 80.3211Z" fill="#C91E1E"/>
<path d="M79.4644 81.7764L79.4729 81.8333L79.5439 82.3203L79.5694 82.4997C79.3792 82.5623 79.1946 82.6107 79.0185 82.6449C78.814 82.6848 78.5612 82.7275 78.2971 82.7445L78.263 82.6193L78.1409 82.1551L78.104 82.0127C78.4391 82.0184 78.7742 81.97 79.098 81.8903C79.2116 81.8618 79.3366 81.8248 79.4644 81.7764Z" fill="#C91E1E"/>
<path d="M79.6574 83.1152L79.6801 83.2747L79.7597 83.8385C79.6006 83.8898 79.4416 83.9268 79.2939 83.9553C79.1065 83.9923 78.8736 84.0293 78.6322 84.0464L78.4987 83.5481L78.4419 83.3288C78.7543 83.326 79.0724 83.2804 79.3734 83.2007C79.4643 83.1779 79.5609 83.1494 79.6574 83.1152Z" fill="#C91E1E"/>
<path d="M87.6607 79.5925L87.5755 79.9143L87.5329 80.0766L87.4193 80.5009L87.337 80.8056L87.283 81.0106L87.1439 81.5374L87.1296 81.5944L87.0019 82.0813L86.9536 82.2607L86.8485 82.665L86.7889 82.8786L86.7462 83.0381L86.5957 83.6019L86.5929 83.6218L86.5588 83.7414C86.5191 83.9493 86.3259 84.0775 86.1243 84.0347L85.738 83.9522C85.5364 83.9095 85.4114 83.7101 85.4512 83.5051L85.4682 83.3969L85.4796 83.3285L85.5563 82.8017L85.5932 82.5711L85.6159 82.4259L85.6869 81.9588L85.7068 81.8279L85.7806 81.3381L85.8034 81.1871L85.8715 80.7401L85.9113 80.4696L85.9482 80.2247L86.0306 79.6979L86.0419 79.6295L86.0987 79.2593C86.1385 79.0571 86.3344 78.9233 86.5332 78.966L87.371 79.1454C87.5698 79.1881 87.7005 79.3903 87.6607 79.5925Z" fill="#E8E7CC"/>
<path d="M86.8967 79.4385L86.7661 79.41C86.7008 79.3958 86.6581 79.3303 86.6723 79.2619L86.9251 77.9833C86.9393 77.915 87.0018 77.8723 87.0671 77.8865L87.1978 77.915C87.2631 77.9292 87.3057 77.9947 87.2915 78.0631L87.0387 79.3416C87.0273 79.41 86.9649 79.4527 86.8967 79.4385Z" fill="#3A3A33"/>
<path d="M87.0416 78.0915C87.0416 78.0915 85.8317 78.4788 85.4228 77.2714C85.0138 76.064 84.1391 75.5742 84.1391 75.5742C84.1391 75.5742 86.7917 75.765 87.2006 76.9724C87.6067 78.1769 87.0416 78.0915 87.0416 78.0915Z" fill="#C91E1E"/>
<path d="M87.1211 78.0234C87.1211 78.0234 86.2719 78.2939 85.9851 77.4482C85.6983 76.5996 84.7554 75.9162 84.7554 75.9162C84.7554 75.9162 86.945 76.3917 87.2319 77.2403C87.5187 78.0832 87.1211 78.0234 87.1211 78.0234Z" fill="#F2BB22"/>
<path d="M86.2549 79.2704C86.2776 79.3274 86.3316 79.3558 86.3827 79.3815C86.4338 79.4099 86.4878 79.4299 86.5417 79.447C86.6525 79.4811 86.7661 79.5124 86.8797 79.5409C86.9933 79.5694 87.1069 79.5893 87.2176 79.5979C87.3256 79.5979 87.4477 79.5865 87.513 79.4783C87.513 79.5438 87.4647 79.6007 87.4108 79.6406C87.354 79.6776 87.2886 79.6947 87.2233 79.7089C87.0927 79.7289 86.9649 79.7089 86.8456 79.6833C86.7263 79.652 86.607 79.615 86.4963 79.5523C86.3969 79.484 86.2606 79.4071 86.2549 79.2704Z" fill="#F7F5E2"/>
<path d="M87.5329 80.076L87.4193 80.5003L87.3369 80.805C87.104 80.7879 86.8797 80.7509 86.678 80.7025C86.4565 80.6484 86.1839 80.5772 85.9141 80.4719L85.951 80.227L86.0333 79.7002C86.3543 79.8625 86.7036 79.965 87.0529 80.0248C87.1977 80.0504 87.3625 80.0704 87.5329 80.076Z" fill="#C91E1E"/>
<path d="M87.1438 81.5367L87.1296 81.5936L87.0018 82.0805L86.9536 82.2599C86.7548 82.24 86.5645 82.2087 86.3912 82.166C86.1896 82.1204 85.9397 82.0521 85.6898 81.9581L85.7096 81.8271L85.7835 81.3373L85.8062 81.1864C86.1101 81.3316 86.4395 81.4256 86.7661 81.4854C86.8769 81.5082 87.0075 81.5281 87.1438 81.5367Z" fill="#C91E1E"/>
<path d="M86.7889 82.8779L86.7463 83.0373L86.5958 83.6011C86.4311 83.5812 86.2692 83.5527 86.1215 83.5157C85.9341 83.473 85.7069 83.4104 85.4797 83.3278L85.5564 82.801L85.5933 82.5703C85.8801 82.6985 86.1897 82.7839 86.4964 82.838C86.5873 82.8551 86.6838 82.8693 86.7889 82.8779Z" fill="#C91E1E"/>
<path d="M79.1011 84.4531C79.1011 84.6781 78.9193 84.8603 78.6949 84.8603C78.4706 84.8603 78.2888 84.6781 78.2888 84.4531C78.2888 84.2281 78.4706 84.0459 78.6949 84.0459C78.9193 84.0459 79.1011 84.2281 79.1011 84.4531Z" fill="#531515"/>
<path d="M80.2739 84.2711C80.3307 84.4875 80.0978 84.7381 79.757 84.8263C79.4134 84.9146 79.0924 84.8093 79.0356 84.5928C78.9788 84.3764 79.2117 84.1258 79.5525 84.0376C79.8962 83.9464 80.2199 84.0518 80.2739 84.2711Z" fill="#531515"/>
<path d="M83.6307 83.8203C83.6875 84.0368 83.4547 84.2874 83.1139 84.3756C82.7702 84.4639 82.4493 84.3585 82.3925 84.1421C82.3357 83.9257 82.5686 83.6751 82.9094 83.5868C83.253 83.4986 83.5768 83.6039 83.6307 83.8203Z" fill="#531515"/>
<path d="M86.769 83.8835C86.8258 84.0999 86.5929 84.3505 86.2521 84.4388C85.9085 84.5271 85.5875 84.4217 85.5307 84.2053C85.4739 83.9889 85.7068 83.7383 86.0476 83.65C86.3884 83.5589 86.7122 83.6642 86.769 83.8835Z" fill="#531515"/>
<path d="M85.8942 83.7264C85.951 83.9429 85.7182 84.1934 85.3774 84.2817C85.0337 84.37 84.7128 84.2646 84.656 84.0482C84.5992 83.8318 84.8321 83.5812 85.1729 83.4929C85.5165 83.4047 85.8403 83.51 85.8942 83.7264Z" fill="#531515"/>
<path d="M82.6708 83.8438C82.7276 84.0602 82.4948 84.3108 82.154 84.3991C81.8103 84.4874 81.4894 84.382 81.4326 84.1656C81.3758 83.9492 81.6087 83.6986 81.9495 83.6103C82.2903 83.5221 82.614 83.6274 82.6708 83.8438Z" fill="#531515"/>
<path d="M76.0139 82.3685C75.8974 82.2973 75.7554 82.2546 75.5992 82.2546C75.4459 82.2546 75.3039 82.2973 75.1903 82.3656C75.1846 82.3656 75.1789 82.3656 75.1732 82.3656C75.1704 82.3656 75.1647 82.3656 75.1619 82.3656C75.0454 82.2944 74.9063 82.2517 74.7501 82.2517C74.4973 82.2517 74.2786 82.3628 74.1565 82.5308C74.0685 82.6305 74.0202 82.7899 74.0202 83.0604C74.0202 83.6983 74.5342 84.2137 75.1704 84.2137C75.8066 84.2137 76.3206 83.6983 76.3206 83.0604C76.3206 82.6219 76.2098 82.4368 76.0139 82.3685Z" fill="#B00000"/>
<path d="M76.2695 83.0211C76.2695 83.266 76.1332 83.4625 75.9656 83.4625C75.7981 83.4625 75.6617 83.266 75.6617 83.0211C75.6617 82.7762 75.7981 82.5797 75.9656 82.5797C76.1332 82.5797 76.2695 82.7762 76.2695 83.0211Z" fill="#E7D3D3"/>
<path d="M75.125 82.4026L74.7756 82.3143L75.1193 82.451L75.125 82.4026Z" fill="#651A1A"/>
<path d="M75.1193 82.4511L74.9006 82.5992L75.1903 82.4625L75.1193 82.4511Z" fill="#651A1A"/>
<path d="M75.1903 82.4632L75.4686 82.5458L75.2102 82.4205L75.1903 82.4632Z" fill="#651A1A"/>
<path d="M75.1903 82.4088L75.4686 82.3348L75.2329 82.4515L75.1903 82.4088Z" fill="#651A1A"/>
<path d="M75.1193 82.44C75.1193 82.44 74.6961 80.6488 75.5793 80.7855L75.7412 80.9678C75.7412 80.9678 75.284 81.1956 75.2101 82.4371C75.2101 82.4371 75.2101 82.4685 75.1704 82.4685C75.1278 82.4656 75.1193 82.44 75.1193 82.44Z" fill="#326E41"/>
<path d="M89.8617 82.761C89.7481 82.6927 89.6118 82.65 89.4613 82.65C89.3136 82.65 89.1773 82.6898 89.0637 82.7582C89.058 82.7582 89.0523 82.7582 89.0466 82.7582C89.0438 82.7582 89.0381 82.7582 89.0353 82.7582C88.9245 82.6898 88.7882 82.6471 88.6377 82.6471C88.3934 82.6471 88.1833 82.7553 88.064 82.9176C87.9788 83.0116 87.9333 83.1682 87.9333 83.4302C87.9333 84.0453 88.4303 84.5465 89.0466 84.5465C89.6601 84.5465 90.1599 84.0481 90.1599 83.4302C90.1599 83.0059 90.052 82.8265 89.8617 82.761Z" fill="#B00000"/>
<path d="M90.1088 83.3907C90.1088 83.6271 89.9781 83.8179 89.8134 83.8179C89.6515 83.8179 89.5181 83.6271 89.5181 83.3907C89.5181 83.1544 89.6487 82.9636 89.8134 82.9636C89.9781 82.9636 90.1088 83.1544 90.1088 83.3907Z" fill="#E7D3D3"/>
<path d="M89.0013 82.7963L88.6662 82.7108L88.9985 82.8418L89.0013 82.7963Z" fill="#651A1A"/>
<path d="M88.9983 82.8407L88.7853 82.9831L89.0665 82.8521L88.9983 82.8407Z" fill="#651A1A"/>
<path d="M89.0665 82.8521L89.3363 82.9319L89.0864 82.8094L89.0665 82.8521Z" fill="#651A1A"/>
<path d="M89.0666 82.7976L89.3364 82.7265L89.1063 82.8404L89.0666 82.7976Z" fill="#651A1A"/>
<path d="M89.0665 82.7899C89.0665 82.7899 88.72 81.2465 87.868 81.3746L87.7119 81.5512C87.7119 81.5512 88.6718 81.7477 88.9813 82.7842C88.9813 82.7842 88.9813 82.8155 89.0183 82.8155C89.0609 82.8155 89.0665 82.7899 89.0665 82.7899Z" fill="#326E41"/>
<path d="M82.1568 83.4741C82.0489 83.4086 81.9154 83.3659 81.7706 83.3659C81.6286 83.3659 81.4979 83.4058 81.39 83.4684C81.3843 83.4684 81.3786 83.4684 81.373 83.4684C81.3701 83.4684 81.3644 83.4684 81.3616 83.4684C81.2537 83.4029 81.123 83.363 80.981 83.363C80.7482 83.363 80.5437 83.4684 80.4301 83.6222C80.3477 83.7133 80.3051 83.8642 80.3051 84.112C80.3051 84.7043 80.7822 85.1827 81.373 85.1827C81.9637 85.1827 82.4408 84.7043 82.4408 84.112C82.4408 83.7076 82.3386 83.5367 82.1568 83.4741Z" fill="#B00000"/>
<path d="M82.3925 84.0779C82.3925 84.3029 82.2647 84.488 82.1085 84.488C81.9523 84.488 81.8245 84.3058 81.8245 84.0779C81.8245 83.853 81.9523 83.6679 82.1085 83.6679C82.2647 83.6679 82.3925 83.8501 82.3925 84.0779Z" fill="#E7D3D3"/>
<path d="M81.3303 83.5052L81.0065 83.4226L81.3274 83.5507L81.3303 83.5052Z" fill="#651A1A"/>
<path d="M81.3275 83.5505L81.123 83.6872L81.3929 83.559L81.3275 83.5505Z" fill="#651A1A"/>
<path d="M81.3928 83.5601L81.6512 83.637L81.4098 83.5203L81.3928 83.5601Z" fill="#651A1A"/>
<path d="M81.3928 83.5078L81.6513 83.4423L81.4326 83.5505L81.3928 83.5078Z" fill="#651A1A"/>
<path d="M81.3275 83.5365C81.3275 83.5365 81.5093 81.9675 82.33 82.0928L82.4806 82.2637C82.4806 82.2637 81.4809 82.3833 81.4127 83.5337C81.4127 83.5337 81.4127 83.5622 81.3758 83.5622C81.3332 83.5622 81.3275 83.5365 81.3275 83.5365Z" fill="#326E41"/>
<path d="M75.3323 84.3368C75.3039 84.4108 74.9716 84.3538 74.5853 84.2086C74.1991 84.0634 73.9094 83.8897 73.935 83.8157C73.9634 83.7416 74.2957 83.7986 74.6819 83.9438C75.071 84.0862 75.3607 84.2627 75.3323 84.3368Z" fill="#531515"/>
<path d="M76.3149 84.0713C76.3235 84.1482 75.9969 84.2422 75.5851 84.282C75.1761 84.319 74.8382 84.2877 74.8296 84.208C74.8211 84.1311 75.1477 84.0371 75.5595 83.9973C75.9685 83.9602 76.3064 83.9944 76.3149 84.0713Z" fill="#531515"/>
<path d="M81.1912 85.1217C81.1628 85.1958 80.8305 85.1388 80.4443 84.9936C80.058 84.8484 79.7684 84.6747 79.7939 84.6006C79.8223 84.5266 80.1546 84.5835 80.5408 84.7288C80.9271 84.8712 81.2168 85.0477 81.1912 85.1217Z" fill="#531515"/>
<path d="M82.2648 84.9621C82.2733 85.039 81.9467 85.1329 81.5349 85.1728C81.1259 85.2098 80.788 85.1785 80.7795 85.0988C80.7709 85.0219 81.0975 84.9279 81.5093 84.888C81.9183 84.851 82.2563 84.8852 82.2648 84.9621Z" fill="#531515"/>
<path d="M70.3566 94.1144C70.3651 94.1913 70.0385 94.2853 69.6267 94.3251C69.2177 94.3622 68.8798 94.3308 68.8713 94.2511C68.8627 94.1742 69.1893 94.0802 69.6011 94.0404C70.0101 94.0034 70.3481 94.0375 70.3566 94.1144Z" fill="#531515"/>
<path d="M72.6485 95.1171C72.6201 95.1912 72.2878 95.1342 71.9016 94.989C71.5153 94.8437 71.2256 94.67 71.2512 94.596C71.2796 94.522 71.6147 94.5789 71.9981 94.7242C72.3844 94.8665 72.6769 95.0431 72.6485 95.1171Z" fill="#531515"/>
<path d="M73.6283 94.8527C73.6368 94.9296 73.3102 95.0235 72.8984 95.0634C72.4895 95.1004 72.1515 95.0691 72.143 94.9894C72.1345 94.9125 72.4611 94.8185 72.8729 94.7786C73.2847 94.7416 73.6226 94.7758 73.6283 94.8527Z" fill="#531515"/>
<path d="M77.0419 95.6209C77.0135 95.695 76.6812 95.638 76.295 95.4928C75.9088 95.3475 75.6191 95.1738 75.6446 95.0998C75.673 95.0258 76.0053 95.0827 76.3916 95.2279C76.7778 95.3732 77.0703 95.5497 77.0419 95.6209Z" fill="#531515"/>
<path d="M78.0245 95.3563C78.0331 95.4332 77.7065 95.5272 77.2947 95.5671C76.8857 95.6041 76.5477 95.5728 76.5392 95.493C76.5307 95.4161 76.8573 95.3222 77.2691 95.2823C77.6781 95.2481 78.016 95.2795 78.0245 95.3563Z" fill="#531515"/>
<path d="M81.2763 95.6209C81.2479 95.695 80.9156 95.638 80.5294 95.4928C80.1431 95.3475 79.8535 95.1738 79.879 95.0998C79.9074 95.0258 80.2397 95.0827 80.6259 95.2279C81.0122 95.3732 81.3047 95.5497 81.2763 95.6209Z" fill="#531515"/>
<path d="M82.2589 95.3563C82.2674 95.4332 81.9408 95.5272 81.529 95.5671C81.1201 95.6041 80.7821 95.5728 80.7736 95.493C80.7651 95.4161 81.0917 95.3222 81.5035 95.2823C81.9124 95.2481 82.2504 95.2795 82.2589 95.3563Z" fill="#531515"/>
<path d="M85.7834 95.6864C85.755 95.7604 85.4227 95.7034 85.0365 95.5582C84.6502 95.413 84.3605 95.2393 84.3861 95.1652C84.4145 95.0912 84.7468 95.1482 85.133 95.2934C85.5193 95.4358 85.8089 95.6123 85.7834 95.6864Z" fill="#531515"/>
<path d="M86.7633 95.4217C86.7718 95.4986 86.4452 95.5926 86.0334 95.6324C85.6244 95.6695 85.2865 95.6381 85.2779 95.5584C85.2694 95.4815 85.596 95.3875 86.0078 95.3477C86.4196 95.3107 86.7576 95.342 86.7633 95.4217Z" fill="#531515"/>
<path d="M89.5663 95.3504C89.5379 95.4245 89.2028 95.3675 88.8194 95.2223C88.4332 95.077 88.1435 94.9033 88.169 94.8293C88.1974 94.7553 88.5297 94.8122 88.916 94.9574C89.3022 95.0998 89.5947 95.2764 89.5663 95.3504Z" fill="#531515"/>
<path d="M90.549 95.0856C90.5575 95.1625 90.2309 95.2564 89.8191 95.2963C89.4101 95.3333 89.0722 95.302 89.0636 95.2223C89.0551 95.1454 89.3817 95.0514 89.7935 95.0116C90.2025 94.9745 90.5404 95.0059 90.549 95.0856Z" fill="#531515"/>
<path d="M89.2113 84.692C89.1829 84.766 88.8507 84.7091 88.4644 84.5639C88.0782 84.4186 87.7885 84.2449 87.8141 84.1709C87.8425 84.0969 88.1747 84.1538 88.561 84.299C88.9472 84.4414 89.2397 84.618 89.2113 84.692Z" fill="#531515"/>
<path d="M90.191 84.4274C90.1996 84.5043 89.873 84.5982 89.4612 84.6381C89.0522 84.6751 88.7142 84.6438 88.7057 84.5641C88.6972 84.4872 89.0238 84.3932 89.4356 84.3534C89.8474 84.3163 90.1854 84.3477 90.191 84.4274Z" fill="#531515"/>
<path d="M117.66 73.7959C117.66 73.7959 109.353 71.7997 108.989 81.3762C108.628 90.9526 108.628 103.32 108.628 103.32H113.326C113.326 103.32 116.214 81.7748 117.66 73.7959Z" fill="#971616"/>
<path d="M111.06 103.321C111.06 103.321 111.991 105.288 110.44 105.684C108.89 106.077 103.928 105.684 103.928 105.684C103.928 105.684 103.619 103.321 107.03 103.321C110.438 103.321 111.06 103.321 111.06 103.321Z" fill="#AD876E"/>
<path d="M111.738 103.543H108.063C107.603 103.543 107.228 103.167 107.228 102.705V102.609C107.228 102.147 107.603 101.771 108.063 101.771H111.738C112.198 101.771 112.573 102.147 112.573 102.609V102.705C112.573 103.164 112.198 103.543 111.738 103.543Z" fill="#772A2A"/>
<path d="M145.108 112.465V115.614H136.472L140.397 112.465H145.108Z" fill="#0F1926"/>
<path d="M143.183 83.6348C143.183 83.6348 148.681 85.2095 148.286 93.0831C147.894 100.957 145.046 106.165 145.046 112.464H140.334C140.334 112.464 132.581 102.927 132.581 97.8073C132.581 92.6901 143.183 83.6348 143.183 83.6348Z" fill="#2E4A72"/>
<path d="M145.165 113.29H140.917C140.61 113.29 140.36 113.039 140.36 112.731V112.068C140.36 111.76 140.61 111.51 140.917 111.51H145.165C145.472 111.51 145.722 111.76 145.722 112.068V112.731C145.722 113.039 145.472 113.29 145.165 113.29Z" fill="#1F324C"/>
<path d="M149.07 91.9045C148.678 99.7781 140.434 106.077 140.434 112.376H135.722C135.722 112.376 135.628 112.225 135.466 111.954C134.333 110.066 129.832 102.284 129.832 97.8076C129.832 92.6904 144.753 82.4562 144.753 82.4562C144.753 82.4562 149.465 84.0309 149.07 91.9045Z" fill="#3D6398"/>
<path d="M140.434 112.803V115.952H131.794L135.722 112.803H140.434Z" fill="#1F324C"/>
<path d="M140.292 113.307H135.299C134.992 113.307 134.742 113.056 134.742 112.749V112.085C134.742 111.778 134.992 111.527 135.299 111.527H140.292C140.598 111.527 140.848 111.778 140.848 112.085V112.749C140.848 113.056 140.598 113.307 140.292 113.307Z" fill="#2E4A72"/>
<path d="M137.392 111.847C137.392 111.801 136.432 111.869 135.467 111.955C134.333 110.067 129.832 102.284 129.832 97.8079C131.772 95.8459 134.933 95.1426 134.933 95.1426C134.933 95.1426 133.984 105.109 137.392 111.847Z" fill="#2E4A72"/>
<path d="M144.753 82.4562C144.753 82.4562 143.223 86.4172 140.34 90.4181C136.864 95.2476 131.422 100.14 124.334 98.2034C117.989 96.4664 114.374 91.1898 113.096 85.8534C111.77 80.292 112.979 74.6652 116.285 72.9082C116.964 72.5465 144.753 82.4562 144.753 82.4562Z" fill="#E8E7CC"/>
<path d="M118.989 72.6125C118.989 76.471 116.322 79.6233 112.86 81.554C110.472 82.8867 107.703 83.6356 105.169 83.6356C100.512 83.6356 97.9756 81.0955 97.0043 77.0633C96.6834 75.7306 96.5329 74.2328 96.5329 72.6125C96.5329 66.0887 101.56 60.8035 107.762 60.8035C113.962 60.8035 118.989 66.0887 118.989 72.6125Z" fill="#FFB993"/>
<path d="M100.145 71.9625C98.6857 70.7722 97.8394 72.6915 97.8394 72.6915L100.145 71.9625Z" fill="black"/>
<path d="M118.838 74.1638C117.112 74.5567 117.606 71.8259 117.606 70.6441C117.606 69.4624 114.842 67.1017 114.152 67.1017C113.462 67.1017 111.389 70.6441 107.589 70.2512C103.789 69.8554 100.679 69.0694 97.916 65.1312C95.1527 61.1958 94.8062 64.7382 94.8062 64.7382C94.8062 64.7382 94.3149 64.5275 93.7668 64.0918C92.6961 63.2404 91.4068 61.529 93.0795 58.8323C93.8974 57.5167 95.1073 56.8817 96.4733 56.651C99.9324 56.0587 104.377 58.0464 105.862 58.0464C107.933 58.0464 117.262 62.3776 117.262 62.3776C117.262 62.3776 118.642 63.9523 118.989 68.6765C119.332 73.4006 120.565 73.7708 118.838 74.1638Z" fill="#4D3322"/>
<path d="M117.986 70.3372C117.986 72.4216 116.444 74.1103 114.539 74.1103C112.636 74.1103 111.091 72.4216 111.091 70.3372C111.091 68.2527 111.446 66.6068 114.539 66.4303C116.438 66.3221 117.986 68.2556 117.986 70.3372Z" fill="#FFA878"/>
<path d="M113.891 73.7479C115.656 73.7479 117.086 72.1696 117.086 70.2226C117.086 68.2756 115.656 66.6973 113.891 66.6973C112.126 66.6973 110.696 68.2756 110.696 70.2226C110.696 72.1696 112.126 73.7479 113.891 73.7479Z" fill="#FFB993"/>
<path d="M115.092 103.859C115.092 103.859 116.271 105.826 114.306 106.222C112.343 106.615 106.061 106.222 106.061 106.222C106.061 106.222 105.669 103.859 109.989 103.859C114.306 103.859 115.092 103.859 115.092 103.859Z" fill="#E6B493"/>
<path d="M105.879 58.0466L117.66 48.9912L117.79 63.2947C117.79 63.2947 109.807 63.9525 105.879 58.0466Z" fill="#C91E1E"/>
<path d="M95.8173 68.7196C97.3168 68.7196 98.5324 67.4524 98.5324 65.8891C98.5324 64.3259 97.3168 63.0586 95.8173 63.0586C94.3179 63.0586 93.1023 64.3259 93.1023 65.8891C93.1023 67.4524 94.3179 68.7196 95.8173 68.7196Z" fill="#3A261A"/>
<path d="M96.2773 67.8651C97.7768 67.8651 98.9923 66.5978 98.9923 65.0346C98.9923 63.4713 97.7768 62.2041 96.2773 62.2041C94.7778 62.2041 93.5623 63.4713 93.5623 65.0346C93.5623 66.5978 94.7778 67.8651 96.2773 67.8651Z" fill="#4D3322"/>
<path d="M95.9479 65.1574C98.0293 65.1574 99.7166 63.3993 99.7166 61.2306C99.7166 59.0618 98.0293 57.3037 95.9479 57.3037C93.8665 57.3037 92.1792 59.0618 92.1792 61.2306C92.1792 63.3993 93.8665 65.1574 95.9479 65.1574Z" fill="#3A261A"/>
<path d="M96.4818 64.7181C98.5632 64.7181 100.25 62.96 100.25 60.7912C100.25 58.6225 98.5632 56.8644 96.4818 56.8644C94.4004 56.8644 92.7131 58.6225 92.7131 60.7912C92.7131 62.96 94.4004 64.7181 96.4818 64.7181Z" fill="#4D3322"/>
<path d="M111.337 68.9721C111.875 66.9559 109.383 64.5367 105.772 63.5686C102.161 62.6006 98.7982 63.4503 98.2606 65.4665C97.7229 67.4827 100.214 69.9019 103.825 70.87C107.436 71.838 110.8 70.9883 111.337 68.9721Z" fill="#3A261A"/>
<path d="M111.214 67.9675C111.752 65.9513 109.289 63.5397 105.713 62.581C102.136 61.6223 98.8016 62.4796 98.264 64.4958C97.7264 66.512 100.19 68.9237 103.766 69.8823C107.342 70.841 110.677 69.9838 111.214 67.9675Z" fill="#4D3322"/>
<path d="M112.86 81.553C110.472 82.8857 107.703 83.6346 105.169 83.6346C100.512 83.6346 97.9756 81.0946 97.0043 77.0624C97.3054 77.7088 97.8024 80.5393 102.437 81.9232C107.799 83.5236 112.198 80.357 112.198 80.357L112.86 81.553Z" fill="#FFA878"/>
<path d="M100.841 70.4934L98.2369 71.1028C97.845 71.1939 97.4474 70.9462 97.3565 70.5532C97.2657 70.1603 97.5127 69.7616 97.9047 69.6705L100.509 69.0611C100.901 68.97 101.298 69.2177 101.389 69.6107C101.48 70.0065 101.233 70.4023 100.841 70.4934Z" fill="#4D3322"/>
<path d="M97.5609 73.9676C97.5609 74.6453 97.0128 75.1949 96.3368 75.1949C95.6609 75.1949 95.1128 74.6453 95.1128 73.9676C95.1128 73.2898 96.1892 72.857 96.6407 72.1223C96.9929 71.5443 97.5609 73.2898 97.5609 73.9676Z" fill="#FFA878"/>
<path d="M97.5014 77.4562L97.5042 77.4505L97.5724 76.078C97.5724 76.078 96.141 74.7652 95.7889 75.9783C95.5077 76.9493 96.7232 76.7671 96.7232 76.7671C96.7232 76.7671 95.8826 77.2597 96.2972 77.7467C96.6607 78.1738 97.0015 78.02 97.2259 77.8065C97.3509 77.8292 97.473 77.8919 97.5525 78.0314C97.6831 78.2706 97.5894 77.8235 97.5014 77.4562Z" fill="#FFB993"/>
<path d="M140.843 89.5495C140.814 89.6037 140.644 89.9226 140.34 90.4181C136.864 95.2476 131.422 100.14 124.334 98.2034C117.989 96.4664 114.374 91.1898 113.096 85.8534L115.998 85.3408C116.069 85.5544 119.06 95.0056 126.981 95.7573C134.978 96.5176 140.703 89.7062 140.843 89.5495Z" fill="#DBD8BA"/>
<path d="M120.017 73.7991C120.017 73.7991 110.986 71.7517 110.594 81.5816C110.202 91.4115 110.179 103.884 110.179 103.884L115.149 103.955C115.146 103.955 118.446 81.9917 120.017 73.7991Z" fill="#C91E1E"/>
<path d="M115.021 104.255H110.423C109.963 104.255 109.588 103.879 109.588 103.417V103.013C109.588 102.552 109.963 102.176 110.423 102.176H115.021C115.481 102.176 115.856 102.552 115.856 103.013V103.417C115.856 103.876 115.481 104.255 115.021 104.255Z" fill="#9E3838"/>
<path d="M115.646 68.9586C116.413 69.9923 116.362 71.3363 115.53 71.9571C114.698 72.5779 113.4 72.2419 112.633 71.2082C111.866 70.1745 111.917 68.8305 112.749 68.2097C113.581 67.5889 114.876 67.9221 115.646 68.9586Z" fill="#FFA878"/>
<path d="M114.379 70.3944C114.842 71.0209 114.751 71.8752 114.175 72.3051C113.598 72.7351 112.755 72.5757 112.292 71.952C111.829 71.3256 111.92 70.4713 112.496 70.0413C113.07 69.6113 113.914 69.7679 114.379 70.3944Z" fill="#FFB993"/>
</g>
<defs>
<linearGradient id="paint0_linear_8_582" x1="52.1219" y1="149.863" x2="161.571" y2="26.9089" gradientUnits="userSpaceOnUse">
<stop stop-color="white"/>
<stop offset="1" stop-color="#E8E5FF"/>
</linearGradient>
<clipPath id="clip0_8_582">
<rect width="142" height="127" fill="white" transform="translate(22 13.7979)"/>
</clipPath>
</defs>
</svg>
