<svg width="185" height="148" viewBox="0 0 185 148" fill="none" xmlns="http://www.w3.org/2000/svg">
<g clip-path="url(#clip0_3153_6480)">
<path d="M35.2438 145.964C36.7308 143.099 26.7131 122.67 26.4994 116.904C25.8581 99.5998 39.0558 97.4441 40.8898 83.3117C42.5329 70.6469 21.171 55.3581 34.383 43.3791C45.6942 33.1238 58.2908 37.3943 71.4966 33.8605C79.3713 31.7532 79.9752 24.5157 86.1974 20.3947C99.682 11.4638 129.119 20.667 136.807 33.6281C144.181 46.0595 128.108 57.0099 132.228 68.9175C135.541 78.4929 146.086 83.2136 146.688 94.2235C147.167 102.986 138.252 108.957 139.458 117.672C141.091 129.47 162.392 132.466 145.724 146.229" fill="#E9F4FF"/>
<path d="M119.24 11.6426C119.374 11.6426 119.483 11.7508 119.483 11.8843V13.82C119.483 13.9535 119.374 14.0617 119.24 14.0617C119.106 14.0617 118.997 13.9535 118.997 13.82V11.8843C118.997 11.7508 119.106 11.6426 119.24 11.6426Z" fill="#E9F4FF"/>
<path d="M119.336 20.1437C119.47 20.1437 119.579 20.0355 119.579 19.902V17.9663C119.579 17.8328 119.47 17.7246 119.336 17.7246C119.202 17.7246 119.093 17.8328 119.093 17.9663V19.902C119.093 20.0355 119.202 20.1437 119.336 20.1437Z" fill="#E9F4FF"/>
<path d="M122.217 12.8375C122.316 12.928 122.322 13.081 122.231 13.179L120.909 14.6002C120.818 14.6982 120.664 14.704 120.566 14.6135C120.467 14.523 120.461 14.37 120.552 14.2719L121.874 12.8508C121.965 12.7532 122.119 12.747 122.217 12.8375Z" fill="#E9F4FF"/>
<path d="M116.358 12.7615C116.26 12.852 116.254 13.005 116.345 13.103L117.666 14.5242C117.758 14.6222 117.911 14.628 118.01 14.5375C118.108 14.447 118.114 14.294 118.023 14.1959L116.702 12.7748C116.611 12.6768 116.457 12.671 116.358 12.7615Z" fill="#E9F4FF"/>
<path d="M122.313 18.9496C122.412 18.8591 122.418 18.7061 122.326 18.608L121.005 17.1869C120.914 17.0889 120.76 17.0831 120.662 17.1736C120.563 17.2641 120.557 17.4171 120.648 17.5151L121.97 18.9363C122.061 19.0339 122.215 19.0401 122.313 18.9496Z" fill="#E9F4FF"/>
<path d="M116.263 18.8734C116.164 18.7829 116.158 18.6299 116.249 18.5319L117.571 17.1107C117.662 17.0127 117.816 17.0069 117.914 17.0974C118.012 17.1879 118.019 17.3409 117.928 17.439L116.606 18.8601C116.515 18.9581 116.361 18.9639 116.263 18.8734Z" fill="#E9F4FF"/>
<path d="M123.595 15.8923C123.595 16.0262 123.486 16.1347 123.352 16.1347L121.406 16.1356C121.271 16.1356 121.163 16.0271 121.163 15.8937C121.163 15.7598 121.271 15.6513 121.405 15.6513L123.352 15.6504C123.486 15.6499 123.595 15.7585 123.595 15.8923Z" fill="#E9F4FF"/>
<path d="M114.981 15.8162C114.981 15.95 115.09 16.0585 115.224 16.0585L117.17 16.0594C117.304 16.0594 117.413 15.9509 117.413 15.8175C117.413 15.6836 117.305 15.5751 117.17 15.5751L115.224 15.5742C115.09 15.5742 114.981 15.6823 114.981 15.8162Z" fill="#E9F4FF"/>
<path d="M144.495 109.273C144.629 109.273 144.738 109.382 144.738 109.515V111.451C144.738 111.584 144.629 111.693 144.495 111.693C144.36 111.693 144.251 111.584 144.251 111.451V109.515C144.251 109.382 144.36 109.273 144.495 109.273Z" fill="#E9F4FF"/>
<path d="M144.59 117.774C144.724 117.774 144.833 117.666 144.833 117.533V115.597C144.833 115.464 144.724 115.355 144.59 115.355C144.456 115.355 144.347 115.464 144.347 115.597V117.533C144.347 117.666 144.456 117.774 144.59 117.774Z" fill="#E9F4FF"/>
<path d="M147.472 110.468C147.57 110.559 147.577 110.712 147.486 110.81L146.164 112.231C146.073 112.329 145.919 112.335 145.821 112.245C145.722 112.154 145.716 112.001 145.807 111.903L147.129 110.482C147.22 110.384 147.374 110.378 147.472 110.468Z" fill="#E9F4FF"/>
<path d="M141.613 110.392C141.514 110.483 141.509 110.636 141.599 110.734L142.921 112.155C143.012 112.253 143.166 112.259 143.264 112.168C143.363 112.078 143.369 111.925 143.278 111.827L141.956 110.406C141.865 110.308 141.711 110.302 141.613 110.392Z" fill="#E9F4FF"/>
<path d="M147.567 116.58C147.666 116.49 147.672 116.337 147.581 116.239L146.259 114.818C146.168 114.72 146.014 114.714 145.916 114.804C145.818 114.895 145.812 115.048 145.903 115.146L147.224 116.567C147.315 116.665 147.469 116.671 147.567 116.58Z" fill="#E9F4FF"/>
<path d="M141.517 116.504C141.419 116.414 141.413 116.261 141.504 116.163L142.826 114.741C142.917 114.644 143.07 114.638 143.169 114.728C143.267 114.819 143.273 114.972 143.182 115.07L141.86 116.491C141.769 116.589 141.616 116.595 141.517 116.504Z" fill="#E9F4FF"/>
<path d="M148.85 113.524C148.85 113.658 148.741 113.766 148.607 113.766L146.66 113.767C146.526 113.767 146.417 113.658 146.417 113.525C146.417 113.391 146.526 113.283 146.66 113.283L148.606 113.281C148.741 113.281 148.85 113.39 148.85 113.524Z" fill="#E9F4FF"/>
<path d="M140.236 113.447C140.235 113.581 140.344 113.689 140.478 113.689L142.425 113.69C142.559 113.691 142.668 113.582 142.668 113.448C142.668 113.314 142.559 113.206 142.425 113.206L140.479 113.205C140.344 113.205 140.236 113.314 140.236 113.447Z" fill="#E9F4FF"/>
<path d="M61.5753 25.5723C61.7096 25.5723 61.8184 25.6805 61.8184 25.814V27.7497C61.8184 27.8832 61.7096 27.9914 61.5753 27.9914C61.4411 27.9914 61.3323 27.8832 61.3323 27.7497V25.814C61.3323 25.6805 61.4411 25.5723 61.5753 25.5723Z" fill="#E9F4FF"/>
<path d="M61.671 34.0734C61.8049 34.0734 61.9137 33.9652 61.9137 33.8317V31.896C61.9137 31.7625 61.8049 31.6543 61.671 31.6543C61.5368 31.6543 61.428 31.7625 61.428 31.896V33.8317C61.428 33.9652 61.5368 34.0734 61.671 34.0734Z" fill="#E9F4FF"/>
<path d="M64.5523 26.7675C64.6509 26.858 64.6571 27.011 64.5661 27.1091L63.2446 28.5302C63.1532 28.6282 62.9998 28.634 62.9012 28.5435C62.8026 28.453 62.7968 28.3 62.8878 28.202L64.2093 26.7808C64.3003 26.6828 64.4542 26.6766 64.5523 26.7675Z" fill="#E9F4FF"/>
<path d="M58.6937 26.6912C58.5951 26.7817 58.5893 26.9347 58.6803 27.0327L60.0018 28.4538C60.0928 28.5519 60.2467 28.5576 60.3452 28.4672C60.4438 28.3767 60.4496 28.2236 60.3586 28.1256L59.0371 26.7045C58.9461 26.6065 58.7922 26.6007 58.6937 26.6912Z" fill="#E9F4FF"/>
<path d="M64.6483 32.8791C64.7469 32.7886 64.7527 32.636 64.6617 32.538L63.3402 31.1168C63.2492 31.0188 63.0953 31.0126 62.9967 31.1031C62.8986 31.194 62.8924 31.3466 62.9834 31.4446L64.3049 32.8658C64.3963 32.9638 64.5497 32.97 64.6483 32.8791Z" fill="#E9F4FF"/>
<path d="M58.5982 32.8031C58.4996 32.7126 58.4934 32.5596 58.5844 32.4616L59.9064 31.0404C59.9973 30.9424 60.1508 30.9366 60.2493 31.0271C60.3479 31.1176 60.3541 31.2706 60.2627 31.3686L58.9412 32.7898C58.8502 32.8878 58.6963 32.8936 58.5982 32.8031Z" fill="#E9F4FF"/>
<path d="M65.9301 29.822C65.9301 29.9559 65.8213 30.0644 65.6875 30.0644L63.7406 30.0653C63.6068 30.0657 63.498 29.9572 63.4976 29.8234C63.4976 29.6895 63.6064 29.581 63.7406 29.581L65.687 29.5801C65.8213 29.5801 65.9301 29.6886 65.9301 29.822Z" fill="#E9F4FF"/>
<path d="M57.3164 29.7478C57.316 29.8817 57.4248 29.9902 57.559 29.9902L59.5054 29.9911C59.6397 29.9911 59.7485 29.883 59.7485 29.7491C59.7485 29.6153 59.6401 29.5067 59.5059 29.5067L57.5595 29.5059C57.4252 29.5059 57.3164 29.6144 57.3164 29.7478Z" fill="#E9F4FF"/>
<path d="M20.3892 50.1402C19.8602 50.189 19.4717 50.6548 19.5208 51.1808L20.1211 57.6154C20.1702 58.141 20.6385 58.5278 21.1674 58.479L27.6377 57.882C28.1662 57.8332 28.556 57.3675 28.5065 56.8414L27.9062 50.4068C27.8571 49.8808 27.3883 49.4944 26.8594 49.5432L20.3892 50.1402ZM20.9204 50.7071L26.4424 50.1975C26.8937 50.1558 27.2938 50.4858 27.3357 50.9351L27.8482 56.4267C27.8901 56.8756 27.5578 57.2734 27.1065 57.3151L21.5845 57.8248C21.1327 57.8665 20.733 57.536 20.6911 57.0872L20.1786 51.5955C20.1367 51.1462 20.4685 50.7488 20.9204 50.7071Z" fill="#E9F4FF"/>
<path d="M149.798 77.6113C149.424 77.236 148.815 77.2334 148.438 77.6055L143.824 82.1555C143.447 82.5272 143.444 83.1326 143.818 83.5074L148.393 88.0964C148.767 88.4717 149.376 88.4748 149.753 88.1026L154.368 83.5527C154.745 83.181 154.747 82.5751 154.373 82.2003L149.798 77.6113ZM149.695 78.3791L153.6 82.2956C153.919 82.6159 153.917 83.1326 153.595 83.4502L149.657 87.3335C149.335 87.6511 148.815 87.6489 148.496 87.3286L144.591 83.4121C144.272 83.0918 144.274 82.5751 144.596 82.2575L148.534 78.3742C148.856 78.0566 149.376 78.0588 149.695 78.3791Z" fill="#E9F4FF"/>
<path d="M137.679 20.3094C137.292 19.947 136.684 19.9647 136.319 20.3493L131.862 25.0514C131.497 25.436 131.515 26.0405 131.902 26.4029L136.63 30.8358C137.016 31.1981 137.625 31.1808 137.99 30.7967L142.447 26.0946C142.811 25.7101 142.793 25.1051 142.406 24.7427L137.679 20.3094ZM137.602 21.0803L141.637 24.8638C141.967 25.1729 141.983 25.6897 141.671 26.0179L137.867 30.0312C137.556 30.3594 137.036 30.3745 136.706 30.0653L132.671 26.2818C132.341 25.9727 132.326 25.4559 132.637 25.1277L136.441 21.1144C136.752 20.7862 137.272 20.7707 137.602 21.0803Z" fill="#E9F4FF"/>
<path d="M77.251 15.9197C76.8772 15.5445 76.2684 15.5423 75.8915 15.9139L71.2772 20.4639C70.8998 20.836 70.8972 21.441 71.2714 21.8163L75.8465 26.4053C76.2203 26.7805 76.8295 26.7836 77.2068 26.4115L81.8208 21.8615C82.1981 21.4894 82.2003 20.8839 81.8261 20.5087L77.251 15.9197ZM77.1484 16.6875L81.0532 20.6041C81.3725 20.9243 81.3703 21.441 81.0483 21.7586L77.11 25.6419C76.788 25.9595 76.2684 25.9573 75.9491 25.6371L72.0443 21.7205C71.7249 21.4002 71.7272 20.8835 72.0492 20.5659L75.9874 16.6826C76.3095 16.365 76.8291 16.3673 77.1484 16.6875Z" fill="#E9F4FF"/>
<path d="M32.9345 81.5352C31.233 81.5352 29.853 82.9066 29.853 84.5988C29.853 86.2914 31.233 87.6633 32.9345 87.6633C34.636 87.6633 36.0151 86.2914 36.0151 84.5988C36.0151 82.9066 34.636 81.5352 32.9345 81.5352ZM32.9345 82.9479C33.8515 82.9479 34.5945 83.6868 34.5945 84.5988C34.5945 85.5107 33.8515 86.2501 32.9345 86.2501C32.0175 86.2501 31.274 85.5107 31.274 84.5988C31.274 83.6868 32.0175 82.9479 32.9345 82.9479Z" fill="#E9F4FF"/>
<path d="M137.155 63.0703C135.453 63.0703 134.074 64.4413 134.074 66.1339C134.074 67.8261 135.453 69.1984 137.155 69.1984C138.857 69.1984 140.236 67.8261 140.236 66.1339C140.236 64.4413 138.857 63.0703 137.155 63.0703ZM137.155 64.4826C138.072 64.4826 138.815 65.2215 138.815 66.1339C138.815 67.0459 138.072 67.7848 137.155 67.7848C136.238 67.7848 135.495 67.0459 135.495 66.1339C135.495 65.222 136.238 64.4826 137.155 64.4826Z" fill="#E9F4FF"/>
<path d="M141.462 46.4746C139.76 46.4746 138.38 47.8456 138.38 49.5382C138.38 51.2304 139.76 52.6027 141.462 52.6027C143.163 52.6027 144.542 51.2304 144.542 49.5382C144.542 47.8456 143.163 46.4746 141.462 46.4746ZM141.462 47.8869C142.379 47.8869 143.122 48.6263 143.122 49.5382C143.122 50.4502 142.379 51.1891 141.462 51.1891C140.545 51.1891 139.802 50.4502 139.802 49.5382C139.802 48.6263 140.545 47.8869 141.462 47.8869Z" fill="#E9F4FF"/>
<path d="M86.8537 10.7148C85.1522 10.7148 83.7722 12.0863 83.7722 13.7785C83.7722 15.4706 85.1522 16.843 86.8537 16.843C88.5552 16.843 89.9342 15.4706 89.9342 13.7785C89.9342 12.0863 88.5552 10.7148 86.8537 10.7148ZM86.8537 12.1271C87.7707 12.1271 88.5142 12.8665 88.5142 13.7785C88.5142 14.6904 87.7707 15.4298 86.8537 15.4298C85.9367 15.4298 85.1932 14.6904 85.1932 13.7785C85.1932 12.8665 85.9367 12.1271 86.8537 12.1271Z" fill="#E9F4FF"/>
<path d="M155.697 7.07244C155.697 3.16652 152.512 0 148.585 0C144.657 0 141.473 3.16652 141.473 7.07244C141.473 10.9784 144.657 14.1449 148.585 14.1449C152.512 14.1453 155.697 10.9788 155.697 7.07244Z" fill="#F2EAB3"/>
<path d="M48.5246 21.9844C46.9043 21.9844 45.5194 23.5013 44.9552 25.6459C44.9075 25.6423 44.8602 25.6401 44.812 25.6401C44.0735 25.6401 43.4009 26.0619 42.892 26.7534C42.5388 26.6634 42.1659 26.612 41.7779 26.612C40.1575 26.612 38.7727 27.4556 38.2085 28.6483C38.1608 28.6465 38.1135 28.6452 38.0653 28.6452C36.9066 28.6452 35.9089 29.2214 35.4535 30.0513C35.2755 30.0096 35.0887 29.9852 34.8951 29.9852C34.2274 29.9852 33.6347 30.2504 33.2533 30.6607H32.8109C32.8109 30.6607 32.2645 30.556 31.4747 31.0555C30.6843 31.5545 31.1005 32.0228 29.6505 32.6576C27.416 33.6352 24.8015 34.0388 24.8015 34.0388L51.3358 33.0652L51.388 23.9258C50.6851 22.7366 49.6633 21.9844 48.5246 21.9844Z" fill="#E9F4FF"/>
<path d="M48.6741 21.9844C50.2945 21.9844 51.6793 23.5013 52.2435 25.6459C52.2912 25.6423 52.3385 25.6401 52.3867 25.6401C53.1253 25.6401 53.7978 26.0619 54.3067 26.7534C54.66 26.6634 55.0328 26.612 55.4209 26.612C57.0412 26.612 58.4261 27.4556 58.9903 28.6483C59.038 28.6465 59.0853 28.6452 59.1334 28.6452C60.2921 28.6452 61.2899 29.2214 61.7452 30.0513C61.9232 30.0096 62.1101 29.9852 62.3032 29.9852C62.9713 29.9852 63.5641 30.2504 63.9454 30.6607H64.626C65.2013 30.6607 65.696 31.2502 65.696 31.7336C65.696 31.7656 65.6937 31.7962 65.6897 31.8272C65.6888 31.8343 65.6866 31.8414 65.6857 31.8485C65.6786 31.8938 65.6674 31.9386 65.6527 31.9812C65.6518 31.9834 65.6518 31.9851 65.6509 31.9869C65.6456 32.002 65.6389 32.0166 65.6326 32.0313C65.6273 32.0437 65.6228 32.0557 65.6166 32.0676C65.6108 32.0801 65.6036 32.092 65.597 32.104C65.5898 32.1164 65.5836 32.1293 65.576 32.1413C65.5675 32.1546 65.5577 32.1679 65.5488 32.1807C65.5417 32.1905 65.5345 32.2012 65.5269 32.2109C65.5162 32.2251 65.5042 32.2389 65.4926 32.2522C65.4855 32.2601 65.4788 32.2681 65.4716 32.2757C65.46 32.2881 65.4475 32.2992 65.4351 32.3112C65.4252 32.3205 65.4154 32.3298 65.4052 32.3387C65.3945 32.348 65.3838 32.3582 65.3726 32.367C65.3597 32.3772 65.3463 32.387 65.3329 32.3968C65.3218 32.4047 65.3106 32.4123 65.299 32.4203C65.2856 32.4291 65.2718 32.4376 65.258 32.4455C65.2451 32.4535 65.2317 32.462 65.2183 32.4691C65.2049 32.4766 65.1915 32.4833 65.1777 32.4899C65.1639 32.4966 65.1496 32.5032 65.1353 32.5094C65.1211 32.5156 65.1068 32.5214 65.0921 32.5272C65.076 32.5334 65.06 32.5391 65.0439 32.5449C65.0305 32.5493 65.0176 32.5538 65.0042 32.5578C64.9873 32.5626 64.9699 32.568 64.9525 32.5724C64.9369 32.5764 64.9213 32.5791 64.9056 32.5822C64.8891 32.5857 64.8722 32.5901 64.8552 32.5928C64.8365 32.5959 64.8178 32.5977 64.7986 32.5999C64.7848 32.6017 64.7714 32.6035 64.7571 32.6048C64.7232 32.6074 64.6889 32.6097 64.6541 32.6097L45.7563 33.2701L45.8108 23.9258C46.5137 22.7366 47.535 21.9844 48.6741 21.9844Z" fill="#E9F4FF"/>
<path d="M112.625 29.2207C115.771 29.2207 118.51 30.3314 119.942 31.9725C121.703 32.1615 123.214 32.8197 124.153 33.7401C124.379 33.7179 124.609 33.7028 124.844 33.7028C126.997 33.7028 128.797 34.6618 129.267 35.9476H129.91C131.166 35.9476 132.184 36.5992 132.184 37.4025C132.184 37.4552 132.179 37.5067 132.17 37.5582V37.5586C132.168 37.5706 132.163 37.5825 132.161 37.5945C132.146 37.6695 132.122 37.7431 132.09 37.8136C132.089 37.8172 132.088 37.8212 132.086 37.8247C132.071 37.8576 132.052 37.8895 132.033 37.9214C132.027 37.9321 132.021 37.9432 132.015 37.9538C131.995 37.9844 131.972 38.0141 131.949 38.0434C131.941 38.054 131.934 38.0651 131.925 38.0753C131.904 38.1006 131.882 38.1255 131.859 38.1498C131.845 38.1649 131.831 38.1805 131.816 38.1951C131.792 38.2186 131.766 38.2412 131.74 38.2638C131.725 38.2767 131.71 38.29 131.694 38.3029C131.669 38.3233 131.642 38.3432 131.615 38.3628C131.594 38.3778 131.573 38.3929 131.552 38.4076C131.525 38.4249 131.499 38.4422 131.471 38.4586C131.448 38.4728 131.424 38.4865 131.4 38.4998C131.37 38.5162 131.341 38.5322 131.31 38.5477C131.285 38.5601 131.26 38.5717 131.235 38.5836C131.204 38.5978 131.173 38.6116 131.14 38.6249C131.113 38.6364 131.085 38.6471 131.056 38.6577C131.024 38.6697 130.992 38.6821 130.958 38.6932C130.929 38.7025 130.899 38.7114 130.869 38.7203C130.833 38.7313 130.797 38.742 130.76 38.7517C130.734 38.7584 130.707 38.7642 130.681 38.7704C130.64 38.7797 130.6 38.7886 130.558 38.7965C130.529 38.8023 130.5 38.8068 130.47 38.8112C130.43 38.8178 130.39 38.8249 130.348 38.8298C130.313 38.8343 130.276 38.8374 130.24 38.8405C130.205 38.844 130.171 38.848 130.135 38.8507C130.061 38.8551 129.987 38.8573 129.91 38.8573H92.5465C92.4702 38.8573 92.3953 38.8547 92.3208 38.8498C92.2905 38.848 92.261 38.8445 92.2307 38.8418C92.1892 38.8378 92.1478 38.8351 92.1072 38.8298C92.0697 38.8254 92.0336 38.8187 91.997 38.813C91.9631 38.8072 91.9288 38.8028 91.8953 38.7961C91.857 38.789 91.8195 38.7801 91.7825 38.7717C91.7535 38.7651 91.7245 38.7584 91.696 38.7513C91.6603 38.742 91.6259 38.7318 91.5911 38.7211C91.559 38.7118 91.5269 38.7025 91.4957 38.6919C91.4645 38.6817 91.4346 38.6701 91.4043 38.6586C91.3744 38.6475 91.3445 38.6364 91.3155 38.6245C91.2861 38.6125 91.2571 38.5996 91.2285 38.5863C91.1982 38.5726 91.1688 38.5584 91.1398 38.5437C91.1144 38.5309 91.0894 38.518 91.0649 38.5042C91.0359 38.4883 91.0073 38.4719 90.9792 38.455C90.9547 38.4399 90.9311 38.424 90.9074 38.4084C90.8851 38.3934 90.8637 38.3783 90.8427 38.3628C90.8155 38.3432 90.7888 38.3233 90.7629 38.3029C90.7473 38.29 90.7326 38.2767 90.7174 38.2638C90.6915 38.2412 90.6657 38.2186 90.6416 38.1951C90.6251 38.1787 90.6099 38.1618 90.5943 38.145C90.5742 38.1237 90.5537 38.1024 90.5354 38.0802C90.5189 38.0603 90.5047 38.0394 90.4895 38.0186C90.4748 37.9986 90.4592 37.9791 90.4462 37.9587C90.4333 37.9387 90.4231 37.9183 90.4115 37.8979C90.3976 37.8735 90.3829 37.8496 90.3713 37.8247C90.3695 37.8212 90.3691 37.8172 90.3673 37.8136C90.3347 37.7431 90.312 37.6695 90.2964 37.5945C90.2937 37.5825 90.2892 37.5706 90.287 37.5582C90.2785 37.5067 90.2732 37.4552 90.2732 37.4025C90.2732 36.5992 91.291 35.9476 92.5465 35.9476H94.0308C94.863 35.2659 96.1556 34.8254 97.6127 34.8254C98.0346 34.8254 98.4418 34.8649 98.8294 34.9337C99.8231 33.5555 102 32.5984 104.527 32.5984C104.632 32.5984 104.735 32.6006 104.839 32.6037C106.07 30.6219 109.091 29.2207 112.625 29.2207Z" fill="white"/>
<path d="M155.829 7.07227C158.48 7.07227 160.789 8.00816 161.996 9.39116C163.481 9.55039 164.754 10.1053 165.545 10.881C165.736 10.8624 165.929 10.8496 166.128 10.8496C167.942 10.8496 169.459 11.6577 169.855 12.7417H170.398C171.456 12.7417 172.314 13.2904 172.314 13.9677C172.314 14.0121 172.31 14.0555 172.303 14.0986V14.099C172.301 14.1092 172.297 14.1194 172.295 14.1296C172.282 14.1926 172.262 14.2547 172.235 14.3141C172.233 14.3172 172.233 14.3204 172.232 14.323C172.218 14.351 172.203 14.3776 172.187 14.4046C172.181 14.4135 172.177 14.4228 172.171 14.4317C172.154 14.4574 172.135 14.4827 172.116 14.5075C172.109 14.5164 172.103 14.5257 172.096 14.5341C172.078 14.5554 172.06 14.5763 172.04 14.5967C172.028 14.6095 172.016 14.6224 172.004 14.6348C171.984 14.6543 171.962 14.6734 171.94 14.6925C171.927 14.7036 171.915 14.7147 171.901 14.7253C171.88 14.7426 171.857 14.7595 171.834 14.7759C171.817 14.7887 171.799 14.8012 171.781 14.8131C171.759 14.8278 171.737 14.8424 171.713 14.8566C171.694 14.8686 171.674 14.8801 171.653 14.8912C171.628 14.905 171.603 14.9187 171.577 14.9316C171.557 14.9418 171.535 14.952 171.514 14.9617C171.488 14.9737 171.461 14.9857 171.434 14.9968C171.411 15.0065 171.387 15.0154 171.364 15.0243C171.337 15.0345 171.309 15.0447 171.281 15.054C171.257 15.062 171.231 15.0695 171.206 15.0771C171.176 15.0859 171.145 15.0952 171.114 15.1032C171.092 15.109 171.069 15.1139 171.047 15.1187C171.013 15.1267 170.979 15.1343 170.944 15.1409C170.92 15.1454 170.895 15.1493 170.87 15.1533C170.835 15.1591 170.801 15.1649 170.767 15.1689C170.737 15.1724 170.706 15.1751 170.676 15.1782C170.646 15.1808 170.617 15.1844 170.587 15.1866C170.524 15.1906 170.461 15.1924 170.398 15.1924H138.906C138.841 15.1924 138.778 15.1902 138.716 15.1862C138.69 15.1844 138.665 15.1813 138.64 15.1791C138.605 15.176 138.57 15.1733 138.535 15.1693C138.504 15.1653 138.473 15.16 138.443 15.1551C138.414 15.1507 138.385 15.1467 138.357 15.1409C138.325 15.1347 138.293 15.1276 138.262 15.1205C138.237 15.1148 138.213 15.1094 138.189 15.1032C138.159 15.0957 138.13 15.0868 138.101 15.0779C138.074 15.07 138.047 15.062 138.02 15.0531C137.994 15.0442 137.969 15.0345 137.943 15.0252C137.918 15.0158 137.893 15.0065 137.868 14.9963C137.843 14.9861 137.819 14.975 137.795 14.9639C137.77 14.9524 137.745 14.9404 137.72 14.928C137.699 14.9169 137.678 14.9058 137.657 14.8947C137.633 14.8814 137.608 14.8672 137.585 14.8531C137.564 14.8402 137.544 14.8273 137.524 14.814C137.506 14.8016 137.488 14.7887 137.469 14.7759C137.447 14.759 137.424 14.7426 137.403 14.7253C137.389 14.7147 137.377 14.7036 137.364 14.6925C137.342 14.6734 137.32 14.6543 137.3 14.6348C137.286 14.6211 137.274 14.6064 137.26 14.5922C137.244 14.5741 137.226 14.5563 137.211 14.5377C137.197 14.5208 137.185 14.5031 137.172 14.4858C137.16 14.4689 137.147 14.4525 137.135 14.4352C137.125 14.4184 137.116 14.4011 137.106 14.3842C137.095 14.3638 137.082 14.3434 137.073 14.3226C137.071 14.3195 137.07 14.3164 137.069 14.3137C137.042 14.2538 137.022 14.1922 137.009 14.1292C137.007 14.119 137.003 14.1088 137.002 14.0981C136.994 14.0551 136.99 14.0112 136.99 13.9673C136.99 13.29 137.848 12.7413 138.906 12.7413H140.157C140.858 12.1665 141.948 11.7957 143.176 11.7957C143.531 11.7957 143.875 11.8289 144.201 11.8866C145.039 10.7249 146.874 9.9181 149.003 9.9181C149.092 9.9181 149.179 9.91987 149.267 9.92253C150.304 8.25345 152.85 7.07227 155.829 7.07227Z" fill="#E9F4FF"/>
<path d="M65.2825 75.5879C67.092 75.5879 68.6668 76.7442 69.4906 78.4532C70.5035 78.6502 71.3723 79.3355 71.912 80.2935C72.0422 80.2705 72.1742 80.2549 72.3098 80.2549C73.5475 80.2549 74.5827 81.2534 74.8534 82.5925H75.2231C75.9452 82.5925 76.5308 83.2707 76.5308 84.1072C76.5308 84.1622 76.5277 84.2159 76.5228 84.2691C76.5228 84.2695 76.5228 84.2695 76.5228 84.2695C76.5214 84.2824 76.5188 84.2948 76.5174 84.3072C76.5085 84.3853 76.4956 84.4616 76.4768 84.5357C76.4759 84.5392 76.4755 84.5432 76.4746 84.5468C76.4657 84.5809 76.4545 84.6142 76.4438 84.6474C76.4403 84.6585 76.4371 84.6701 76.4331 84.6812C76.422 84.7131 76.409 84.7437 76.3957 84.7747C76.3912 84.7858 76.3867 84.7969 76.3818 84.808C76.3698 84.8342 76.3573 84.8599 76.3439 84.8852C76.3359 84.9012 76.3279 84.9171 76.319 84.9326C76.3051 84.957 76.2904 84.9805 76.2752 85.0041C76.2668 85.0174 76.2583 85.0311 76.2489 85.0444C76.2342 85.0662 76.219 85.0866 76.2034 85.1074C76.1914 85.1229 76.1794 85.1385 76.1669 85.1535C76.1517 85.1717 76.1365 85.1895 76.1209 85.2072C76.1075 85.2218 76.0937 85.236 76.0799 85.2498C76.063 85.2671 76.046 85.2835 76.0282 85.2999C76.0139 85.3123 75.9996 85.3247 75.9849 85.3367C75.9671 85.3518 75.9492 85.3664 75.9305 85.3802C75.9149 85.3922 75.8984 85.4032 75.8823 85.4143C75.8636 85.4268 75.8453 85.4392 75.8261 85.4507C75.8092 85.4609 75.7918 85.4702 75.7744 85.4795C75.7539 85.4906 75.7329 85.5022 75.7119 85.5119C75.6968 85.519 75.6812 85.5248 75.666 85.5314C75.6428 85.5412 75.6196 85.5505 75.5955 85.5589C75.579 85.5647 75.5621 85.5691 75.5451 85.574C75.5219 85.5811 75.4987 85.5882 75.4751 85.5935C75.4546 85.598 75.4336 85.6011 75.4131 85.6046C75.3926 85.6082 75.373 85.6126 75.3525 85.6148C75.3096 85.6197 75.2668 85.6219 75.2231 85.6219C75.2231 85.6219 52.9544 85.3225 52.9411 85.2981C52.9313 85.2813 45.259 85.645 45.2488 85.6219C45.2421 85.6077 48.5769 85.0271 50.6985 84.27C52.8202 83.5124 51.6918 83.5102 52.2984 83.1651C52.9049 82.8196 54.0347 82.5925 54.0347 82.5925H54.5891C55.0676 81.8823 55.8111 81.4241 56.6487 81.4241C56.8918 81.4241 57.1259 81.465 57.3489 81.5364C57.9203 80.1015 59.1718 79.1048 60.6253 79.1048C60.6855 79.1048 60.7453 79.107 60.8051 79.1106C61.5129 77.0472 63.2501 75.5879 65.2825 75.5879Z" fill="white"/>
<path d="M17.3399 75.0312C15.7878 75.0312 14.4368 75.7201 13.7304 76.7385C12.8616 76.8556 12.1158 77.2641 11.6533 77.8354C11.5418 77.8216 11.4285 77.8123 11.3121 77.8123C10.2502 77.8123 9.36218 78.4071 9.13026 79.2051H8.8127C8.54733 79.2051 8.18695 79.8292 6.05906 80.2802C3.9316 80.7318 0.302002 80.7256 0.302002 81.0103C0.302002 81.0427 27.2453 81.0103 27.2453 81.0103C27.2827 81.0103 27.3197 81.0086 27.3563 81.0059C27.3715 81.0046 27.3862 81.0024 27.4009 81.0006C27.4214 80.9984 27.442 80.9966 27.462 80.9935C27.4803 80.9904 27.4982 80.9864 27.5164 80.9828C27.5329 80.9793 27.5499 80.9762 27.5664 80.9722C27.5851 80.9678 27.6039 80.9624 27.6221 80.9571C27.6364 80.9531 27.6507 80.9491 27.665 80.9442C27.6824 80.9389 27.6993 80.9323 27.7162 80.9261C27.7323 80.9198 27.7484 80.9141 27.7635 80.9079C27.7791 80.9012 27.7939 80.8941 27.8086 80.887C27.8233 80.8804 27.838 80.8733 27.8527 80.8657C27.867 80.8582 27.8813 80.8502 27.8955 80.8422C27.9103 80.8338 27.925 80.8249 27.9393 80.8156C27.9517 80.8076 27.9642 80.7996 27.9763 80.7912C27.9905 80.7815 28.0048 80.7713 28.0182 80.7606C28.0307 80.7513 28.0423 80.7415 28.0539 80.7318C28.0646 80.7225 28.0753 80.7132 28.086 80.7034C28.0994 80.6914 28.1123 80.679 28.1248 80.6661C28.1328 80.6582 28.14 80.6502 28.1475 80.6422C28.1605 80.628 28.173 80.6142 28.185 80.5996C28.193 80.5894 28.2006 80.5788 28.2082 80.5681C28.218 80.5548 28.2283 80.5419 28.2372 80.5282C28.2457 80.5158 28.2523 80.5029 28.2599 80.49C28.2671 80.4776 28.2751 80.4652 28.2813 80.4528C28.2876 80.4404 28.2929 80.4275 28.2983 80.4151C28.3054 80.4 28.3126 80.3849 28.3184 80.3694C28.3193 80.3672 28.3192 80.365 28.3201 80.3627C28.3362 80.3188 28.3478 80.2736 28.3554 80.227C28.3567 80.2195 28.3589 80.2119 28.3598 80.204C28.3638 80.1725 28.3665 80.1405 28.3665 80.1077C28.3665 79.6092 27.8648 79.2051 27.2453 79.2051H26.5129C26.1026 78.7819 25.4648 78.5087 24.7458 78.5087C24.538 78.5087 24.3369 78.5331 24.1455 78.5757C23.6558 77.7205 22.5818 77.127 21.3352 77.127C21.2835 77.127 21.2322 77.1279 21.1809 77.1301C20.5739 75.9006 19.0833 75.0312 17.3399 75.0312Z" fill="#E9F4FF"/>
<path d="M25.9031 71.3457C24.3514 71.3457 23 72.459 22.2936 74.105C21.4247 74.2944 20.6795 74.9544 20.2165 75.8775C20.105 75.8553 19.9917 75.8402 19.8753 75.8402C18.8134 75.8402 17.9258 76.8018 17.6935 78.0917H17.3763C16.7568 78.0917 16.2546 78.7446 16.2546 79.5505C16.2546 79.6033 16.2573 79.6552 16.2613 79.7062C16.2613 79.7067 16.2613 79.7067 16.2613 79.7071C16.2622 79.7191 16.2645 79.7311 16.2658 79.743C16.2734 79.8184 16.285 79.8916 16.301 79.963C16.3015 79.9666 16.3019 79.9701 16.3028 79.9737C16.3104 80.0069 16.3198 80.0389 16.3291 80.0708C16.3322 80.0815 16.3349 80.0925 16.338 80.1032C16.3479 80.1338 16.359 80.1635 16.3702 80.1932C16.3742 80.2039 16.3782 80.2145 16.3822 80.2252C16.3925 80.2505 16.4036 80.2753 16.4148 80.2997C16.4219 80.3152 16.4286 80.3303 16.4362 80.3454C16.4478 80.3689 16.4607 80.3915 16.4736 80.4141C16.4808 80.4274 16.4883 80.4403 16.4959 80.4532C16.5089 80.474 16.5218 80.494 16.5352 80.5135C16.5454 80.5286 16.5557 80.5436 16.5664 80.5583C16.5793 80.5756 16.5927 80.5929 16.6061 80.6097C16.6177 80.6239 16.6293 80.6372 16.6413 80.651C16.6556 80.6674 16.6703 80.6834 16.6855 80.6989C16.698 80.7113 16.71 80.7228 16.7225 80.7348C16.7381 80.749 16.7533 80.7632 16.7693 80.7765C16.7832 80.7876 16.797 80.7987 16.8108 80.8093C16.8269 80.8213 16.8425 80.8333 16.859 80.8444C16.8737 80.8541 16.8884 80.863 16.9031 80.8719C16.921 80.883 16.9388 80.8936 16.9571 80.9034C16.97 80.91 16.983 80.9158 16.9963 80.922C17.0164 80.9313 17.036 80.9406 17.0566 80.9486C17.0708 80.9539 17.0855 80.9584 17.0998 80.9632C17.1199 80.9699 17.14 80.9765 17.16 80.9819C17.1779 80.9863 17.1957 80.9894 17.2136 80.9925C17.2305 80.9961 17.2479 81.0001 17.2653 81.0023C17.3019 81.0072 17.3389 81.0094 17.3763 81.0094H35.8089C35.8464 81.0094 35.8834 81.0067 35.92 81.0018C35.9351 81.0001 35.9494 80.9965 35.9646 80.9938C35.9846 80.9899 36.0052 80.9872 36.0252 80.9819C36.044 80.977 36.0618 80.9703 36.0796 80.9646C36.0966 80.9592 36.1135 80.9544 36.1296 80.9482C36.1488 80.9406 36.1671 80.9322 36.1858 80.9233C36.2001 80.9167 36.2143 80.9105 36.2282 80.9029C36.2456 80.8936 36.2629 80.8834 36.2799 80.8732C36.2955 80.8634 36.3116 80.8541 36.3267 80.8435C36.3423 80.8333 36.3571 80.8217 36.3722 80.8102C36.3869 80.7991 36.4017 80.788 36.4159 80.7761C36.4306 80.7636 36.4449 80.7508 36.4587 80.7375C36.4739 80.7237 36.4882 80.7095 36.5024 80.6949C36.5149 80.682 36.5274 80.6687 36.5395 80.6554C36.5537 80.639 36.568 80.6226 36.5818 80.6057C36.5939 80.5907 36.6055 80.5751 36.6171 80.5592C36.6282 80.5441 36.6389 80.529 36.6492 80.5135C36.6626 80.494 36.6759 80.474 36.6884 80.4532C36.696 80.4403 36.7036 80.4274 36.7112 80.4141C36.7237 80.3915 36.7366 80.3689 36.7482 80.3454C36.7567 80.329 36.7638 80.3117 36.7718 80.2948C36.7816 80.2735 36.7919 80.2522 36.8008 80.23C36.8089 80.2101 36.816 80.1892 36.8231 80.1684C36.8307 80.1484 36.8383 80.1285 36.845 80.1081C36.8512 80.0881 36.8561 80.0677 36.8619 80.0473C36.8686 80.0229 36.8758 79.9985 36.8816 79.9737C36.8824 79.9701 36.8829 79.9666 36.8838 79.963C36.8998 79.8916 36.911 79.8184 36.9186 79.743C36.9199 79.7311 36.9221 79.7186 36.923 79.7062C36.9275 79.6552 36.9302 79.6033 36.9302 79.5505C36.9302 78.7446 36.428 78.0917 35.8089 78.0917H35.0766C34.6658 77.4077 34.028 76.9664 33.3095 76.9664C33.1012 76.9664 32.9005 77.0054 32.7092 77.0746C32.219 75.6925 31.145 74.7327 29.8984 74.7327C29.8467 74.7327 29.7954 74.7349 29.7441 74.738C29.1371 72.7509 27.647 71.3457 25.9031 71.3457Z" fill="#E9F4FF"/>
<path d="M0 146.228C0 145.25 41.4139 144.457 92.5 144.457C143.586 144.457 185 145.25 185 146.228C185 147.207 143.586 148 92.5 148C41.4139 148 0 147.207 0 146.228Z" fill="#C9D3DD"/>
<path d="M151.352 100.883C151.352 100.883 155.339 109.285 155.453 119.021C155.456 119.34 155.452 119.661 155.447 119.982C155.445 120.155 155.44 120.328 155.435 120.502C155.388 122.065 155.238 123.651 154.944 125.235C154.799 126.018 154.619 126.8 154.402 127.578C154.275 128.034 154.136 128.49 153.982 128.944C153.377 130.725 152.587 132.379 151.679 133.911C151.679 133.911 151.679 133.913 151.679 133.913C150.681 135.597 149.538 137.13 148.327 138.516C147.686 139.251 147.026 139.942 146.359 140.593C146.359 140.593 146.359 140.594 146.359 140.594C145.75 141.188 145.137 141.752 144.527 142.277C144.526 142.277 144.526 142.278 144.526 142.278C143.827 142.881 143.134 143.434 142.458 143.946C141.275 144.843 140.149 145.605 139.151 146.229H136.228C136.279 146.091 136.313 146.005 136.39 145.809C136.391 145.807 136.391 145.804 136.392 145.802C136.392 145.802 136.392 145.802 136.392 145.801C136.394 145.797 136.396 145.792 136.398 145.787C136.475 145.592 136.562 145.373 136.661 145.134C136.776 144.855 136.902 144.556 137.049 144.224C136.768 144.857 136.543 145.405 136.381 145.821C136.32 145.981 136.269 146.109 136.225 146.229H134.305C132.555 141.634 129.133 130.463 132.572 120.343C137.032 107.22 151.352 100.883 151.352 100.883Z" fill="#ED9843"/>
<path d="M150.079 104.852C149.081 107.724 148.28 110.67 147.552 113.635C147.116 115.414 146.702 117.198 146.296 118.986C146.046 120.091 145.797 121.196 145.546 122.301C144.529 126.79 143.478 131.271 142.151 135.663C142.148 135.667 142.145 135.67 142.142 135.674C142.141 135.683 142.14 135.692 142.139 135.701C142.097 135.839 142.058 135.98 142.016 136.118C141.897 136.506 141.774 136.892 141.651 137.277C141.65 137.278 141.651 137.278 141.651 137.278C141.471 137.838 141.287 138.397 141.097 138.952C140.849 139.679 140.593 140.401 140.314 141.114C140.146 141.545 139.966 141.972 139.786 142.398C139.679 142.648 139.573 142.898 139.467 143.148C139.364 143.394 139.257 143.637 139.15 143.881C138.975 144.283 138.797 144.684 138.609 145.08C138.577 145.149 138.542 145.216 138.508 145.284C138.508 145.285 138.508 145.285 138.508 145.285C138.507 145.285 138.508 145.286 138.508 145.286C138.411 145.487 138.312 145.687 138.211 145.886C138.153 146 138.097 146.115 138.038 146.228H136.228C136.279 146.09 136.313 146.005 136.39 145.808C136.391 145.806 136.391 145.803 136.392 145.802C136.392 145.801 136.392 145.801 136.392 145.801C136.669 145.313 136.94 144.822 137.202 144.325C137.267 144.2 137.332 144.074 137.397 143.949C137.607 143.548 137.812 143.145 138.011 142.738C138.059 142.641 138.108 142.546 138.155 142.45C138.452 141.827 138.726 141.193 138.995 140.554C139.092 140.322 139.19 140.088 139.288 139.855C139.425 139.528 139.564 139.202 139.699 138.875C140.173 137.72 140.612 136.55 141.029 135.371C141.571 133.839 142.072 132.288 142.548 130.73C142.56 130.688 142.572 130.647 142.584 130.606C143.314 128.209 143.98 125.789 144.628 123.364C145.109 121.561 145.581 119.754 146.059 117.95C147.231 113.527 148.439 109.101 150.079 104.852Z" fill="#A0662C"/>
<path d="M136.381 145.82C136.32 145.98 136.269 146.109 136.225 146.229H136.15C136.229 146.094 136.304 145.956 136.381 145.82Z" fill="#A0662C"/>
<path d="M159.037 127.133C166.198 127.175 172.314 130.258 172.314 130.258C172.314 130.258 168.884 140.65 161.197 146.227H136.228C136.279 146.089 136.313 146.004 136.39 145.807C136.391 145.805 136.391 145.802 136.392 145.801C136.392 145.8 136.392 145.8 136.392 145.8C136.394 145.795 136.396 145.79 136.398 145.785C136.474 145.59 136.562 145.371 136.661 145.132C136.775 144.854 136.902 144.554 137.049 144.222C137.053 144.212 137.057 144.202 137.062 144.192C137.062 144.192 137.062 144.191 137.062 144.191C137.285 143.687 137.541 143.136 137.84 142.532C138.251 141.703 138.729 140.802 139.288 139.854C139.922 138.777 140.649 137.652 141.48 136.533C141.693 136.246 141.915 135.959 142.142 135.673C142.141 135.682 142.14 135.691 142.139 135.7C142.143 135.687 142.147 135.675 142.151 135.662C142.754 134.904 143.405 134.159 144.103 133.442C145.899 131.602 148.009 129.962 150.456 128.848C151.751 128.259 153.076 127.849 154.402 127.576C155.962 127.255 157.523 127.124 159.037 127.133Z" fill="#FF7051"/>
<path d="M168.298 131.635C165.137 133.271 161.821 134.511 158.51 135.731C156.548 136.455 154.585 137.172 152.632 137.925C151.875 138.217 151.12 138.515 150.369 138.823C149.018 139.375 147.679 139.959 146.359 140.592C146.359 140.593 146.358 140.593 146.358 140.593C145.354 141.075 144.36 141.582 143.384 142.13C143.266 142.196 143.148 142.263 143.029 142.329C143.028 142.33 143.025 142.331 143.024 142.332H143.023C142.472 142.64 141.922 142.947 141.384 143.279C141.091 143.46 140.803 143.655 140.516 143.848C140.295 143.997 140.076 144.148 139.858 144.301C139.847 144.308 139.836 144.316 139.825 144.324C139.801 144.341 139.778 144.357 139.754 144.374C139.587 144.491 139.42 144.61 139.254 144.729C139.003 144.911 138.754 145.096 138.508 145.286C138.507 145.286 138.508 145.286 138.508 145.286C138.113 145.59 137.726 145.905 137.345 146.229H136.228C136.279 146.09 136.313 146.005 136.39 145.808C136.391 145.806 136.391 145.804 136.392 145.802C136.392 145.801 136.392 145.801 136.392 145.801C136.394 145.796 136.396 145.792 136.398 145.787C136.474 145.592 136.562 145.372 136.661 145.133C136.775 144.855 136.902 144.555 137.049 144.223C137.053 144.213 137.057 144.203 137.062 144.193C137.173 144.111 137.285 144.031 137.397 143.949C137.744 143.696 138.095 143.448 138.452 143.215C138.462 143.208 138.472 143.201 138.482 143.195C138.91 142.916 139.345 142.652 139.786 142.398C139.838 142.367 139.89 142.335 139.943 142.305C140.161 142.182 140.381 142.063 140.599 141.941C140.753 141.856 140.907 141.773 141.062 141.689C141.097 141.669 141.133 141.649 141.168 141.63C141.199 141.613 141.23 141.596 141.261 141.58C141.578 141.408 141.893 141.231 142.215 141.07C142.52 140.918 142.828 140.772 143.136 140.63C143.245 140.579 143.355 140.532 143.464 140.482C143.464 140.482 143.464 140.482 143.464 140.481C143.67 140.389 143.875 140.295 144.082 140.204C144.715 139.927 145.353 139.66 145.994 139.404C146.767 139.094 147.546 138.801 148.327 138.516C149.192 138.199 150.062 137.896 150.934 137.601C153.096 136.872 155.275 136.198 157.452 135.523C158.953 135.058 160.454 134.586 161.945 134.087C164.094 133.367 166.225 132.585 168.298 131.635Z" fill="#BE523A"/>
<path d="M166.122 101.178C166.576 103.419 166.916 105.705 166.933 108.004C166.942 109.214 166.86 110.436 166.619 111.62C166.543 111.988 166.452 112.354 166.343 112.714C166.338 112.73 166.334 112.746 166.329 112.762C166.099 113.51 165.787 114.231 165.389 114.891C165.143 115.299 164.866 115.682 164.559 116.036C162.709 118.166 160.012 119.016 157.451 119.584C157.022 119.68 156.588 119.765 156.156 119.849C155.92 119.895 155.684 119.937 155.447 119.981C155.123 120.041 154.799 120.101 154.474 120.161C154.474 120.161 154.474 120.161 154.474 120.161C154.43 120.169 154.386 120.178 154.342 120.186C153.61 120.321 152.879 120.46 152.153 120.625C151.802 120.705 151.451 120.788 151.103 120.882C150.591 121.02 150.073 121.182 149.562 121.375C148.23 121.877 146.957 122.601 146.036 123.77C145.828 124.034 145.64 124.316 145.475 124.613C145.087 125.314 144.861 126.112 144.696 126.906C144.429 128.198 144.328 129.523 144.251 130.841C144.224 131.307 144.201 131.774 144.174 132.239C144.151 132.64 144.127 133.041 144.103 133.443C144.092 133.63 144.079 133.817 144.07 134.005C144.032 134.744 143.999 135.483 143.954 136.222C143.918 136.814 143.874 137.408 143.815 137.997C143.814 138.009 143.813 138.021 143.812 138.033C143.762 138.525 143.704 139.014 143.63 139.502C143.581 139.828 143.526 140.155 143.464 140.481C143.347 141.103 143.205 141.722 143.029 142.328C143.028 142.329 143.025 142.33 143.024 142.331C143.024 142.331 143.028 142.332 143.029 142.332C142.869 142.884 142.68 143.423 142.458 143.945C142.11 144.764 141.678 145.536 141.132 146.228H137.578C137.796 146.128 138.007 146.014 138.211 145.885C138.28 145.842 138.349 145.798 138.415 145.751C138.652 145.587 138.875 145.4 139.084 145.197C139.34 144.949 139.571 144.679 139.778 144.391C139.795 144.369 139.809 144.346 139.825 144.323C140.376 143.54 140.765 142.631 141.062 141.688C141.238 141.128 141.385 140.558 141.507 139.994C141.6 139.565 141.679 139.133 141.749 138.699C141.75 138.699 141.749 138.699 141.749 138.698C141.821 138.258 141.883 137.816 141.941 137.374C142.013 136.817 142.079 136.259 142.139 135.7C142.143 135.687 142.147 135.675 142.151 135.663C142.148 135.666 142.145 135.67 142.142 135.673C142.2 135.125 142.252 134.577 142.298 134.028C142.351 133.385 142.39 132.743 142.441 132.1C142.479 131.601 142.53 131.103 142.584 130.606C142.619 130.295 142.653 129.986 142.692 129.676C142.769 129.061 142.86 128.446 142.972 127.835C143.063 127.345 143.166 126.857 143.293 126.377C143.479 125.676 143.716 124.987 144.038 124.345C144.038 124.345 144.038 124.344 144.038 124.344C144.109 124.202 144.184 124.061 144.264 123.924C144.377 123.731 144.499 123.544 144.628 123.363C144.763 123.172 144.907 122.988 145.058 122.812C145.214 122.631 145.378 122.462 145.546 122.301C146.896 121.008 148.631 120.317 150.375 119.886C152.048 119.473 153.753 119.263 155.452 119.02C155.929 118.952 156.405 118.882 156.88 118.803C157.851 118.642 158.821 118.452 159.77 118.175C160.056 118.092 160.338 117.997 160.619 117.896C161.557 117.557 162.461 117.11 163.264 116.495C163.635 116.211 163.984 115.893 164.306 115.533C164.638 115.162 164.935 114.752 165.193 114.316C165.559 113.698 165.844 113.029 166.063 112.334C166.507 110.922 166.678 109.418 166.711 107.931C166.761 105.666 166.497 103.402 166.122 101.178Z" fill="#6FA533"/>
<path d="M141.676 137.425C141.142 133.868 137.806 131.5 137.806 131.5C137.806 131.5 135.338 134.9 135.872 138.457C136.408 142.014 139.791 144.402 139.791 144.402C139.791 144.402 142.212 140.983 141.676 137.425Z" fill="#89CE3D"/>
<path d="M145.332 135.517C147.721 133.018 151.697 133.296 151.697 133.296C151.697 133.296 151.799 137.626 149.41 140.125C147.02 142.624 142.996 142.331 142.996 142.331C142.996 142.331 142.943 138.016 145.332 135.517Z" fill="#89CE3D"/>
<path d="M143.86 122.23C143.115 119.517 140.298 118.037 140.298 118.037C140.298 118.037 138.689 120.955 139.435 123.668C140.18 126.38 143.036 127.87 143.036 127.87C143.036 127.87 144.606 124.943 143.86 122.23Z" fill="#89CE3D"/>
<path d="M154.697 120.216C157.221 120.911 158.701 123.909 158.701 123.909C158.701 123.909 156.088 125.78 153.563 125.085C151.039 124.39 149.549 121.35 149.549 121.35C149.549 121.35 152.173 119.521 154.697 120.216Z" fill="#89CE3D"/>
<path d="M164.126 115.24C165.082 113.138 164.142 110.512 164.142 110.512C164.142 110.512 161.652 111.294 160.696 113.396C159.74 115.498 160.698 118.153 160.698 118.153C160.698 118.153 163.17 117.342 164.126 115.24Z" fill="#89CE3D"/>
<path d="M167.942 110.062C169.227 109.295 170.895 109.913 170.895 109.913C170.895 109.913 170.478 111.775 169.192 112.541C167.907 113.307 166.22 112.676 166.22 112.676C166.22 112.676 166.656 110.828 167.942 110.062Z" fill="#89CE3D"/>
<path d="M31.8954 100.883C31.8954 100.883 27.9076 109.285 27.7943 119.021C27.7908 119.34 27.7948 119.661 27.7997 119.982C27.8024 120.155 27.8068 120.328 27.8117 120.502C27.859 122.065 28.0093 123.651 28.3028 125.235C28.4477 126.018 28.6279 126.8 28.8447 127.578C28.9718 128.034 29.1105 128.49 29.2648 128.944C29.87 130.725 30.6595 132.379 31.5676 133.911C31.5676 133.911 31.5676 133.913 31.5676 133.913C32.5657 135.597 33.7093 137.13 34.9197 138.516C35.5611 139.251 36.2212 139.942 36.8875 140.593C36.888 140.593 36.8884 140.594 36.8884 140.594C37.4968 141.188 38.11 141.752 38.7202 142.277C38.7206 142.277 38.7206 142.278 38.7211 142.278C39.4199 142.881 40.1126 143.434 40.7887 143.946C41.972 144.843 43.0982 145.605 44.0959 146.229H47.019C46.9677 146.091 46.9338 146.005 46.8571 145.809C46.8562 145.807 46.8553 145.804 46.8544 145.802C46.8544 145.802 46.8549 145.802 46.8544 145.801C46.8531 145.797 46.8504 145.792 46.8486 145.787C46.7724 145.592 46.6845 145.373 46.5859 145.134C46.4709 144.855 46.3446 144.556 46.1979 144.224C46.4784 144.857 46.7037 145.405 46.8651 145.821C46.9271 145.981 46.9775 146.109 47.0221 146.229H48.9422C50.6914 141.634 54.1132 130.463 50.674 120.343C46.2149 107.22 31.8954 100.883 31.8954 100.883Z" fill="#ED9843"/>
<path d="M33.1667 104.852C34.1654 107.724 34.9659 110.67 35.6943 113.635C36.1309 115.414 36.5444 117.198 36.9498 118.986C37.2004 120.091 37.4497 121.196 37.7004 122.301C38.7177 126.79 39.7681 131.271 41.0959 135.663C41.0985 135.667 41.1012 135.67 41.1043 135.674C41.1052 135.683 41.1061 135.692 41.1075 135.701C41.1494 135.839 41.1877 135.98 41.2305 136.118C41.3496 136.506 41.4718 136.892 41.5958 137.277C41.5958 137.278 41.5958 137.278 41.5958 137.278C41.7756 137.838 41.9589 138.397 42.1493 138.952C42.3977 139.679 42.6533 140.401 42.9321 141.114C43.1007 141.545 43.2804 141.972 43.461 142.398C43.5672 142.648 43.6733 142.898 43.779 143.148C43.883 143.394 43.9895 143.637 44.0957 143.881C44.271 144.283 44.4498 144.684 44.6367 145.08C44.6693 145.149 44.7049 145.216 44.7379 145.284C44.7384 145.285 44.7384 145.285 44.7388 145.285C44.7388 145.285 44.7388 145.286 44.7388 145.286C44.8356 145.487 44.9351 145.687 45.0354 145.886C45.0934 146 45.1496 146.115 45.2085 146.228H47.0188C46.9675 146.09 46.9336 146.005 46.8569 145.808C46.856 145.806 46.8551 145.803 46.8542 145.802C46.8542 145.801 46.8547 145.801 46.8542 145.801C46.5777 145.313 46.3061 144.822 46.0447 144.325C45.9792 144.2 45.9145 144.074 45.8489 143.949C45.6398 143.548 45.4346 143.145 45.2352 142.738C45.188 142.641 45.138 142.546 45.0921 142.45C44.7946 141.827 44.5203 141.193 44.2518 140.554C44.1541 140.322 44.0569 140.088 43.9588 139.855C43.821 139.528 43.6827 139.202 43.548 138.875C43.0739 137.72 42.6341 136.55 42.2176 135.371C41.6761 133.839 41.1744 132.288 40.6985 130.73C40.686 130.688 40.6744 130.647 40.6623 130.606C39.9327 128.209 39.2663 125.789 38.6187 123.364C38.1375 121.561 37.6652 119.754 37.1875 117.95C36.0158 113.527 34.8076 109.101 33.1667 104.852Z" fill="#A0662C"/>
<path d="M46.865 145.82C46.927 145.98 46.9774 146.109 47.022 146.229H47.0965C47.018 146.094 46.9426 145.956 46.865 145.82Z" fill="#A0662C"/>
<path d="M24.2093 127.133C17.0487 127.175 10.9326 130.258 10.9326 130.258C10.9326 130.258 14.3624 140.65 22.0493 146.227H47.019C46.9677 146.089 46.9338 146.004 46.8571 145.807C46.8562 145.805 46.8553 145.802 46.8544 145.801C46.8544 145.8 46.8549 145.8 46.8544 145.8C46.8531 145.795 46.8504 145.79 46.8486 145.785C46.7724 145.59 46.6845 145.371 46.5859 145.132C46.4709 144.854 46.3447 144.554 46.1979 144.222C46.1935 144.212 46.1894 144.202 46.185 144.192C46.1845 144.192 46.1845 144.191 46.1841 144.191C45.9611 143.687 45.7055 143.136 45.4063 142.532C44.9955 141.703 44.5169 140.802 43.959 139.854C43.3252 138.777 42.5978 137.652 41.7673 136.533C41.5532 136.246 41.3315 135.959 41.1045 135.673C41.1054 135.682 41.1063 135.691 41.1076 135.7C41.1036 135.687 41.1001 135.675 41.0961 135.662C40.4926 134.904 39.8419 134.159 39.1434 133.442C37.3483 131.602 35.2378 129.962 32.7905 128.848C31.4958 128.259 30.1707 127.849 28.8447 127.576C27.2846 127.255 25.7235 127.124 24.2093 127.133Z" fill="#FF7051"/>
<path d="M14.9482 131.635C18.1091 133.271 21.4256 134.511 24.7363 135.731C26.6983 136.455 28.6621 137.172 30.6147 137.925C31.3711 138.217 32.1257 138.515 32.8777 138.823C34.2287 139.375 35.5676 139.959 36.8873 140.592C36.8878 140.593 36.8878 140.593 36.8882 140.593C37.8922 141.075 38.8863 141.582 39.8622 142.13C39.9804 142.196 40.0986 142.263 40.2168 142.329C40.219 142.33 40.2208 142.331 40.223 142.332H40.2239C40.7743 142.64 41.3242 142.947 41.8621 143.279C42.156 143.46 42.4437 143.655 42.7304 143.848C42.9512 143.997 43.1707 144.148 43.3888 144.301C43.3999 144.308 43.4106 144.316 43.4213 144.324C43.445 144.341 43.4686 144.357 43.4922 144.374C43.6595 144.491 43.8263 144.61 43.9922 144.729C44.2437 144.911 44.4926 145.096 44.7388 145.286C44.7388 145.286 44.7388 145.286 44.7388 145.286C45.1335 145.59 45.5202 145.905 45.9011 146.229H47.0188C46.9675 146.09 46.9336 146.005 46.8569 145.808C46.856 145.806 46.8551 145.804 46.8542 145.802C46.8542 145.801 46.8547 145.801 46.8542 145.801C46.8529 145.796 46.8502 145.792 46.8484 145.787C46.7722 145.592 46.6843 145.372 46.5857 145.133C46.4707 144.855 46.3444 144.555 46.1977 144.223C46.1932 144.213 46.1892 144.203 46.1848 144.193C46.0737 144.111 45.9609 144.031 45.8489 143.949C45.5019 143.696 45.1518 143.448 44.7946 143.215C44.7843 143.208 44.7745 143.201 44.7647 143.195C44.337 142.916 43.9017 142.652 43.461 142.398C43.4079 142.367 43.3557 142.335 43.3027 142.305C43.0855 142.182 42.8656 142.063 42.6475 141.941C42.4941 141.856 42.3393 141.773 42.185 141.689C42.1493 141.669 42.1141 141.649 42.0784 141.63C42.0472 141.613 42.0164 141.596 41.9856 141.58C41.6689 141.408 41.3532 141.231 41.0312 141.07C40.7261 140.918 40.4188 140.772 40.1102 140.63C40.0013 140.579 39.8916 140.532 39.7823 140.482C39.7823 140.482 39.7823 140.482 39.7823 140.481C39.5767 140.389 39.3711 140.295 39.1646 140.204C38.5313 139.927 37.8939 139.66 37.2526 139.404C36.4792 139.094 35.7005 138.801 34.9195 138.516C34.0538 138.199 33.185 137.896 32.3131 137.601C30.1504 136.872 27.9716 136.198 25.7942 135.523C24.2934 135.058 22.7931 134.586 21.3012 134.087C19.1519 133.367 17.0213 132.585 14.9482 131.635Z" fill="#BE523A"/>
<path d="M17.1249 101.178C16.6704 103.419 16.331 105.705 16.3136 108.004C16.3047 109.214 16.3863 110.436 16.6281 111.62C16.7034 111.988 16.7949 112.354 16.9037 112.714C16.9082 112.73 16.9122 112.746 16.9171 112.762C17.1472 113.51 17.4594 114.231 17.8577 114.891C18.103 115.299 18.3809 115.682 18.6882 116.036C20.5378 118.166 23.2348 119.016 25.7953 119.584C26.2248 119.68 26.6588 119.765 27.0905 119.849C27.3264 119.895 27.5633 119.937 27.7996 119.981C28.1239 120.041 28.4481 120.101 28.7724 120.161C28.7724 120.161 28.7728 120.161 28.7728 120.161C28.817 120.169 28.8607 120.178 28.9049 120.186C29.6363 120.321 30.3669 120.46 31.0934 120.625C31.4444 120.705 31.7954 120.788 32.1433 120.882C32.6558 121.02 33.1736 121.182 33.6847 121.375C35.0169 121.877 36.2898 122.601 37.2104 123.77C37.4182 124.034 37.6064 124.316 37.771 124.613C38.1595 125.314 38.3861 126.112 38.5506 126.906C38.8182 128.198 38.919 129.523 38.9958 130.841C39.0225 131.307 39.0453 131.774 39.0725 132.239C39.0957 132.64 39.1193 133.041 39.1434 133.443C39.1545 133.63 39.1675 133.817 39.1768 134.005C39.2139 134.744 39.2473 135.483 39.2924 136.222C39.3289 136.814 39.3726 137.408 39.4315 137.997C39.4328 138.009 39.4337 138.021 39.4346 138.033C39.4841 138.525 39.5426 139.014 39.6166 139.502C39.6661 139.828 39.721 140.155 39.7825 140.481C39.8998 141.103 40.0416 141.722 40.2169 142.328C40.2192 142.329 40.2209 142.33 40.2232 142.331C40.2227 142.331 40.2187 142.332 40.2178 142.332C40.3775 142.884 40.5666 143.423 40.7887 143.945C41.137 144.764 41.5692 145.536 42.1151 146.228H45.6689C45.4513 146.128 45.2399 146.014 45.0356 145.885C44.9669 145.842 44.8982 145.798 44.8309 145.751C44.5949 145.587 44.3715 145.4 44.1623 145.197C43.9067 144.949 43.6762 144.679 43.4683 144.391C43.4523 144.369 43.4375 144.346 43.4215 144.323C42.8702 143.54 42.4817 142.631 42.1852 141.688C42.009 141.128 41.8622 140.558 41.74 139.994C41.6468 139.565 41.5674 139.133 41.497 138.699C41.497 138.699 41.497 138.699 41.497 138.698C41.4256 138.258 41.3641 137.816 41.3061 137.374C41.2329 136.817 41.1669 136.259 41.1076 135.7C41.1036 135.687 41.1 135.675 41.096 135.663C41.0987 135.666 41.1014 135.67 41.1045 135.673C41.046 135.125 40.9943 134.577 40.9493 134.028C40.8962 133.385 40.8565 132.743 40.8061 132.1C40.7673 131.601 40.7169 131.103 40.6625 130.606C40.6281 130.295 40.5938 129.986 40.555 129.676C40.4778 129.061 40.3864 128.446 40.274 127.835C40.1839 127.345 40.0804 126.857 39.9529 126.377C39.7669 125.676 39.5305 124.987 39.2089 124.345C39.2085 124.345 39.2089 124.344 39.2089 124.344C39.1371 124.202 39.0631 124.061 38.9828 123.924C38.8695 123.731 38.7478 123.544 38.6189 123.363C38.4833 123.172 38.3397 122.988 38.188 122.812C38.0324 122.631 37.8691 122.462 37.7006 122.301C36.3505 121.008 34.6155 120.317 32.8716 119.886C31.1991 119.473 29.4936 119.263 27.7943 119.02C27.3175 118.952 26.8416 118.882 26.3666 118.803C25.3957 118.642 24.4261 118.452 23.4765 118.175C23.1911 118.092 22.9087 117.997 22.6278 117.896C21.6898 117.557 20.7857 117.11 19.9825 116.495C19.6119 116.211 19.2626 115.893 18.9406 115.533C18.6083 115.162 18.3113 114.752 18.0535 114.316C17.6873 113.698 17.4019 113.029 17.1834 112.334C16.7396 110.922 16.5688 109.418 16.5358 107.931C16.4858 105.666 16.7498 103.402 17.1249 101.178Z" fill="#6FA533"/>
<path d="M41.5704 137.425C42.1052 133.868 45.4409 131.5 45.4409 131.5C45.4409 131.5 47.9091 134.9 47.3743 138.457C46.8391 142.014 43.4561 144.402 43.4561 144.402C43.4561 144.402 41.0352 140.983 41.5704 137.425Z" fill="#89CE3D"/>
<path d="M37.9142 135.517C35.5254 133.018 31.5497 133.296 31.5497 133.296C31.5497 133.296 31.448 137.626 33.8373 140.125C36.2261 142.624 40.2504 142.331 40.2504 142.331C40.2504 142.331 40.3035 138.016 37.9142 135.517Z" fill="#89CE3D"/>
<path d="M39.3865 122.23C40.1318 119.517 42.9492 118.037 42.9492 118.037C42.9492 118.037 44.5579 120.955 43.8122 123.668C43.0669 126.38 40.2107 127.87 40.2107 127.87C40.2107 127.87 38.6408 124.943 39.3865 122.23Z" fill="#89CE3D"/>
<path d="M28.5497 120.216C26.0253 120.911 24.5459 123.909 24.5459 123.909C24.5459 123.909 27.1591 125.78 29.6835 125.085C32.2078 124.39 33.698 121.35 33.698 121.35C33.698 121.35 31.0741 119.521 28.5497 120.216Z" fill="#89CE3D"/>
<path d="M19.1206 115.24C18.1649 113.138 19.1046 110.512 19.1046 110.512C19.1046 110.512 21.5942 111.294 22.55 113.396C23.5062 115.498 22.5482 118.153 22.5482 118.153C22.5482 118.153 20.0769 117.342 19.1206 115.24Z" fill="#89CE3D"/>
<path d="M15.3053 110.062C14.0194 109.295 12.3518 109.913 12.3518 109.913C12.3518 109.913 12.7688 111.775 14.0542 112.541C15.3401 113.307 17.0268 112.676 17.0268 112.676C17.0268 112.676 16.5907 110.828 15.3053 110.062Z" fill="#89CE3D"/>
<path d="M118.941 63.2139C113.381 65.4796 112.503 76.4837 112.503 76.4837L105.328 76.3152L104.715 79.1778C104.715 79.1778 114.692 83.1241 115.56 82.4912C116.797 81.589 120.651 62.5171 118.941 63.2139Z" fill="#D43411"/>
<path d="M105.328 76.3164L107.595 76.3696L107.007 80.0569L104.715 79.1791L105.328 76.3164Z" fill="#901E06"/>
<path d="M103.382 75.3151L100.798 73.8931C100.798 73.8931 99.1723 72.8485 98.6567 72.6023C97.857 72.2204 97.7826 73.0224 98.1403 73.4318C98.8646 74.2608 101.109 75.3856 101.109 75.3856L103.382 75.3151Z" fill="#EBCFB3"/>
<path d="M105.328 76.3163C105.328 76.3163 104.152 75.5858 103.382 75.3157C102.611 75.0451 102.014 75.1835 102.014 75.1835L101.563 74.8482L101.715 73.7965C101.715 73.7965 102.176 73.2394 102.168 72.8788C102.159 72.5182 101.682 72.3541 101.682 72.3541L100.91 73.5481L100.54 74.6845L99.8649 73.577C99.8649 73.577 100.022 72.3514 99.8609 71.8409C99.6999 71.3304 99.2209 71.5344 99.2209 71.5344L98.9158 73.8058L99.2534 74.8264L98.0069 73.8191C98.0069 73.8191 97.6072 72.9742 97.275 72.712C96.9422 72.4499 96.6764 72.7701 96.6764 72.7701L97.37 74.0706L97.9087 74.9005L96.9904 74.4197C96.9904 74.4197 96.7005 73.7894 96.2317 73.5694C95.7625 73.3494 95.4365 73.5805 95.4365 73.5805L96.8526 75.1764L102.693 77.9486L104.881 78.4059L105.328 76.3163Z" fill="#FFE1C2"/>
<path d="M115.156 95.4609L116.931 120.787L118.711 140.669C118.711 140.669 119.802 142.115 121.028 142.319C122.255 142.523 123.738 141.489 123.738 141.489L123.351 120.727L123.741 105.959L130.851 96.6953L115.156 95.4609Z" fill="#041F40"/>
<path d="M119.542 96.4349L123.741 105.958L134.678 141.219L138.707 140.881L138.435 138.423L131.746 96.2012L119.542 96.4349Z" fill="#041F40"/>
<path d="M118.711 140.668L115.547 143.758C115.547 143.758 113.33 142.95 112.99 144.225C112.65 145.5 113.146 145.333 113.146 145.333L123.762 145.42L123.741 141.488C123.741 141.488 121.941 142.417 120.959 142.168C119.977 141.919 118.711 140.668 118.711 140.668Z" fill="#303030"/>
<path d="M123.733 145.272L123.742 146.083L112.902 146.229L112.898 145.166L121.875 145.297L123.733 145.272Z" fill="black"/>
<path d="M121.977 101.996L123.741 105.958V141.488C123.741 141.488 123.415 141.657 123.025 141.807C122.635 141.956 122.183 142.085 122.183 142.085L121.977 101.996Z" fill="#001023"/>
<path d="M131.746 96.2012L138.268 137.372L138.707 140.882C138.707 140.882 138.307 140.799 137.964 140.739C137.62 140.679 137.334 140.642 137.334 140.642L134.409 120.29C134.409 120.29 133.688 113.241 132.013 104.973C130.598 97.9913 126.48 96.906 126.48 96.906L131.746 96.2012Z" fill="#001023"/>
<path d="M134.446 145.546L134.548 143.763L134.678 141.22C134.678 141.22 135.727 140.531 136.598 140.572C137.468 140.613 138.707 140.882 138.707 140.882L139.2 143.055L139.979 144.847L140.289 145.768L134.446 145.546Z" fill="#303030"/>
<path d="M134.365 146.228C134.365 144.597 135.721 142.883 137.367 142.883C139.013 142.883 140.325 144.597 140.325 146.228" fill="black"/>
<path d="M115.562 68.1348C115.562 68.1348 113.977 72.5015 114.726 75.2533C115.633 78.584 114.783 81.9159 114.783 81.9159L111.425 81.617L116.856 83.9035L115.562 68.1348Z" fill="#AD2A0D"/>
<path d="M126.984 58.834L127.834 59.9575L132.707 62.6179C132.707 62.6179 135.269 66.4041 135.5 69.9636C135.719 73.3408 133.639 79.8255 132.903 84.2096C131.623 91.8334 132.619 97.207 132.619 97.207C132.619 97.207 126.53 98.0892 121.869 97.5654C117.208 97.0411 113.977 95.1112 113.977 95.1112C113.977 95.1112 115.258 87.8268 115.654 81.0826C116.051 74.3388 114.325 72.8125 115.562 68.1357C116.799 63.4589 120.602 62.3753 120.602 62.3753L121.042 60.6996L126.984 58.834Z" fill="#D43411"/>
<path d="M127.999 68.707L129.833 80.0566C129.833 80.0566 129.431 86.572 127.548 91.2209C125.665 95.8702 121.87 97.5645 121.87 97.5645C126.531 98.0884 132.619 97.2057 132.619 97.2057C132.619 97.2057 132.556 96.8686 132.483 96.2485C132.483 96.2481 132.483 96.2467 132.483 96.2463C132.3 94.6894 132.047 91.3397 132.523 86.9561C132.571 86.5179 132.626 86.0708 132.689 85.6126C132.753 85.1544 132.823 84.6869 132.903 84.2105C132.944 83.9666 133.002 83.6955 133.05 83.4396L133.052 83.3837L131.242 80.0229L127.999 68.707Z" fill="#AD2A0D"/>
<path d="M127.834 67.2168C127.834 70.1163 131.242 80.0213 131.242 80.0213L128.149 92.4017L131.872 93.1797C131.872 93.1797 136.238 81.9237 136.415 80.1428C136.559 78.6857 136.829 64.8979 133.198 62.8585C129.281 60.6585 127.834 65.3228 127.834 67.2168Z" fill="#D43411"/>
<path d="M128.934 89.2617L128.149 92.4034L131.872 93.1814L132.867 90.5773L128.934 89.2617Z" fill="#901E06"/>
<path d="M128.149 92.4023L127.785 94.11L126.068 95.9694L125.112 98.0559L125.047 100.101C125.047 100.101 125.646 100.302 126.02 99.6278C126.191 99.3191 126.152 98.1636 126.152 98.1636L126.542 97.4047L126.636 102.178C126.636 102.178 126.878 102.419 127.114 102.424C127.35 102.429 127.581 102.199 127.581 102.199L127.731 99.3754L127.784 101.976C127.784 101.976 127.963 102.198 128.149 102.216C128.335 102.234 128.527 102.048 128.527 102.048L128.767 101.567C128.767 101.567 129.137 101.668 129.467 101.49C129.797 101.313 130.086 100.858 130.086 100.858L130.136 100.415C130.136 100.415 130.484 100.629 130.791 100.468C131.098 100.308 131.365 99.7715 131.365 99.7715L131.431 94.7536L131.872 93.1803L128.149 92.4023Z" fill="#FFE1C2"/>
<path d="M122.657 59.1296L121.774 59.7953L121.801 61.6889L122.429 62.4935L127.113 59.2493L126.825 58.3205C126.825 58.3205 129.918 57.3913 130.729 54.2394C131.54 51.0871 130.548 48.7048 127.35 47.67C124.152 46.6351 121.465 48.07 121.465 48.07L122.657 59.1296Z" fill="#FFE1C2"/>
<path d="M121.774 59.2742L121.788 60.7614C121.788 60.7614 123.857 59.6277 124.721 58.8027C125.585 57.9772 125.725 56.1351 125.725 56.1351L125.515 55.6934L121.774 59.2742Z" fill="#ECC7A3"/>
<path d="M127.685 52.6888C127.89 51.6158 126.471 52.1144 126.215 51.4349C125.678 50.0106 125.631 47.9969 123.93 47.6762C121.418 47.202 118.443 49.8354 118.973 53.7422C119.427 57.0919 120.602 59.4232 123.138 59.1003C124.53 58.9229 125.752 55.0951 126.248 54.3428C126.744 53.5901 127.545 53.4282 127.685 52.6888Z" fill="#FFE1C2"/>
<path d="M124.639 51.1518L125.26 53.7031L126.204 52.1684C126.204 52.1684 127.921 51.8681 127.449 52.9735C127.269 53.3953 126.599 53.4871 126.205 54.0513C125.566 54.9668 125.56 55.8038 125.56 55.8038L126.921 58.5232C126.921 58.5232 133.88 55.3819 130.744 48.3774C130.667 48.2044 130.618 48.0208 130.513 47.8779C128.569 45.2419 126.636 45.7693 122.861 45.7174C118.441 45.6562 117.707 45.1035 117.707 45.1035C117.707 45.1035 116.578 49.594 119.461 50.3343C122.106 51.0134 124.639 51.1518 124.639 51.1518Z" fill="black"/>
<path d="M126.997 58.875L122.457 62.5259L124.364 62.2828L125.517 63.8224C125.517 63.8224 125.769 61.9612 126.598 61.0227C127.426 60.0841 127.548 59.5798 127.548 59.5798L126.997 58.875Z" fill="#901E06"/>
<path d="M121.042 60.7109L122.457 62.5255L121.768 62.4479L121.025 63.1962L121.042 60.7109Z" fill="#901E06"/>
<path d="M59.4041 96.0391L66.1347 117.314L68.528 141.324C68.528 141.324 69.9945 142.845 71.3343 142.671C72.6741 142.496 73.8872 140.628 73.8872 140.628L73.9965 117.314L71.1608 94.7324L59.4041 96.0391Z" fill="#062C51"/>
<path d="M55.3208 94.7324L55.1357 118.855L53.0596 140.988C53.0596 140.988 54.3913 142.111 55.6977 142.246C57.0041 142.381 58.2636 140.14 58.2636 140.14L63.8828 118.539L68.5061 95.0274L55.3208 94.7324Z" fill="#062C51"/>
<path d="M67.3372 100.973L64.9351 113.189L66.1348 117.314L68.5259 141.787L69.2707 141.952L68.5441 116.753L66.1348 111.303L67.3372 100.973Z" fill="#03213F"/>
<path d="M65.2797 95.4844L55.3141 95.6503L55.1339 118.856L53.0596 140.989L53.4744 142.671L59.1837 99.0346L65.2797 95.4844Z" fill="#03213F"/>
<path d="M70.8557 81.6504C70.8557 81.6504 75.0937 87.2906 74.963 88.6989C74.8666 89.7355 71.675 90.5374 71.675 90.5374L70.8557 81.6504Z" fill="#27639E"/>
<path d="M61.0776 65.4565L70.4259 64.5286L75.3316 61.127L79.8567 64.6913C79.8567 64.6913 71.8028 70.5187 71.1034 70.8758C70.582 71.1419 64.0302 72.3058 64.0302 72.3058L61.0776 65.4565Z" fill="#2E70B1"/>
<path d="M76.6914 59.2188L75.3315 61.1287L78.6784 63.7652L80.3951 61.4095L76.6914 59.2188Z" fill="#DDDDDD"/>
<path d="M76.6914 59.2184L79.9548 61.1483L81.6925 58.7753L78.4348 56.8711L76.6914 59.2184Z" fill="#FFE1C2"/>
<path d="M55.3748 61.4357L56.344 61.6353L56.947 63.2219L55.4359 64.7016L51.9312 63.8234L51.701 62.3783C51.701 62.3783 48.8475 62.8125 46.9738 60.581C45.1001 58.3499 44.9788 56.0488 47.1571 53.9911C49.3354 51.9335 52.057 52.0621 52.057 52.0621L55.3748 61.4357Z" fill="#FFE1C2"/>
<path d="M56.3475 61.3923L56.7512 62.6045C56.7512 62.6045 54.5996 62.2963 53.5836 61.9614C52.5676 61.6265 51.7421 60.1947 51.7421 60.1947L51.7407 59.7578L56.3475 61.3923Z" fill="#ECC7A3"/>
<path d="M48.8279 58.1662C48.2481 57.3797 49.5857 57.2387 49.5291 56.5924C49.4109 55.2387 48.67 53.5971 49.9171 52.6878C51.7591 51.3443 55.1764 52.3295 56.2611 55.6823C57.191 58.5569 57.1446 60.8869 54.9748 61.5966C53.784 61.986 51.3175 59.3673 50.6267 58.9504C49.9358 58.5334 49.228 58.7086 48.8279 58.1662Z" fill="#FFE1C2"/>
<path d="M50.6908 55.7617L51.177 58.0562L49.822 57.1802C49.822 57.1802 48.3212 57.5949 49.1294 58.3059C49.4376 58.5769 50.0133 58.3951 50.5494 58.6989C51.4192 59.1926 51.7474 59.865 51.7474 59.865L51.7024 62.5787C51.7024 62.5787 44.8758 62.7082 44.6947 55.8606C44.6903 55.6912 44.6581 55.5249 44.6876 55.3696C45.2353 52.5003 46.9979 52.1858 50.0227 50.699C53.5627 48.959 53.9404 48.2324 53.9404 48.2324C53.9404 48.2324 56.5884 51.4216 54.5501 53.1213C52.6791 54.6812 50.6908 55.7617 50.6908 55.7617Z" fill="black"/>
<path d="M51.1208 57.791C51.1208 57.791 51.9958 59.0946 52.957 59.6894C53.9177 60.2842 55.0211 60.4364 55.0211 60.4364L56.7766 59.4721L57.8002 61.6765L54.9747 61.5962C54.9747 61.5962 53.7487 61.3461 52.7112 60.4195C51.6743 59.4929 50.8264 57.8904 50.8264 57.8904" fill="black"/>
<path d="M63.1442 68.1708L65.6182 69.0348L76.3964 67.2056L79.8565 64.6916L78.6782 63.7637L75.4348 66.4325L66.2225 67.9335L62.0947 66.7186L63.1442 68.1708Z" fill="#27639E"/>
<path d="M51.6222 62.6445L51.2377 64.7838C51.2377 64.7838 48.8181 68.4897 49.5888 72.5078C50.3595 76.5264 53.0083 75.0711 54.32 80.8577C55.6318 86.6447 52.842 92.6291 54.8352 95.655C55.7531 97.0482 71.1608 94.7324 71.1608 94.7324C71.1608 94.7324 72.5796 88.9432 70.8557 81.6516C69.1324 74.3601 68.4446 73.0698 65.439 68.6618C62.4338 64.2533 58.8345 64.0187 58.8345 64.0187L58.0353 63.0459L51.6222 62.6445Z" fill="#2E70B1"/>
<path d="M51.6223 62.6445L51.2378 64.7838L58.0367 64.939L59.5679 65.631L60.7422 65.4833L61.0892 66.2231C61.0892 66.2231 61.7127 65.9006 63.5766 67.815C65.4404 69.7298 68.5442 73.8819 68.5442 73.8819C68.5442 73.8819 66.1152 69.037 63.6876 66.5713C61.2604 64.1056 58.8346 64.0187 58.8346 64.0187L58.0354 63.0459L51.6223 62.6445Z" fill="#062C51"/>
<path d="M58.8345 64.0187L51.437 63.6749L51.6221 62.6445L58.0352 63.0459L58.8345 64.0187Z" fill="#DDDDDD"/>
<path d="M79.5569 60.9121L80.3949 61.408L78.6782 63.7637L77.813 63.082L79.5569 60.9121Z" fill="#ADADAD"/>
<path d="M58.4233 83.2894L66.0924 82.6484L66.1348 83.1479L58.4653 83.7888L58.4233 83.2894Z" fill="#062C51"/>
<path d="M77.2242 79.5062C76.9338 79.7874 77.5912 79.2818 77.2242 79.5062C75.478 80.5743 71.6535 85.5487 69.8209 84.9566L69.5952 84.8829C69.824 84.3254 70.0537 83.7594 70.2763 83.17C70.675 82.1116 71.0581 81.005 71.4149 79.8588C71.5933 79.2858 71.7673 78.7029 71.9296 78.1117C72.4175 76.3384 72.8247 74.4879 73.1668 72.6533C73.281 72.0417 73.3863 71.4327 73.4862 70.8277C74.1226 66.971 74.4723 63.3698 74.665 60.7923C74.7145 60.135 74.7586 59.4985 74.789 58.9959C74.8166 58.5324 74.8126 58.5683 74.8273 58.2596C74.8469 57.8476 74.8715 57.3685 74.8746 57.278C74.875 57.2559 74.8866 57.0336 74.8866 57.0332L77.7674 57.3929L77.8347 57.4009L80.4889 57.7331L83.945 58.1656L87.1175 58.5626C87.1175 58.5626 87.0903 58.9285 87.0871 58.9853C87.0845 59.0252 87.0711 59.2164 87.0671 59.2829C87.0662 59.294 87.0635 59.3206 87.0626 59.3321C87.0506 59.5291 87.0336 59.7757 87.0073 60.1585C86.9609 60.8238 86.9154 61.3964 86.8191 62.5182C86.5439 65.7215 84.3304 78.0163 83.5231 82.8L77.2242 79.5062Z" fill="#D53131"/>
<path d="M77.2242 79.5062C75.478 80.5743 71.6535 85.5487 69.8209 84.9566L69.5952 84.8829C69.824 84.3254 70.0537 83.7594 70.2763 83.17C70.675 82.1116 71.0581 81.005 71.4149 79.8588C71.5933 79.2858 71.7673 78.7029 71.9296 78.1117C72.4175 76.3384 72.8247 74.4879 73.1668 72.6533C73.281 72.0417 73.3863 71.4327 73.4862 70.8277C74.1226 66.971 74.4723 63.3698 74.665 60.7923C74.7145 60.135 74.7586 59.4985 74.789 58.9959C74.8166 58.5324 74.8126 58.5683 74.8273 58.2596C74.8469 57.8476 74.8715 57.3685 74.8746 57.278C74.875 57.2559 74.8866 57.0336 74.8866 57.0332L77.7674 57.3929L77.8347 57.4009L80.4889 57.7331C80.4889 57.7331 80.4671 58.6287 80.4158 59.856C80.4055 60.0964 80.3868 60.3922 80.3725 60.6699C80.3373 61.357 80.3061 61.9726 80.2365 62.8575C80.0282 65.5037 79.6513 68.8973 78.9333 72.4914C78.1046 76.64 78.2272 76.3357 77.2242 79.5062Z" fill="#053E76"/>
<path d="M97.2075 79.6113C96.8262 79.4117 97.5162 79.8721 97.2075 79.6113C99.0214 80.561 103.171 85.2706 104.96 84.5583L105.18 84.47C104.914 83.9284 104.647 83.3793 104.386 82.8058C103.916 81.7763 103.46 80.6976 103.027 79.5776C102.811 79.0179 102.598 78.4479 102.396 77.8686C101.791 76.1317 101.26 74.3122 100.796 72.5043C100.641 71.9015 100.495 71.3009 100.355 70.7039C99.4617 66.8982 98.8707 63.3281 98.5054 60.7692C98.4122 60.1168 98.3252 59.4847 98.2614 58.9848C98.2026 58.5244 98.2093 58.5599 98.1736 58.253C98.1263 57.8431 98.0701 57.3668 98.0612 57.2767C98.059 57.2545 98.0326 57.0336 98.0326 57.0332L95.1822 57.5832L95.1158 57.5956L92.4897 58.1031L89.0701 58.7639L85.9312 59.3707C85.9312 59.3707 85.9829 59.734 85.99 59.7903C85.9949 59.8302 86.0217 60.0201 86.0302 60.0862C86.0315 60.0968 86.036 60.1234 86.0377 60.135C86.0627 60.3306 86.0962 60.5754 86.1484 60.9555C86.2393 61.6164 86.3232 62.1846 86.4945 63.2975C86.9837 66.4751 90.017 78.596 91.1436 83.3154L97.2075 79.6113Z" fill="#D53131"/>
<path d="M97.2076 79.6113C99.0215 80.561 103.171 85.2706 104.96 84.5583L105.18 84.47C104.914 83.9284 104.647 83.3793 104.386 82.8058C103.916 81.7763 103.46 80.6976 103.028 79.5776C102.811 79.0179 102.598 78.4479 102.396 77.8686C101.791 76.1317 101.26 74.3122 100.796 72.5043C100.641 71.9015 100.495 71.3009 100.355 70.7039C99.4617 66.8982 98.8708 63.3281 98.5055 60.7692C98.4123 60.1168 98.3253 59.4847 98.2615 58.9848C98.2026 58.5244 98.2093 58.5599 98.1737 58.253C98.1264 57.8431 98.0702 57.3668 98.0613 57.2767C98.059 57.2545 98.0327 57.0336 98.0327 57.0332L95.1823 57.5832L95.1158 57.5956L92.4897 58.1031C92.4897 58.1031 92.5714 58.9955 92.7052 60.2166C92.731 60.4557 92.7698 60.7497 92.8024 61.0256C92.884 61.7091 92.9563 62.3208 93.0852 63.1995C93.4705 65.8257 94.074 69.187 95.0315 72.7252C96.1367 76.8094 95.994 76.5145 97.2076 79.6113Z" fill="#053E76"/>
<path d="M69.9268 50.757C69.9268 59.1796 76.7926 66.0076 85.2618 66.0076C93.7315 66.0076 100.597 59.1796 100.597 50.757C100.597 42.3339 93.7315 35.5059 85.2618 35.5059C76.7926 35.5059 69.9268 42.3339 69.9268 50.757Z" fill="#F6C134"/>
<path d="M93.4202 63.6674C91.8493 61.8613 98.9274 49.2923 93.9821 43.5794C89.0368 37.866 77.8536 45.7271 73.6384 40.8143C76.4509 37.5657 80.6131 35.5059 85.2618 35.5059C93.7315 35.5054 100.597 42.3335 100.597 50.7565C100.597 56.1962 97.7308 60.968 93.4202 63.6674Z" fill="#E1B02E"/>
<path d="M72.1245 50.7567C72.1245 57.9724 78.006 63.8215 85.2616 63.8215C92.5173 63.8215 98.3992 57.9724 98.3992 50.7567C98.3992 43.541 92.5173 37.6914 85.2616 37.6914C78.006 37.6914 72.1245 43.541 72.1245 50.7567Z" fill="#CE8323"/>
<path d="M72.9417 50.7561C72.9417 57.5225 78.4574 63.0084 85.2617 63.0084C92.066 63.0084 97.5817 57.5225 97.5817 50.7561C97.5817 43.9893 92.066 38.5039 85.2617 38.5039C78.4574 38.5039 72.9417 43.9893 72.9417 50.7561Z" fill="#FFCC47"/>
<path d="M92.2426 42.8945C96.9672 47.6724 97.526 52.6548 97.5314 51.8746C97.5452 49.8024 97.9573 46.1014 93.6489 41.782C88.3169 36.4368 80.6491 39.0861 80.0894 39.6335C79.5301 40.1808 87.5181 38.117 92.2426 42.8945Z" fill="#EDBF46"/>
<path d="M85.2619 55.9973L78.9 59.3239L80.1149 52.2786L74.968 47.289L82.0809 46.2613L85.2619 39.8516L88.4428 46.2613L95.5557 47.289L90.4088 52.2786L91.6241 59.3239L85.2619 55.9973Z" fill="#F0BF42"/>
<path d="M85.2617 39.8516V50.6441L88.4426 46.2613L85.2617 39.8516Z" fill="#CE8323"/>
<path d="M85.2617 50.6441L95.5555 47.2891L90.4086 52.2786L85.2617 50.6441Z" fill="#CE8323"/>
<path d="M85.2617 50.6426L91.624 59.3224L85.2617 55.9958V50.6426Z" fill="#CE8323"/>
<path d="M85.2617 50.6426L78.8999 59.3224L80.1148 52.2771L85.2617 50.6426Z" fill="#CE8323"/>
<path d="M85.2619 50.6425L74.968 47.2875L82.0809 46.2598L85.2619 50.6425Z" fill="#CE8323"/>
<path d="M64.015 68.2808C64.015 68.2808 56.5582 65.5641 54.3135 66.2636C52.0687 66.963 49.7548 68.3762 49.7548 68.3762C49.4551 69.6 49.3053 71.03 49.588 72.5061C50.3587 76.5247 53.0093 75.0694 54.321 80.856C55.6327 86.6426 52.8412 92.6301 54.8344 95.656C55.3754 96.4774 60.7922 96.0059 65.2799 95.4834C65.2799 95.4834 59.6361 96.0809 57.5042 91.098C55.3718 86.1156 56.7513 75.5533 56.7513 75.5533C56.7513 75.5533 62.3567 76.3517 64.3062 76.0785C67.1031 75.6859 68.9278 74.5673 68.9278 74.5673L64.015 68.2808Z" fill="#27639E"/>
<path d="M54.0744 73.5636C56.5591 75.9996 66.3324 75.1102 66.3324 75.1102L78.6047 72.5412L77.6436 66.9946L65.6184 69.0354C65.6184 69.0354 58.1651 66.0866 55.0997 67.1232C52.9446 67.8515 52.2765 71.8009 54.0744 73.5636Z" fill="#2E70B1"/>
<path d="M77.6436 66.9951L80.3432 66.3125L81.4239 70.6509L78.4053 71.2874L77.6436 66.9951Z" fill="#DDDDDD"/>
<path d="M80.3433 66.313L82.8659 65.276L85.4451 62.4883L88.7014 61.873C88.7014 61.873 88.8406 62.4696 88.3437 62.8866C87.8473 63.3035 86.7145 63.5412 86.7145 63.5412L86.8362 64.0008L91.7949 63.516C91.7949 63.516 91.9332 63.9755 91.5131 64.2199C91.0929 64.4643 90.1144 64.494 90.1144 64.494C90.1144 64.494 90.1755 64.7579 90.0247 64.9442C89.8735 65.1309 89.5105 65.2405 89.5105 65.2405C89.5105 65.2405 89.7611 65.5652 89.5279 65.7555C89.2946 65.9462 88.577 66.003 88.577 66.003L85.0147 67.5589L83.6825 67.6618L81.2018 69.7581L80.3433 66.313Z" fill="#FFE1C2"/>
<path d="M58.2637 140.141L61.5374 143.337C61.5374 143.337 63.8308 142.502 64.1831 143.82C64.535 145.139 64.0212 144.966 64.0212 144.966L53.0378 145.057L53.0597 140.989C53.0597 140.989 54.9227 141.95 55.9387 141.692C56.9547 141.434 58.2637 140.141 58.2637 140.141Z" fill="#303030"/>
<path d="M53.068 144.902L53.0596 145.741L64.274 145.893L64.2784 144.793L54.9908 144.928L53.068 144.902Z" fill="black"/>
<path d="M73.7324 140.477L77.0061 143.673C77.0061 143.673 79.2995 142.838 79.6514 144.156C80.0037 145.475 79.4899 145.302 79.4899 145.302L68.5061 145.393L68.528 141.325C68.528 141.325 70.3909 142.286 71.4069 142.028C72.4229 141.77 73.7324 140.477 73.7324 140.477Z" fill="#303030"/>
<path d="M68.537 145.238L68.5281 146.077L79.7429 146.229L79.7469 145.129L70.4593 145.265L68.537 145.238Z" fill="black"/>
</g>
<defs>
<clipPath id="clip0_3153_6480">
<rect width="185" height="148" fill="white"/>
</clipPath>
</defs>
</svg>
