<svg width="322" height="321" viewBox="0 0 322 321" fill="none" xmlns="http://www.w3.org/2000/svg">
<path d="M2 213V63.972L54 32.9861L106 1.99999" stroke="#C89642" stroke-width="4"/>
<path d="M320 320.5V63.9879L267.5 32.9938L215 1.99973" stroke="#C89642" stroke-width="4"/>
<g filter="url(#filter0_d_1_7)">
<path d="M155.61 21.7409C158.648 20.0383 162.352 20.0383 165.39 21.741L274.468 82.8854C277.624 84.6545 279.578 87.9904 279.578 91.6084V213.392C279.578 217.01 277.624 220.345 274.468 222.115L165.39 283.259C162.352 284.962 158.648 284.962 155.61 283.259L46.5318 222.115C43.3758 220.345 41.4215 217.01 41.4215 213.392V91.6084C41.4215 87.9904 43.3758 84.6545 46.5318 82.8854L155.61 21.7409Z" fill="#F8F9FC"/>
<path d="M156.588 23.4855C159.018 22.1234 161.982 22.1234 164.412 23.4856L273.49 84.63C276.015 86.0453 277.578 88.714 277.578 91.6084V213.392C277.578 216.286 276.015 218.955 273.49 220.37L164.412 281.514C161.982 282.877 159.018 282.877 156.588 281.514L47.5097 220.37C44.9849 218.955 43.4215 216.286 43.4215 213.392V91.6084C43.4215 88.714 44.9849 86.0453 47.5097 84.63L156.588 23.4855Z" stroke="white" stroke-width="4"/>
</g>
<defs>
<filter id="filter0_d_1_7" x="21.4215" y="5.46394" width="278.157" height="304.072" filterUnits="userSpaceOnUse" color-interpolation-filters="sRGB">
<feFlood flood-opacity="0" result="BackgroundImageFix"/>
<feColorMatrix in="SourceAlpha" type="matrix" values="0 0 0 0 0 0 0 0 0 0 0 0 0 0 0 0 0 0 127 0" result="hardAlpha"/>
<feOffset dy="5"/>
<feGaussianBlur stdDeviation="10"/>
<feComposite in2="hardAlpha" operator="out"/>
<feColorMatrix type="matrix" values="0 0 0 0 0.784314 0 0 0 0 0.588235 0 0 0 0 0.258824 0 0 0 0.25 0"/>
<feBlend mode="normal" in2="BackgroundImageFix" result="effect1_dropShadow_1_7"/>
<feBlend mode="normal" in="SourceGraphic" in2="effect1_dropShadow_1_7" result="shape"/>
</filter>
</defs>
</svg>
