<svg width="323" height="321" viewBox="0 0 323 321" fill="none" xmlns="http://www.w3.org/2000/svg">
<path d="M321 320.5V63.9879L268.5 32.9938L216 1.99973" stroke="#C89642" stroke-width="4"/>
<path d="M2 320.5V63.9881L54.5 32.994L107 2" stroke="#C89642" stroke-width="4"/>
<g filter="url(#filter0_d_1_7)">
<path d="M156.61 21.7409C159.648 20.0383 163.352 20.0383 166.39 21.741L275.468 82.8854C278.624 84.6545 280.578 87.9904 280.578 91.6084V213.392C280.578 217.01 278.624 220.345 275.468 222.115L166.39 283.259C163.352 284.962 159.648 284.962 156.61 283.259L47.5318 222.115C44.3758 220.345 42.4215 217.01 42.4215 213.392V91.6084C42.4215 87.9904 44.3758 84.6545 47.5318 82.8854L156.61 21.7409Z" fill="#F8F9FC"/>
<path d="M157.588 23.4855C160.018 22.1234 162.982 22.1234 165.412 23.4856L274.49 84.63C277.015 86.0453 278.578 88.714 278.578 91.6084V213.392C278.578 216.286 277.015 218.955 274.49 220.37L165.412 281.514C162.982 282.877 160.018 282.877 157.588 281.514L48.5097 220.37C45.9849 218.955 44.4215 216.286 44.4215 213.392V91.6084C44.4215 88.714 45.9849 86.0453 48.5097 84.63L157.588 23.4855Z" stroke="white" stroke-width="4"/>
</g>
<defs>
<filter id="filter0_d_1_7" x="22.4215" y="5.46394" width="278.157" height="304.072" filterUnits="userSpaceOnUse" color-interpolation-filters="sRGB">
<feFlood flood-opacity="0" result="BackgroundImageFix"/>
<feColorMatrix in="SourceAlpha" type="matrix" values="0 0 0 0 0 0 0 0 0 0 0 0 0 0 0 0 0 0 127 0" result="hardAlpha"/>
<feOffset dy="5"/>
<feGaussianBlur stdDeviation="10"/>
<feComposite in2="hardAlpha" operator="out"/>
<feColorMatrix type="matrix" values="0 0 0 0 0.784314 0 0 0 0 0.588235 0 0 0 0 0.258824 0 0 0 0.25 0"/>
<feBlend mode="normal" in2="BackgroundImageFix" result="effect1_dropShadow_1_7"/>
<feBlend mode="normal" in="SourceGraphic" in2="effect1_dropShadow_1_7" result="shape"/>
</filter>
</defs>
</svg>
