<svg width="77" height="101" viewBox="0 0 77 101" fill="none" xmlns="http://www.w3.org/2000/svg">
<g id="Frame" clip-path="url(#clip0_2934_5173)">
<g id="Group">
<path id="Vector" d="M48.2827 81.0297L50.8631 97.944H53.9497L58.75 72.7881C58.2778 72.7524 57.8071 72.7168 57.3284 72.7168H55.7819C52.7601 74.2562 49.3197 75.1361 45.6635 75.1361C42.0073 75.1361 38.5669 74.2562 35.5435 72.7168H33.9986C33.5166 72.7168 33.0492 72.7524 32.5786 72.7881L37.3741 97.944H40.4656L43.041 81.0297H43.1319L40.6019 76.3871H50.7251L48.1935 81.0297H48.2827Z" fill="white"/>
<path id="Vector_2" d="M53.9495 97.943H50.8629H40.467H37.3755L32.58 72.7871C22.783 73.5163 15.0535 81.6623 15.0535 91.633V100.811H76.2732V91.633C76.2732 81.6623 68.5452 73.5163 58.7498 72.7871L53.9495 97.943Z" fill="#CE8201"/>
<path id="Vector_3" d="M40.467 97.9436H50.8629L48.2826 81.0293H48.1933L50.725 76.3867H40.6017L43.1334 81.0293H43.0425L40.467 97.9436Z" fill="#CEB78E"/>
<path id="Vector_4" d="M36.6838 24.9535C36.9661 24.6975 37.2404 24.4641 37.4822 24.2842C38.5695 23.4691 41.9726 22.2587 42.7029 22.2036H42.7077C43.2141 22.2036 43.782 22.5374 44.4523 23.1045C44.5026 21.9265 44.4555 20.7435 44.3159 19.5606L40.5688 18.6661C40.3725 17.6841 40.095 16.707 39.7428 15.7493L42.4935 13.0431C42.156 12.3139 41.7876 11.5977 41.3721 10.8993C40.9583 10.1993 40.5088 9.53 40.0268 8.88992L36.3316 9.99345C35.6614 9.2205 34.936 8.51074 34.1651 7.86904L35.1875 4.15658C33.8649 3.21185 32.4547 2.42269 30.9811 1.79072L28.3262 4.5941C27.3687 4.26353 26.3869 4.01074 25.3921 3.83735L24.4135 0.105445C22.8151 -0.0517393 21.1987 -0.0339143 19.5905 0.163781L18.6882 3.90379C17.7048 4.09662 16.7311 4.3721 15.7703 4.72698L13.0586 1.98841C12.3364 2.31574 11.611 2.68197 10.9116 3.09842C10.2105 3.51164 9.54192 3.96212 8.90252 4.43854L10.0044 8.13479C9.23196 8.80566 8.51791 9.52676 7.87852 10.2965L4.16223 9.27883C3.21612 10.5979 2.42418 12.0028 1.79128 13.4758L4.59877 16.1285C4.26934 17.0829 4.02105 18.0649 3.84416 19.0566L0.113269 20.037C-0.045769 21.6332 -0.0311635 23.2488 0.163576 24.8579L3.91232 25.7491C4.10543 26.7344 4.38294 27.7066 4.73022 28.6692L1.99088 31.3753C2.31707 32.1045 2.68708 32.8175 3.10252 33.5127C3.52121 34.2144 3.96912 34.8852 4.44298 35.5237L8.14304 34.4234C8.81651 35.1964 9.54354 35.9077 10.3111 36.5462L9.292 40.2619C10.6114 41.2034 12.0167 41.9958 13.4919 42.6229L16.1501 39.8244C17.1108 40.1566 18.0829 40.4045 19.0858 40.5747L20.066 44.3066C20.78 44.3746 21.4989 44.4054 22.2227 44.4054L22.2162 44.2871C22.2114 35.1348 28.3181 27.4182 36.6838 24.9535ZM26.5346 29.1991C22.4921 31.5876 17.2617 30.2005 14.9411 26.0975C12.76 22.2441 14.0664 17.1737 17.8362 14.8451C21.8511 12.3626 27.0977 13.6719 29.4914 17.7036C31.851 21.6915 30.5251 26.8381 26.5346 29.1991Z" fill="#CEB78E"/>
<path id="Vector_5" d="M19.1074 53.0247V54.6759C19.1074 57.4907 21.493 59.7804 24.4238 59.7804H24.737C26.3355 65.3839 30.3066 70.0443 35.5435 72.7148C38.5668 74.2543 42.0056 75.1342 45.6634 75.1342C49.3197 75.1342 52.7601 74.2543 55.7818 72.7148C61.0187 70.0459 64.9897 65.3839 66.5882 59.7804H66.9014C69.8355 59.7804 72.2178 57.4907 72.2178 54.6759V53.0247C72.2178 50.5843 70.423 48.5474 68.0374 48.0434C68.1202 47.3126 68.1786 46.5656 68.1786 45.8088L68.1672 45.5965C68.1721 45.0569 68.1526 44.4962 68.0796 43.8934V43.8902C67.7518 40.4062 66.5395 37.1848 64.6619 34.4462C63.6931 33.0315 62.5425 31.7595 61.2589 30.6365C57.8217 27.6354 53.3654 25.7833 48.4726 25.6633L48.2243 25.4689C48.0165 25.2404 47.7829 25.1983 47.6287 25.1983C47.2603 25.1983 47.0039 25.4413 46.7962 25.639H46.728C46.3353 25.2485 45.9783 24.9098 45.6423 24.6295C44.9737 24.0591 44.4057 23.7285 43.8978 23.7285H43.8913C43.1643 23.7836 39.7612 24.9925 38.669 25.8059C38.4289 25.9842 38.1578 26.2192 37.8738 26.4752C29.5098 28.9431 23.4031 36.6565 23.4031 45.8072L23.4079 45.9287L23.4177 46.2237C23.4079 46.8394 23.4274 47.4455 23.4858 48.0418C21.0061 48.4745 19.1074 50.5211 19.1074 53.0247ZM67.4727 51.0234C68.4009 51.2681 69.0906 52.0605 69.0906 53.0263V54.6776C69.0906 55.7325 68.2727 56.601 67.2146 56.7501C67.3169 55.9383 67.3802 55.1216 67.3802 54.2854C67.3802 53.4784 67.3055 52.686 67.2033 51.9066C67.299 51.6117 67.3932 51.3184 67.4727 51.0234ZM27.3043 51.6198C27.3676 51.2163 27.4585 50.8193 27.5494 50.4255C30.1005 48.6171 33.3672 45.8023 34.6136 43.5856C34.6136 43.5856 55.2495 48.4113 62.7665 48.9671C62.9823 48.98 63.1835 48.9898 63.3815 48.993C63.6574 49.8454 63.8813 50.722 64.0242 51.623C64.1588 52.4932 64.2514 53.3796 64.2514 54.2854C64.2514 54.932 64.2108 55.572 64.141 56.2008C64.0193 57.28 63.7937 58.3252 63.4821 59.3364C61.2069 66.7256 54.0843 72.1347 45.6651 72.1347C37.2426 72.1347 30.1216 66.7256 27.8447 59.3364C27.5348 58.3252 27.3092 57.28 27.1859 56.2008C27.1177 55.5737 27.0755 54.932 27.0755 54.2854C27.0755 53.378 27.1696 52.4916 27.3043 51.6198ZM22.2346 53.0247C22.2346 51.986 23.0331 51.1369 24.0684 50.9716C24.0733 51.3735 24.0846 51.7672 24.096 52.1691C24.0116 52.8626 23.9467 53.5643 23.9467 54.2822C23.9467 55.1183 24.0132 55.935 24.1139 56.7469C23.0541 56.5994 22.2362 55.7292 22.2362 54.6743V53.0247H22.2346Z" fill="#CE8201"/>
</g>
</g>
<defs>
<clipPath id="clip0_2934_5173">
<rect width="76.2731" height="100.81" fill="white"/>
</clipPath>
</defs>
</svg>
