<svg width="120" height="56" viewBox="0 0 120 56" fill="none" xmlns="http://www.w3.org/2000/svg">
<path d="M11.2248 46.1C9.26477 46.1 7.47477 45.73 5.85477 44.99C4.25477 44.23 2.98477 43.13 2.04477 41.69C1.10477 40.25 0.634766 38.49 0.634766 36.41C0.634766 33.03 1.93477 30.43 4.53477 28.61C7.13477 26.79 11.2148 25.87 16.7748 25.85L19.9248 25.82V24.23C19.9248 23.01 19.5748 22.1 18.8748 21.5C18.1948 20.88 17.1248 20.58 15.6648 20.6C14.6248 20.62 13.5748 20.87 12.5148 21.35C11.4548 21.81 10.7048 22.67 10.2648 23.93H1.89477C2.01477 21.59 2.70477 19.68 3.96477 18.2C5.22477 16.72 6.90477 15.63 9.00477 14.93C11.1248 14.23 13.4948 13.88 16.1148 13.88C19.5148 13.88 22.2048 14.29 24.1848 15.11C26.1648 15.91 27.5748 17.04 28.4148 18.5C29.2748 19.94 29.7048 21.64 29.7048 23.6V45.5H21.2148L20.3448 40.37C19.3648 42.55 18.1348 44.05 16.6548 44.87C15.1748 45.69 13.3648 46.1 11.2248 46.1ZM14.7348 39.53C15.4148 39.53 16.0648 39.41 16.6848 39.17C17.3048 38.93 17.8548 38.6 18.3348 38.18C18.8148 37.74 19.1948 37.26 19.4748 36.74C19.7548 36.22 19.9048 35.66 19.9248 35.06V30.83L17.4048 30.86C16.3648 30.86 15.2848 31 14.1648 31.28C13.0648 31.56 12.1348 32.03 11.3748 32.69C10.6148 33.33 10.2348 34.22 10.2348 35.36C10.2348 36.66 10.6848 37.68 11.5848 38.42C12.4848 39.16 13.5348 39.53 14.7348 39.53ZM46.9407 46.1C44.3607 46.1 42.3307 45.81 40.8507 45.23C39.3907 44.65 38.3207 43.9 37.6407 42.98C36.9607 42.04 36.5307 41 36.3507 39.86C36.1907 38.72 36.1107 37.59 36.1107 36.47V0.919998H46.1007V35.15C46.1007 36.09 46.3207 36.91 46.7607 37.61C47.2007 38.29 48.1507 38.72 49.6107 38.9L50.9607 38.99V45.26C50.3207 45.48 49.6607 45.67 48.9807 45.83C48.3007 46.01 47.6207 46.1 46.9407 46.1ZM68.6363 46.1C65.5163 46.1 62.8063 45.44 60.5063 44.12C58.2063 42.78 56.4263 40.92 55.1663 38.54C53.9063 36.14 53.2763 33.35 53.2763 30.17C53.2763 26.93 53.9163 24.09 55.1963 21.65C56.4963 19.19 58.2963 17.28 60.5963 15.92C62.9163 14.56 65.6163 13.88 68.6963 13.88C71.8363 13.88 74.5463 14.57 76.8263 15.95C79.1263 17.31 80.8963 19.22 82.1363 21.68C83.3963 24.12 84.0263 26.95 84.0263 30.17C84.0263 33.27 83.4063 36.02 82.1663 38.42C80.9263 40.8 79.1563 42.68 76.8563 44.06C74.5563 45.42 71.8163 46.1 68.6363 46.1ZM68.6963 38.6C70.0763 38.6 71.1563 38.17 71.9363 37.31C72.7163 36.43 73.2663 35.32 73.5863 33.98C73.9063 32.62 74.0663 31.24 74.0663 29.84C74.0663 28.46 73.9163 27.11 73.6163 25.79C73.3163 24.47 72.7763 23.39 71.9963 22.55C71.2163 21.69 70.1163 21.26 68.6963 21.26C67.2763 21.26 66.1663 21.68 65.3663 22.52C64.5863 23.34 64.0363 24.41 63.7163 25.73C63.3963 27.03 63.2363 28.4 63.2363 29.84C63.2363 31.2 63.3863 32.56 63.6863 33.92C63.9863 35.26 64.5263 36.38 65.3063 37.28C66.1063 38.16 67.2363 38.6 68.6963 38.6ZM94.0749 55.4C91.8149 55.4 90.2049 55.2 89.2449 54.8C88.2849 54.4 87.8049 54.2 87.8049 54.2V47.72L90.8049 47.87C92.2449 47.97 93.3849 47.92 94.2249 47.72C95.0649 47.52 95.6949 47.24 96.1149 46.88C96.5349 46.54 96.8149 46.19 96.9549 45.83C97.1149 45.49 97.2149 45.25 97.2549 45.11L97.6149 43.94L85.5549 14.48H95.6349L102.295 33.02L109.105 14.48H119.095L106.765 44.69C105.545 47.63 104.285 49.87 102.985 51.41C101.685 52.97 100.295 54.02 98.8149 54.56C97.3549 55.12 95.7749 55.4 94.0749 55.4Z" fill="#CE8201"/>
</svg>
