<svg width="24" height="24" viewBox="0 0 24 24" fill="none" xmlns="http://www.w3.org/2000/svg">
<g id="ep:arrow-down-bold">
<path id="Vector" d="M2.45395 7.93918C2.73524 7.65797 3.1167 7.5 3.51445 7.5C3.9122 7.5 4.29366 7.65797 4.57495 7.93918L12 15.3642L19.4249 7.93918C19.7079 7.66594 20.0868 7.51475 20.4801 7.51817C20.8733 7.52159 21.2496 7.67934 21.5277 7.95745C21.8058 8.23556 21.9635 8.61178 21.967 9.00508C21.9704 9.39837 21.8192 9.77728 21.5459 10.0602L13.0604 18.5457C12.7792 18.8269 12.3977 18.9849 12 18.9849C11.6022 18.9849 11.2207 18.8269 10.9395 18.5457L2.45395 10.0602C2.17274 9.77889 2.01477 9.39743 2.01477 8.99968C2.01477 8.60193 2.17274 8.22047 2.45395 7.93918Z" fill="#2F2F2F"/>
</g>
</svg>
