<svg width="24" height="57" viewBox="0 0 24 57" fill="none" xmlns="http://www.w3.org/2000/svg">
<g id="ep:arrow-down-bold">
<path id="Vector" d="M2.45401 7.93918C2.7353 7.65797 3.11676 7.5 3.51451 7.5C3.91226 7.5 4.29372 7.65797 4.57501 7.93918L12 15.3642L19.425 7.93918C19.7079 7.66594 20.0868 7.51475 20.4801 7.51817C20.8734 7.52159 21.2496 7.67934 21.5277 7.95745C21.8059 8.23556 21.9636 8.61178 21.967 9.00508C21.9704 9.39837 21.8192 9.77728 21.546 10.0602L13.0605 18.5457C12.7792 18.8269 12.3978 18.9849 12 18.9849C11.6023 18.9849 11.2208 18.8269 10.9395 18.5457L2.45401 10.0602C2.1728 9.77889 2.01483 9.39743 2.01483 8.99968C2.01483 8.60193 2.1728 8.22047 2.45401 7.93918Z" fill="black"/>
</g>
</svg>
