<svg width="142" height="126" viewBox="0 0 142 126" fill="none" xmlns="http://www.w3.org/2000/svg">
<g clip-path="url(#clip0_2934_5126)">
<path d="M92.9243 93.2629L91.119 93.9018L89.2712 94.408L87.3994 94.7837L85.5044 95.0454L83.5795 95.1885L81.6378 95.2139L79.6789 95.1429L77.6992 94.9694L75.7088 94.6958L73.7087 94.3387L71.6918 93.8936L69.667 93.3681L67.6347 92.7705L65.595 92.1008L63.5528 91.3602L61.5092 90.5653L59.4604 89.7097L57.4151 88.8011L55.3689 87.8463L53.3267 86.8468L51.2853 85.8042L49.2662 84.7191L47.2486 83.6289L45.2446 82.4884L43.2456 81.3491L41.2727 80.1737L39.3048 78.9995L37.369 77.8069L35.435 76.6174L33.5385 75.4191L31.6508 74.2284L29.8153 73.0542L27.9817 71.8833L26.2013 70.7453L24.4241 69.6055L22.7162 68.5191L21.0101 67.4358L19.3793 66.4238L17.7485 65.4118L16.1842 64.4633L14.6641 63.5615L13.1935 62.716L11.7707 61.9237L10.403 61.1972L9.76045 60.8759L10.0633 61.8223L10.6672 63.7117L11.2711 65.6011L11.8746 67.4823L12.4959 69.3575L13.1209 71.239L13.7458 73.1205L14.3708 75.002L14.9958 76.8835L15.6208 78.765L16.2457 80.6466L16.8707 82.5281C17.1394 83.3412 16.6903 84.2206 15.8702 84.4944C15.0502 84.7683 14.1692 84.3299 13.9004 83.5167L13.2755 81.6352L12.6505 79.7537L12.0255 77.8722L11.4006 75.9907L10.7756 74.1092L10.1506 72.2276L9.52563 70.3461L8.89698 68.4582L8.28939 66.5624L7.68547 64.673L7.08156 62.7836L6.47533 60.8828L6.30231 60.2649L6.18291 59.6586L6.11762 59.072L6.10275 58.4988L6.14792 57.9334L6.25407 57.3922L6.42761 56.8715L6.66214 56.3751L6.94763 55.93L7.27856 55.5266L7.65493 55.1649L8.10831 54.8182L8.90921 54.3558L9.84454 53.9857L10.8241 53.7217L11.8427 53.5328L12.9045 53.4039L13.9939 53.3228L15.1035 53.2767L16.2296 53.2593L17.3568 53.2584L18.4743 53.2629L19.5702 53.2672L20.6126 53.26L22.5849 53.1915L24.201 53.0016L25.5087 52.6033C26.3352 52.3555 27.2081 52.8241 27.4512 53.652C27.6974 54.4781 27.2263 55.3489 26.3998 55.5968L24.8081 56.0656L22.8141 56.3037L20.6883 56.3802L19.5635 56.3925L18.4543 56.3874L17.345 56.3823L16.2527 56.3844L15.1861 56.4014L14.164 56.4437L13.1965 56.5139L12.3055 56.6206L11.5063 56.7678L10.8134 56.9512L10.2631 57.167L9.79268 57.4471L9.69158 57.531L9.60057 57.6175C9.89465 57.5793 10.1952 57.5969 10.4814 57.7374L11.8417 58.4215L13.2658 59.1791L14.7364 59.9949L16.2445 60.8611L17.7954 61.7791L19.3904 62.7439L21.035 63.7649L22.6795 64.786L24.3994 65.8782L26.1142 66.9692L27.8964 68.1103L29.6736 69.2502L31.5073 70.4211L33.3358 71.5907L35.2167 72.7769L37.0925 73.9617L39.0127 75.1421L40.9298 76.3244L42.8788 77.4882L44.8261 78.6487L46.7994 79.773L48.7676 80.896L50.754 81.9618L52.7455 83.0288L54.7323 84.0434L56.7218 85.0182L58.7153 85.9482L60.7028 86.8308L62.6838 87.6576L64.6563 88.4256L66.6206 89.1347L68.5709 89.7753L70.5055 90.3444L72.4263 90.845L74.3258 91.2645L76.2022 91.5996L78.0574 91.8535L79.8808 92.0153L81.6788 92.0815L83.4501 92.0568L85.184 91.9306L86.8852 91.6958L88.5542 91.3608L90.1835 90.9128L91.7828 90.3461L93.3475 89.6678L94.8703 88.8651L96.3827 87.9112L97.1143 87.3954L97.8133 86.8601L98.4689 86.3161L99.0794 85.7682L99.6401 85.2152L100.136 84.6827L101.077 83.5235L101.824 82.3831L102.419 81.2241L102.883 80.0518L103.205 78.8718L103.399 77.6685L103.479 76.4541L103.439 75.2291L103.281 73.9867L103.018 72.7327L102.747 71.819L100.983 72.1236L98.7022 72.3748L96.3854 72.468L94.0509 72.3974L91.7009 72.1744L89.3378 71.7805L87.0197 71.2205L86.3669 71.0368L85.6072 70.8086L84.7187 70.5275L83.7266 70.1999L82.6372 69.8224L81.469 69.3969L80.2438 68.9321L78.9695 68.4193L77.6663 67.8636L76.3493 67.2693L75.033 66.632L73.7378 65.9571L72.4751 65.2422L71.2562 64.485L70.1078 63.6871L69.0331 62.8466L68.0481 61.9544L67.1826 61.0102L66.4375 60.0007L65.8493 58.9006L65.488 57.8012L65.3625 57.1177L65.3209 56.4834L65.3503 55.8464L65.4508 55.2066L65.6273 54.5653L65.8699 53.9496L66.1852 53.3047L66.5308 52.6974L66.9086 52.131L67.3131 51.596L67.7542 51.095L68.2554 50.6018L69.2202 49.8239L70.324 49.1611L71.4932 48.656L72.7181 48.2843L74.0006 48.0493L75.3185 47.9423L76.666 47.9458L78.0481 48.0609L79.4497 48.2837L80.8647 48.5964L82.3018 49.0068L83.7424 49.5043L85.1859 50.0809L86.6341 50.7397L88.0701 51.4734L89.4984 52.2753L90.9108 53.1459L92.2973 54.0824L93.6554 55.0734L94.9839 56.1241L96.2676 57.2304L97.5092 58.3821L98.6992 59.585L99.8269 60.828L100.896 62.1093L101.894 63.4314L102.813 64.7864L103.654 66.1693L104.404 67.5877L104.67 68.1733L106.559 67.5755L108.474 66.839L110.326 65.9778L112.117 64.995L113.84 63.9108L115.483 62.7162L117.041 61.413L118.517 60.0176L119.891 58.5279L121.161 56.9407L122.333 55.2705L123.385 53.5204L124.315 51.6838L125.127 49.7754L125.801 47.7981L126.347 45.6951C126.567 44.863 127.42 44.366 128.257 44.5795C129.094 44.793 129.593 45.6429 129.373 46.475L128.799 48.6919L128.052 50.8899L127.156 52.9999L126.127 55.029L124.96 56.9728L123.666 58.8155L122.262 60.5645L120.742 62.2151L119.118 63.7518L117.403 65.1836L115.592 66.5009L113.699 67.6913L111.732 68.7676L109.691 69.7164L107.588 70.5273L105.782 71.0985L106.041 71.9766L106.355 73.4734L106.546 74.981L106.597 76.5056L106.5 78.023L106.254 79.5364L105.841 81.0404L105.261 82.5137L104.518 83.9574L103.592 85.3714L102.513 86.7074L101.878 87.3971L101.217 88.0504L100.509 88.6885L99.759 89.3127L98.9584 89.9236L98.09 90.5354L96.4288 91.5794L94.6923 92.4928L92.9243 93.2629ZM100.938 67.7246L100.185 66.4862L99.3545 65.2626L98.4495 64.0651L97.4681 62.8906L96.4272 61.7461L95.3304 60.6381L94.1797 59.5697L92.9883 58.5419L91.7584 57.5659L90.4953 56.6432L89.2088 55.7763L87.906 54.9699L86.5905 54.2303L85.2706 53.5569L83.9549 52.9575L82.6453 52.4353L81.3533 51.9879L80.0894 51.6261L78.8555 51.3533L77.6611 51.1637L76.52 51.0666L75.4291 51.0636L74.3993 51.1443L73.4517 51.3305L72.5652 51.6002L71.748 51.9531L71.0153 52.3931L70.304 52.9736L70.0269 53.2483L69.7334 53.5834L69.4551 53.9522L69.1933 54.3496L68.9481 54.7757L68.7245 55.2318L68.59 55.5685L68.5049 55.8725L68.4592 56.1707L68.4447 56.4636L68.4645 56.7494L68.4993 56.9799L68.7215 57.6755L69.0756 58.3332L69.5943 59.0318L70.2531 59.7513L71.0445 60.4708L71.9613 61.1858L72.9734 61.8883L74.067 62.5691L75.2321 63.2258L76.4388 63.8583L77.6734 64.4578L78.9207 65.0202L80.163 65.5516L81.3813 66.0416L82.5574 66.488L83.6816 66.8963L84.727 67.2569L85.6769 67.5705L86.5283 67.8392L87.2476 68.0567L87.7794 68.2083L89.9632 68.7354L92.104 69.092L94.2409 69.2937L96.3665 69.3575L98.4671 69.2744L100.544 69.0476L101.542 68.8748L100.938 67.7246Z" fill="url(#paint0_linear_2934_5126)"/>
</g>
<defs>
<linearGradient id="paint0_linear_2934_5126" x1="18.9966" y1="92.4083" x2="141" y2="32" gradientUnits="userSpaceOnUse">
<stop stop-color="#2F2F2F"/>
<stop offset="1" stop-color="#2F2F2F" stop-opacity="0"/>
</linearGradient>
<clipPath id="clip0_2934_5126">
<rect width="76" height="119" fill="white" transform="matrix(0.5 0.866025 0.866025 -0.5 0 59.5)"/>
</clipPath>
</defs>
</svg>
