<svg width="94" height="94" viewBox="0 0 94 94" fill="none" xmlns="http://www.w3.org/2000/svg">
<g id="user_9796790 1" clip-path="url(#clip0_2934_5184)">
<g id="Layer_2_00000165199369639009201080000008627336694244461499_">
<g id="users">
<path id="Vector" d="M94 66.2961C81.7543 85.3898 56.3449 90.9344 37.2328 78.6887C32.2391 75.4941 28.0164 71.2531 24.8219 66.2594C32.9735 57.1164 45.4395 51.2598 59.411 51.2598C70.7571 51.2598 81.1117 55.1152 88.9879 61.4676C90.7871 62.9547 92.4578 64.552 94 66.2961Z" fill="#CEB78E"/>
<path id="Vector_2" d="M77.4031 25.8133C77.4031 35.6355 69.3433 43.6035 59.4109 43.6035C49.4785 43.6035 41.4187 35.6355 41.4187 25.7949C41.4187 15.9543 49.4785 7.98633 59.4109 7.98633C59.723 7.98633 60.0351 7.98633 60.3289 8.00469C69.7656 8.50039 77.2562 16.1195 77.4031 25.5195V25.8133Z" fill="#CEB78E"/>
<g id="Group">
<path id="Vector_3" d="M69.1965 66.8641C57.1894 85.9762 31.9637 91.7227 12.8699 79.734C7.65586 76.466 3.26797 72.0598 0 66.8641C8.15156 57.6109 20.6176 51.6992 34.5891 51.6992C48.5605 51.6992 61.0449 57.6293 69.1965 66.8641Z" fill="#CE8201"/>
<path id="Vector_4" d="M34.5891 43.9883C44.5259 43.9883 52.5813 35.9329 52.5813 25.9961C52.5813 16.0593 44.5259 8.00391 34.5891 8.00391C24.6523 8.00391 16.5969 16.0593 16.5969 25.9961C16.5969 35.9329 24.6523 43.9883 34.5891 43.9883Z" fill="#CE8201"/>
</g>
</g>
</g>
</g>
<defs>
<clipPath id="clip0_2934_5184">
<rect width="94" height="94" fill="white"/>
</clipPath>
</defs>
</svg>
