<svg width="1920" height="1024" viewBox="0 0 1920 1024" fill="none" xmlns="http://www.w3.org/2000/svg">
<g clip-path="url(#clip0_1498_452)">
<rect width="1920" height="1024" fill="#EAE6D4"/>
<g clip-path="url(#clip1_1498_452)">
<path opacity="0.5" d="M959.975 1187.06C917.713 1187.06 879.471 1174.33 851.807 1153.78C824.143 1133.23 807.081 1104.88 807.081 1073.6C807.081 1042.33 824.143 1013.97 851.807 993.422C879.471 972.869 917.713 960.143 959.975 960.143C1002.24 960.143 1040.48 972.869 1068.14 993.422C1095.81 1013.97 1112.87 1042.33 1112.87 1073.6C1112.87 1104.88 1095.81 1133.23 1068.14 1153.78C1040.48 1174.33 1002.24 1187.06 959.975 1187.06Z" stroke="url(#paint0_linear_1498_452)"/>
<path opacity="0.5" d="M959.973 1254.21C892.753 1254.21 831.917 1233.96 787.896 1201.26C743.876 1168.56 716.698 1123.42 716.698 1073.6C716.698 1023.78 743.876 978.644 787.896 945.941C831.917 913.238 892.753 892.995 959.973 892.995C1027.19 892.995 1088.03 913.238 1132.05 945.941C1176.07 978.644 1203.25 1023.78 1203.25 1073.6C1203.25 1123.42 1176.07 1168.56 1132.05 1201.26C1088.03 1233.96 1027.19 1254.21 959.973 1254.21Z" stroke="url(#paint1_linear_1498_452)"/>
<path opacity="0.5" d="M959.974 1319.46C868.499 1319.46 785.703 1291.92 725.788 1247.4C665.873 1202.89 628.863 1141.44 628.863 1073.6C628.863 1005.77 665.873 944.313 725.788 899.801C785.703 855.288 868.499 827.742 959.974 827.742C1051.45 827.742 1134.24 855.288 1194.16 899.801C1254.07 944.313 1291.08 1005.77 1291.08 1073.6C1291.08 1141.44 1254.07 1202.89 1194.16 1247.4C1134.24 1291.92 1051.45 1319.46 959.974 1319.46Z" stroke="url(#paint2_linear_1498_452)"/>
<path opacity="0.5" d="M959.975 1389.44C842.487 1389.44 736.141 1354.07 659.179 1296.89C582.217 1239.71 534.664 1160.76 534.664 1073.6C534.664 986.441 582.217 907.491 659.179 850.315C736.141 793.138 842.487 757.759 959.975 757.759C1077.46 757.759 1183.81 793.138 1260.77 850.315C1337.73 907.491 1385.29 986.441 1385.29 1073.6C1385.29 1160.76 1337.73 1239.71 1260.77 1296.89C1183.81 1354.07 1077.46 1389.44 959.975 1389.44Z" stroke="url(#paint3_linear_1498_452)"/>
<path opacity="0.5" d="M959.973 1457.54C817.176 1457.54 687.917 1414.53 594.369 1345.04C500.82 1275.54 443.009 1179.56 443.009 1073.6C443.009 967.637 500.82 871.664 594.369 802.166C687.917 732.667 817.176 689.666 959.973 689.666C1102.77 689.666 1232.03 732.667 1325.58 802.166C1419.13 871.664 1476.94 967.637 1476.94 1073.6C1476.94 1179.56 1419.13 1275.54 1325.58 1345.04C1232.03 1414.53 1102.77 1457.54 959.973 1457.54Z" stroke="url(#paint4_linear_1498_452)"/>
<path opacity="0.5" d="M959.973 1525.63C791.866 1525.63 639.693 1475.01 529.559 1393.18C419.425 1311.36 351.354 1198.37 351.354 1073.6C351.354 948.835 419.425 835.839 529.559 754.018C639.694 672.197 791.866 621.575 959.973 621.575C1128.08 621.575 1280.25 672.197 1390.39 754.018C1500.52 835.839 1568.59 948.835 1568.59 1073.6C1568.59 1198.37 1500.52 1311.36 1390.39 1393.18C1280.25 1475.01 1128.08 1525.63 959.973 1525.63Z" stroke="url(#paint5_linear_1498_452)"/>
<path opacity="0.5" d="M959.974 1591.83C767.26 1591.83 592.81 1533.8 466.55 1439.99C340.291 1346.19 262.246 1216.65 262.246 1073.6C262.246 930.553 340.291 801.008 466.551 707.207C592.81 613.406 767.26 555.374 959.974 555.374C1152.69 555.374 1327.14 613.406 1453.4 707.207C1579.66 801.008 1657.7 930.553 1657.7 1073.6C1657.7 1216.65 1579.66 1346.19 1453.4 1439.99C1327.14 1533.8 1152.69 1591.83 959.974 1591.83Z" stroke="url(#paint6_linear_1498_452)"/>
<path opacity="0.5" d="M959.974 1663.7C740.544 1663.7 541.908 1597.63 398.141 1490.82C254.373 1384.01 165.5 1236.5 165.5 1073.6C165.5 910.706 254.373 763.192 398.141 656.384C541.908 549.577 740.544 483.5 959.974 483.5C1179.4 483.5 1378.04 549.577 1521.81 656.384C1665.57 763.192 1754.45 910.706 1754.45 1073.6C1754.45 1236.5 1665.57 1384.01 1521.81 1490.82C1378.04 1597.63 1179.4 1663.7 959.974 1663.7Z" stroke="url(#paint7_linear_1498_452)"/>
<g filter="url(#filter0_f_1498_452)">
<ellipse cx="960" cy="523" rx="665" ry="98" fill="#EAE6D4"/>
</g>
</g>
<g filter="url(#filter1_f_1498_452)">
<circle cx="1799" cy="308" r="154" fill="#FFC47F"/>
</g>
<g filter="url(#filter2_f_1498_452)">
<circle cx="95" cy="983" r="158" fill="#FFC47F"/>
</g>
</g>
<defs>
<filter id="filter0_f_1498_452" x="275" y="405" width="1370" height="236" filterUnits="userSpaceOnUse" color-interpolation-filters="sRGB">
<feFlood flood-opacity="0" result="BackgroundImageFix"/>
<feBlend mode="normal" in="SourceGraphic" in2="BackgroundImageFix" result="shape"/>
<feGaussianBlur stdDeviation="10" result="effect1_foregroundBlur_1498_452"/>
</filter>
<filter id="filter1_f_1498_452" x="1295" y="-196" width="1008" height="1008" filterUnits="userSpaceOnUse" color-interpolation-filters="sRGB">
<feFlood flood-opacity="0" result="BackgroundImageFix"/>
<feBlend mode="normal" in="SourceGraphic" in2="BackgroundImageFix" result="shape"/>
<feGaussianBlur stdDeviation="175" result="effect1_foregroundBlur_1498_452"/>
</filter>
<filter id="filter2_f_1498_452" x="-463" y="425" width="1116" height="1116" filterUnits="userSpaceOnUse" color-interpolation-filters="sRGB">
<feFlood flood-opacity="0" result="BackgroundImageFix"/>
<feBlend mode="normal" in="SourceGraphic" in2="BackgroundImageFix" result="shape"/>
<feGaussianBlur stdDeviation="200" result="effect1_foregroundBlur_1498_452"/>
</filter>
<linearGradient id="paint0_linear_1498_452" x1="1113.37" y1="1073.6" x2="806.581" y2="1073.6" gradientUnits="userSpaceOnUse">
<stop stop-color="#FFD165"/>
<stop offset="0.555208" stop-color="#AA731F"/>
<stop offset="1" stop-color="#FFD165"/>
</linearGradient>
<linearGradient id="paint1_linear_1498_452" x1="1203.75" y1="1073.6" x2="716.198" y2="1073.6" gradientUnits="userSpaceOnUse">
<stop stop-color="#FFD165"/>
<stop offset="0.555208" stop-color="#AA731F"/>
<stop offset="1" stop-color="#FFD165"/>
</linearGradient>
<linearGradient id="paint2_linear_1498_452" x1="1291.58" y1="1073.6" x2="628.363" y2="1073.6" gradientUnits="userSpaceOnUse">
<stop stop-color="#FFD165"/>
<stop offset="0.555208" stop-color="#AA731F"/>
<stop offset="1" stop-color="#FFD165"/>
</linearGradient>
<linearGradient id="paint3_linear_1498_452" x1="1385.79" y1="1073.6" x2="534.164" y2="1073.6" gradientUnits="userSpaceOnUse">
<stop stop-color="#FFD165"/>
<stop offset="0.555208" stop-color="#AA731F"/>
<stop offset="1" stop-color="#FFD165"/>
</linearGradient>
<linearGradient id="paint4_linear_1498_452" x1="1477.44" y1="1073.6" x2="442.509" y2="1073.6" gradientUnits="userSpaceOnUse">
<stop stop-color="#FFD165"/>
<stop offset="0.555208" stop-color="#AA731F"/>
<stop offset="1" stop-color="#FFD165"/>
</linearGradient>
<linearGradient id="paint5_linear_1498_452" x1="1569.09" y1="1073.6" x2="350.854" y2="1073.6" gradientUnits="userSpaceOnUse">
<stop stop-color="#FFD165"/>
<stop offset="0.555208" stop-color="#AA731F"/>
<stop offset="1" stop-color="#FFD165"/>
</linearGradient>
<linearGradient id="paint6_linear_1498_452" x1="1658.2" y1="1073.6" x2="261.746" y2="1073.6" gradientUnits="userSpaceOnUse">
<stop stop-color="#FFD165"/>
<stop offset="0.555208" stop-color="#AA731F"/>
<stop offset="1" stop-color="#FFD165"/>
</linearGradient>
<linearGradient id="paint7_linear_1498_452" x1="1754.95" y1="1073.6" x2="165" y2="1073.6" gradientUnits="userSpaceOnUse">
<stop stop-color="#FFD165"/>
<stop offset="0.555208" stop-color="#AA731F"/>
<stop offset="1" stop-color="#FFD165"/>
</linearGradient>
<clipPath id="clip0_1498_452">
<rect width="1920" height="1024" fill="white"/>
</clipPath>
<clipPath id="clip1_1498_452">
<rect width="1590" height="541" fill="white" transform="translate(165 483)"/>
</clipPath>
</defs>
</svg>
