<svg width="624" height="624" viewBox="0 0 624 624" fill="none" xmlns="http://www.w3.org/2000/svg">
<g clip-path="url(#clip0_2934_6677)">
<path d="M312.148 624.011C484.374 624.011 623.99 484.319 623.99 312C623.99 139.682 484.374 -0.00976562 312.148 -0.00976562C139.923 -0.00976562 0.306885 139.682 0.306885 312C0.306885 484.319 139.923 624.011 312.148 624.011Z" fill="#DEB853" fill-opacity="0.25"/>
<path d="M91.5216 363.602C91.1058 363.602 90.7684 363.264 90.7684 362.852L90.7105 322.394C90.6934 309.829 100.897 299.596 113.452 299.575C119.535 299.558 125.257 301.928 129.565 306.228C133.873 310.524 136.248 316.243 136.258 322.329L136.316 362.787C136.316 363.203 135.979 363.54 135.563 363.54L91.5216 363.602ZM113.486 301.079C113.476 301.079 113.466 301.079 113.455 301.079C101.729 301.096 92.1998 310.654 92.2168 322.387L92.2747 362.091L134.813 362.03L134.759 322.326C134.752 316.642 132.53 311.302 128.509 307.288C124.487 303.285 119.157 301.079 113.486 301.079Z" fill="#E0AA63"/>
<path d="M81.5294 363.616C81.3317 363.616 81.1409 363.537 80.9977 363.397C80.858 363.258 80.7762 363.067 80.7762 362.866L80.7183 322.408C80.7081 316.321 83.0698 310.596 87.3673 306.286C91.6614 301.976 97.38 299.599 103.463 299.589C109.547 299.558 115.269 301.942 119.576 306.242C123.884 310.538 126.259 316.256 126.27 322.343L126.327 362.801C126.327 363.002 126.249 363.193 126.109 363.333C125.97 363.472 125.779 363.554 125.578 363.554L81.5294 363.616ZM103.497 301.096C103.487 301.096 103.477 301.096 103.467 301.096C97.7855 301.103 92.4486 303.326 88.434 307.35C84.4228 311.374 82.2178 316.72 82.2246 322.404L82.2792 362.108L124.818 362.047L124.76 322.343C124.753 316.659 122.531 311.319 118.51 307.306C114.498 303.299 109.165 301.096 103.497 301.096Z" fill="#E0AA63"/>
<path d="M179.25 533.664L36.595 533.865L45.4455 351.814L169.888 351.64L179.25 533.664Z" fill="#EFBC73"/>
<path d="M45.4455 351.813L22.9187 514.647L36.595 533.865L45.4455 351.813Z" fill="#E0AA63"/>
<path d="M45.4456 351.813L22.9187 514.647L6.24683 512.014L45.4456 351.813Z" fill="#EFBC73"/>
<path d="M107.229 402.184C106.929 402.184 106.646 402.004 106.53 401.707L91.1227 362.77C88.8087 356.919 88.9075 350.515 91.4056 344.742C93.9036 338.966 98.501 334.513 104.349 332.194C116.42 327.414 130.134 333.35 134.912 345.428L150.32 384.365C150.395 384.549 150.391 384.757 150.309 384.941C150.231 385.125 150.081 385.268 149.897 385.343L107.505 402.13C107.413 402.167 107.321 402.184 107.229 402.184ZM112.988 332.044C110.293 332.044 107.556 332.542 104.901 333.592C99.428 335.761 95.1237 339.931 92.7858 345.339C90.4479 350.744 90.3525 356.738 92.52 362.214L107.648 400.452L148.639 384.218L133.511 345.98C130.09 337.329 121.771 332.044 112.988 332.044Z" fill="#776E42"/>
<path d="M97.6117 405.993C97.3118 405.993 97.0289 405.812 96.9131 405.516L81.5055 366.579C79.1915 360.728 79.2903 354.324 81.7884 348.551C84.2865 342.775 88.8838 338.321 94.732 336.003C106.803 331.222 120.513 337.159 125.295 349.236L140.702 388.173C140.777 388.357 140.774 388.565 140.692 388.75C140.614 388.934 140.464 389.077 140.28 389.152L97.8878 405.939C97.7992 405.976 97.7071 405.993 97.6117 405.993ZM103.375 335.853C100.679 335.853 97.9423 336.351 95.2875 337.401C89.8142 339.569 85.5099 343.74 83.172 349.148C80.8342 354.552 80.7387 360.547 82.9062 366.023L98.0343 404.261L139.026 388.027L123.898 349.789C120.476 341.138 112.157 335.853 103.375 335.853Z" fill="#776E42"/>
<path d="M256.53 532.604L119.228 586.98L58.6719 408.305L178.442 360.874L256.53 532.604Z" fill="#9E9569"/>
<path d="M58.6719 408.305L98.7635 573.668L119.228 586.98L58.6719 408.305Z" fill="#776E42"/>
<path d="M58.6719 408.305L98.7635 573.668L81.7133 577.463L58.6719 408.305Z" fill="#8B865C"/>
<path d="M386.03 270.585C385.822 270.585 385.618 270.499 385.471 270.332C370.111 253.157 368.731 228.026 370.278 209.971C371.948 190.477 377.299 174.799 377.35 174.642C377.486 174.25 377.912 174.042 378.308 174.175C378.699 174.311 378.907 174.738 378.774 175.133C378.563 175.75 357.843 237.175 386.596 269.326C386.872 269.637 386.848 270.111 386.538 270.39C386.388 270.523 386.207 270.585 386.03 270.585Z" fill="#363E44"/>
<path d="M410.81 235.978L480.711 256.151L623.073 166.295L565.072 74.3145L422.71 164.17L410.81 235.978ZM451.123 210.568C453.996 215.124 452.633 221.145 448.079 224.016C443.526 226.891 437.508 225.527 434.638 220.971C431.769 216.416 433.129 210.394 437.682 207.523C442.231 204.652 448.25 206.013 451.123 210.568Z" fill="#EFBC73"/>
<path d="M594.218 158.878C594.166 158.878 594.115 158.871 594.064 158.861L502.529 140.072C502.123 139.991 501.861 139.592 501.943 139.182C502.025 138.777 502.416 138.514 502.832 138.596L594.368 157.384C594.773 157.466 595.036 157.865 594.954 158.274C594.882 158.632 594.569 158.878 594.218 158.878Z" fill="#363E44"/>
<path d="M540.958 189.604C536.531 189.604 532.196 187.405 529.667 183.388C527.769 180.377 527.155 176.804 527.939 173.329C528.726 169.854 530.815 166.895 533.825 164.995C540.041 161.071 548.285 162.939 552.207 169.159C554.106 172.17 554.719 175.743 553.935 179.214C553.148 182.689 551.059 185.649 548.046 187.548C545.845 188.939 543.387 189.604 540.958 189.604ZM540.92 164.45C538.763 164.45 536.585 165.036 534.629 166.271C531.957 167.955 530.103 170.581 529.408 173.663C528.709 176.746 529.255 179.914 530.938 182.583C534.418 188.101 541.731 189.754 547.245 186.276C549.917 184.592 551.771 181.966 552.466 178.884C553.165 175.801 552.62 172.634 550.936 169.964C548.69 166.404 544.846 164.45 540.92 164.45Z" fill="#363E44"/>
<path d="M555.462 134.058C551.035 134.058 546.7 131.859 544.171 127.842C542.273 124.831 541.66 121.257 542.443 117.786C543.231 114.312 545.32 111.352 548.329 109.452C554.545 105.528 562.789 107.396 566.712 113.616C568.61 116.627 569.223 120.2 568.44 123.672C567.652 127.146 565.563 130.106 562.551 132.005C560.349 133.396 557.892 134.058 555.462 134.058ZM555.421 108.904C553.264 108.904 551.086 109.49 549.13 110.724C546.458 112.409 544.604 115.034 543.909 118.117C543.21 121.199 543.755 124.367 545.439 127.037C548.919 132.554 556.232 134.208 561.746 130.73C564.418 129.045 566.272 126.42 566.967 123.337C567.666 120.255 567.121 117.087 565.437 114.417C563.195 110.857 559.347 108.904 555.421 108.904Z" fill="#363E44"/>
<path d="M378.965 211.383L451.358 204.164L550.227 67.873L462.25 3.99316L363.381 140.284L378.965 211.383ZM406.976 172.821C411.331 175.985 412.299 182.082 409.14 186.44C405.977 190.798 399.884 191.766 395.528 188.605C391.173 185.444 390.205 179.344 393.364 174.986C396.523 170.628 402.62 169.657 406.976 172.821Z" fill="#D87355"/>
<path d="M428.432 88.2878C428.075 88.2878 427.758 88.032 427.693 87.6672C427.618 87.258 427.891 86.8659 428.299 86.7943L520.271 70.2566C520.68 70.1815 521.072 70.4543 521.143 70.8635C521.218 71.2727 520.946 71.6648 520.537 71.7364L428.565 88.2741C428.521 88.2844 428.477 88.2878 428.432 88.2878Z" fill="white"/>
<path d="M477.63 120.968C474.842 120.968 472.133 120.092 469.833 118.425C466.953 116.334 465.058 113.245 464.499 109.726C463.94 106.207 464.785 102.685 466.874 99.8035C468.964 96.9221 472.051 95.0263 475.568 94.4671C479.082 93.9079 482.606 94.7535 485.486 96.8437C488.365 98.9339 490.26 102.023 490.819 105.542C491.378 109.061 490.533 112.584 488.444 115.465C486.355 118.346 483.267 120.242 479.75 120.801C479.041 120.914 478.332 120.968 477.63 120.968ZM477.685 95.8037C477.061 95.8037 476.43 95.8515 475.803 95.9537C472.685 96.4482 469.945 98.1292 468.091 100.687C466.237 103.244 465.487 106.371 465.982 109.491C466.479 112.611 468.156 115.352 470.712 117.207C473.268 119.062 476.396 119.812 479.511 119.315C482.63 118.82 485.37 117.139 487.224 114.582C489.078 112.024 489.827 108.897 489.333 105.777C488.836 102.657 487.159 99.916 484.603 98.061C482.561 96.5777 480.159 95.8037 477.685 95.8037Z" fill="white"/>
<path d="M470.507 63.9964C467.795 63.9964 465.058 63.1713 462.696 61.4595C459.817 59.3693 457.922 56.28 457.363 52.761C456.804 49.2455 457.649 45.7197 459.738 42.8384C464.056 36.8882 472.406 35.5618 478.353 39.8787C481.232 41.9689 483.127 45.0582 483.686 48.5772C484.245 52.0961 483.4 55.6185 481.311 58.4998C478.707 62.0903 474.635 63.9964 470.507 63.9964ZM460.958 43.7216C459.104 46.2789 458.355 49.4057 458.852 52.5257C459.346 55.6458 461.026 58.3873 463.582 60.2422C468.858 64.0715 476.267 62.8951 480.094 57.6166C481.948 55.0593 482.698 51.9324 482.204 48.8124C481.706 45.6924 480.026 42.9509 477.473 41.096C472.194 37.2667 464.785 38.4431 460.958 43.7216Z" fill="white"/>
<path d="M377.094 279.965C376.822 279.965 376.563 279.818 376.426 279.563C376.235 279.194 376.375 278.741 376.743 278.546C400.272 266.227 411.273 244.557 409.44 214.135C408.07 191.367 399.618 172.016 399.533 171.822C399.366 171.443 399.536 170.997 399.918 170.83C400.303 170.663 400.742 170.833 400.909 171.215C400.995 171.409 409.552 191.013 410.939 214.046C412.783 244.673 401.199 267.437 377.439 279.88C377.333 279.938 377.214 279.965 377.094 279.965Z" fill="#363E44"/>
<path d="M393.507 282.826C393.231 282.826 392.969 282.676 392.836 282.413C392.648 282.041 392.798 281.588 393.166 281.4C436.336 259.557 443.162 206.531 443.226 205.995C443.278 205.583 443.635 205.289 444.065 205.337C444.477 205.385 444.77 205.76 444.723 206.173C444.706 206.309 443.022 219.894 435.947 236.022C429.41 250.927 416.797 271.13 393.845 282.74C393.736 282.798 393.62 282.826 393.507 282.826Z" fill="#363E44"/>
<path d="M338.611 130.454L89.4804 285.018L11.4714 158.432L260.602 3.86719L338.611 130.454Z" fill="#D3BBA3"/>
<path d="M327.893 128.214L78.7621 282.778L0.753174 156.191L249.884 1.62695L327.893 128.214Z" fill="white"/>
<path d="M78.7622 283.532C78.7042 283.532 78.6463 283.525 78.5884 283.512C78.3941 283.467 78.2271 283.345 78.1215 283.174L0.112536 156.587C-0.105575 156.233 0.00348028 155.772 0.357911 155.554L249.489 0.986259C249.659 0.880554 249.864 0.846455 250.058 0.894193C250.252 0.938521 250.419 1.06128 250.525 1.23177L328.534 127.819C328.752 128.173 328.643 128.633 328.289 128.852L79.1575 283.42C79.0382 283.495 78.9019 283.532 78.7622 283.532ZM1.78586 156.437L79.0042 281.742L326.861 127.969L249.639 2.6639L1.78586 156.437Z" fill="#D3BBA3"/>
<path d="M235.24 129.646C235.042 129.646 234.848 129.571 234.702 129.421L208.003 102.211L199.32 107.704C198.969 107.926 198.505 107.82 198.28 107.469C198.059 107.117 198.165 106.654 198.516 106.429L207.714 100.612C208.014 100.424 208.402 100.468 208.651 100.721L235.315 127.897L265.861 105.232L253.395 84.9979L243.828 90.931C243.474 91.1492 243.01 91.0401 242.792 90.6889C242.574 90.3343 242.683 89.8705 243.034 89.6523L253.241 83.3202C253.412 83.2145 253.616 83.1804 253.81 83.2282C254.005 83.2725 254.172 83.3953 254.277 83.5658L267.5 105.031C267.705 105.365 267.623 105.798 267.309 106.03L235.683 129.496C235.554 129.599 235.397 129.646 235.24 129.646Z" fill="#363E44"/>
<path d="M214.796 108.808C214.543 108.808 214.298 108.682 214.155 108.454C213.937 108.099 214.046 107.635 214.397 107.417L224.951 100.87C225.306 100.652 225.769 100.761 225.987 101.112C226.206 101.467 226.097 101.931 225.746 102.149L215.191 108.696C215.068 108.771 214.929 108.808 214.796 108.808Z" fill="#363E44"/>
<path d="M238.144 147.129C237.598 147.129 237.05 147.064 236.508 146.938C234.664 146.502 233.1 145.373 232.105 143.757C230.053 140.425 231.086 136.04 234.405 133.981C236.014 132.985 237.912 132.675 239.752 133.108C241.596 133.544 243.16 134.673 244.155 136.289C246.207 139.62 245.174 144.005 241.855 146.065C240.72 146.767 239.442 147.129 238.144 147.129ZM238.12 134.424C237.097 134.424 236.092 134.707 235.199 135.263C232.582 136.886 231.767 140.343 233.386 142.969C234.17 144.241 235.4 145.131 236.852 145.475C238.297 145.816 239.797 145.574 241.061 144.79C243.678 143.167 244.493 139.709 242.874 137.084C242.09 135.812 240.86 134.922 239.408 134.577C238.979 134.472 238.546 134.424 238.12 134.424Z" fill="#363E44"/>
<path d="M277.029 123.011C276.484 123.011 275.935 122.946 275.393 122.82C273.549 122.383 271.985 121.255 270.99 119.638C268.938 116.307 269.971 111.922 273.29 109.862C274.899 108.867 276.794 108.556 278.638 108.989C280.481 109.426 282.046 110.555 283.041 112.171C285.092 115.502 284.06 119.887 280.74 121.947C279.609 122.649 278.327 123.011 277.029 123.011ZM277.005 110.302C275.983 110.302 274.977 110.585 274.084 111.141C271.467 112.764 270.653 116.222 272.271 118.847C273.055 120.119 274.286 121.009 275.737 121.354C277.186 121.695 278.682 121.452 279.946 120.665C282.564 119.042 283.378 115.584 281.759 112.959C280.975 111.687 279.745 110.797 278.293 110.452C277.867 110.353 277.435 110.302 277.005 110.302Z" fill="#363E44"/>
<path d="M243.491 137.397C243.239 137.397 242.993 137.271 242.85 137.039C242.632 136.684 242.741 136.22 243.092 136.002L271.167 118.588C271.522 118.37 271.985 118.479 272.203 118.83C272.421 119.185 272.312 119.649 271.961 119.867L243.886 137.281C243.764 137.363 243.627 137.397 243.491 137.397Z" fill="#363E44"/>
<path d="M236.525 134.631C236.191 134.631 235.884 134.406 235.799 134.069L234.511 129.083C234.405 128.681 234.647 128.272 235.049 128.166C235.451 128.064 235.86 128.303 235.966 128.705L237.254 133.69C237.36 134.093 237.118 134.502 236.716 134.607C236.651 134.621 236.59 134.631 236.525 134.631Z" fill="#363E44"/>
<path d="M233.502 70.9053L220.266 49.4199L200.131 61.9067L213.368 83.3921L208.044 86.6963L232.902 92.5134L238.829 67.6012L233.502 70.9053Z" fill="#E6D0BE"/>
<path d="M229.927 92.5608C229.869 92.5608 229.811 92.554 229.757 92.5404L204.899 86.7198C204.602 86.6516 204.377 86.4095 204.326 86.1094C204.279 85.8093 204.415 85.5093 204.674 85.349L209.36 82.4438L196.515 61.5961C196.297 61.2415 196.406 60.7812 196.76 60.5629L216.895 48.0761C217.065 47.9704 217.27 47.9363 217.464 47.984C217.658 48.0284 217.825 48.1511 217.931 48.3216L230.772 69.1659L235.455 66.2608C235.714 66.1005 236.044 66.1107 236.293 66.2914C236.539 66.4688 236.654 66.7791 236.586 67.0757L230.663 91.988C230.575 92.3289 230.268 92.5608 229.927 92.5608ZM207.012 85.673L229.372 90.9071L234.702 68.501L230.929 70.8402C230.759 70.9459 230.554 70.98 230.36 70.9322C230.166 70.8879 229.999 70.7651 229.893 70.5947L217.052 49.7503L198.195 61.4461L211.04 82.2938C211.258 82.6484 211.149 83.1088 210.795 83.327L207.012 85.673Z" fill="#BC8271"/>
<path d="M217.512 84.6163C217.454 84.6163 217.396 84.6095 217.338 84.5958C216.933 84.5004 216.684 84.0946 216.779 83.6922L221.414 63.98C221.509 63.5742 221.915 63.3253 222.321 63.4208C222.726 63.5162 222.975 63.922 222.879 64.3244L218.245 84.0366C218.163 84.3844 217.853 84.6163 217.512 84.6163Z" fill="#BC8271"/>
<path d="M214.329 75.9483C214.076 75.9483 213.828 75.9176 213.576 75.8596C212.73 75.6585 212.011 75.1402 211.555 74.4002C210.614 72.8692 211.088 70.8574 212.611 69.9129C213.351 69.456 214.223 69.3128 215.068 69.5105C215.913 69.7117 216.632 70.23 217.089 70.9699C218.03 72.4976 217.556 74.5128 216.033 75.4573C215.511 75.7812 214.925 75.9483 214.329 75.9483ZM214.318 70.929C213.998 70.929 213.685 71.0177 213.405 71.1916C212.584 71.6996 212.328 72.7874 212.836 73.6092C213.081 74.0081 213.466 74.2877 213.923 74.3934C214.376 74.4991 214.843 74.4241 215.242 74.1786C216.063 73.6705 216.319 72.5828 215.811 71.761C215.566 71.3621 215.181 71.0825 214.724 70.9768C214.588 70.9427 214.451 70.929 214.318 70.929Z" fill="#BC8271"/>
<path d="M225.391 78.5674C225.139 78.5674 224.89 78.5368 224.638 78.4788C223.793 78.2776 223.073 77.7593 222.617 77.0194C221.676 75.4884 222.15 73.4766 223.673 72.532C224.413 72.0751 225.285 71.9319 226.13 72.1297C226.976 72.3309 227.695 72.8492 228.151 73.5891C229.092 75.1167 228.618 77.1319 227.095 78.0764C226.574 78.4004 225.987 78.5674 225.391 78.5674ZM225.381 73.5482C225.06 73.5482 224.747 73.6368 224.464 73.8107C223.643 74.3188 223.387 75.4065 223.895 76.2283C224.14 76.6273 224.525 76.9069 224.982 77.0126C225.435 77.1183 225.902 77.0433 226.301 76.7977C227.122 76.2897 227.378 75.2053 226.87 74.3802C226.625 73.9812 226.24 73.7016 225.783 73.5959C225.65 73.5618 225.514 73.5482 225.381 73.5482Z" fill="#BC8271"/>
<path d="M80.6367 232.16L86.5019 228.521L87.8719 230.748L79.2462 236.098L70.958 222.646L73.7185 220.935L80.6367 232.16Z" fill="#CE8201"/>
<path d="M95.9249 216.88C96.7394 218.203 97.2233 219.509 97.3699 220.798C97.5164 222.084 97.3256 223.27 96.7905 224.351C96.2555 225.432 95.4273 226.322 94.3027 227.018C93.1917 227.707 92.0364 228.054 90.8334 228.058C89.6303 228.061 88.4853 227.717 87.3947 227.018C86.3041 226.319 85.3567 225.327 84.5524 224.038L84.1435 223.373C83.329 222.05 82.8484 220.737 82.7019 219.434C82.5553 218.132 82.753 216.942 83.2881 215.864C83.8231 214.787 84.6513 213.9 85.7691 213.208C86.8869 212.516 88.0456 212.168 89.2452 212.168C90.4448 212.168 91.5933 212.523 92.6907 213.235C93.7881 213.948 94.7389 214.961 95.5534 216.28L95.9249 216.88ZM92.7486 218.006C91.8796 216.594 90.9663 215.68 90.012 215.261C89.0578 214.841 88.1138 214.92 87.18 215.499C86.253 216.076 85.7623 216.88 85.7043 217.914C85.6464 218.95 86.0451 220.167 86.9005 221.569L87.3061 222.224C88.1513 223.598 89.0612 224.505 90.0325 224.951C91.0003 225.398 91.958 225.327 92.9054 224.74C93.8324 224.164 94.3197 223.359 94.3674 222.319C94.4152 221.279 94.013 220.062 93.1576 218.66L92.7486 218.006Z" fill="#CE8201"/>
<path d="M101.558 212.045L100.614 204.254L103.634 202.382L104.513 213.685L107.519 218.561L104.711 220.304L101.705 215.428L92.0227 209.583L95.0524 207.705L101.558 212.045Z" fill="#CE8201"/>
<path d="M117.627 208.465L112.784 211.469L113.572 214.811L110.634 216.632L107.338 200.087L109.898 198.498L123.203 208.837L120.265 210.658L117.627 208.465ZM112.147 208.758L115.497 206.678L110.712 202.689L112.147 208.758Z" fill="#CE8201"/>
<path d="M125.844 204.121L131.709 200.482L133.079 202.709L124.453 208.059L116.165 194.607L118.926 192.896L125.844 204.121Z" fill="#CE8201"/>
<path d="M135.962 185.435L131.855 187.982L138.76 199.187L135.996 200.899L129.092 189.694L125.039 192.207L123.656 189.963L134.575 183.191L135.962 185.435Z" fill="#CE8201"/>
<path d="M144.656 185.316L143.712 177.524L146.731 175.652L147.611 186.956L150.617 191.832L147.808 193.574L144.802 188.698L135.12 182.854L138.15 180.975L144.656 185.316Z" fill="#CE8201"/>
<path d="M168.703 174.421C169.49 175.932 169.66 177.401 169.211 178.83C168.764 180.259 167.752 181.459 166.181 182.434C164.463 183.502 162.752 183.757 161.052 183.208C159.351 182.659 157.879 181.371 156.628 179.345L156.12 178.523C155.323 177.231 154.849 175.949 154.696 174.684C154.543 173.419 154.727 172.259 155.245 171.209C155.763 170.159 156.584 169.289 157.698 168.594C159.246 167.636 160.748 167.278 162.204 167.523C163.662 167.769 164.927 168.597 166 170.009L163.236 171.721C162.633 170.892 162.006 170.415 161.348 170.278C160.694 170.145 159.941 170.34 159.096 170.865C158.175 171.434 157.688 172.195 157.64 173.139C157.593 174.084 157.991 175.257 158.833 176.658L159.46 177.674C160.357 179.127 161.229 180.054 162.081 180.453C162.933 180.852 163.833 180.76 164.777 180.174C165.629 179.645 166.147 179.055 166.324 178.401C166.505 177.749 166.372 176.992 165.929 176.136L168.703 174.421Z" fill="#CE8201"/>
<path d="M179.138 170.312L174.295 173.316L175.082 176.657L172.145 178.478L168.849 161.934L171.409 160.345L184.713 170.683L181.776 172.504L179.138 170.312ZM173.658 170.608L177.008 168.528L172.223 164.539L173.658 170.608Z" fill="#CE8201"/>
<path d="M187.893 161.907L185.691 163.271L188.725 168.194L185.964 169.906L177.676 156.454L182.655 153.365C184.24 152.383 185.678 151.981 186.973 152.155C188.268 152.328 189.314 153.065 190.112 154.357C190.677 155.275 190.95 156.165 190.933 157.02C190.916 157.88 190.616 158.739 190.037 159.602L196.324 163.301L196.403 163.431L193.438 165.269L187.893 161.907ZM184.308 161.027L186.537 159.646C187.228 159.216 187.658 158.705 187.821 158.115C187.985 157.525 187.873 156.918 187.491 156.298C187.102 155.663 186.612 155.275 186.029 155.135C185.446 154.995 184.781 155.155 184.039 155.616L181.82 156.993L184.308 161.027Z" fill="#CE8201"/>
<path d="M197.994 162.446L189.706 148.994L193.83 146.436C195.009 145.707 196.226 145.318 197.486 145.274C198.744 145.229 199.937 145.536 201.065 146.194C202.193 146.852 203.14 147.807 203.911 149.059L204.292 149.679C205.062 150.931 205.492 152.199 205.577 153.491C205.666 154.784 205.407 155.984 204.803 157.099C204.2 158.214 203.314 159.138 202.145 159.871L197.994 162.446ZM193.854 149.526L199.385 158.504L200.721 157.675C201.801 157.007 202.408 156.137 202.544 155.077C202.677 154.017 202.346 152.82 201.545 151.497L201.106 150.784C200.264 149.417 199.344 148.557 198.345 148.199C197.347 147.845 196.304 148.005 195.217 148.677L193.854 149.526Z" fill="#CE8201"/>
<path d="M61.3986 190.614C60.0251 190.614 58.6415 190.454 57.2681 190.13C52.6127 189.032 48.6663 186.178 46.1546 182.1C40.971 173.688 43.5782 162.609 51.9618 157.409L150.804 96.1035C154.866 93.5837 159.661 92.8028 164.306 93.9008C168.962 94.9988 172.908 97.8528 175.423 101.931C180.607 110.343 178 121.418 169.616 126.618L70.7671 187.927C67.9078 189.7 64.6805 190.614 61.3986 190.614ZM47.436 181.309C49.7398 185.046 53.3523 187.658 57.6157 188.664C61.8689 189.666 66.2584 188.95 69.9765 186.645L168.825 125.336C176.507 120.573 178.892 110.425 174.145 102.719C171.841 98.9814 168.225 96.3695 163.965 95.3636C159.712 94.3577 155.319 95.0772 151.601 97.3822L52.7559 158.688C45.0709 163.455 42.6853 173.602 47.436 181.309Z" fill="#D3BBA3"/>
<path d="M151.513 112.594L146.544 116.621L152.753 118.128L155.037 124.115L158.387 118.656L164.766 118.329L160.626 113.446L162.285 107.254L156.379 109.699L151.022 106.2L151.513 112.594Z" fill="#CE8201"/>
<path d="M129.037 126.533L124.068 130.563L130.277 132.07L132.561 138.058L135.907 132.595L142.291 132.268L138.15 127.385L139.81 121.196L133.904 123.638L128.546 120.143L129.037 126.533Z" fill="#CE8201"/>
<path d="M106.561 140.475L101.593 144.502L107.802 146.01L110.085 151.997L113.432 146.538L119.815 146.211L115.671 141.328L117.334 135.136L111.425 137.581L106.071 134.082L106.561 140.475Z" fill="#CE8201"/>
<path d="M84.0855 154.415L79.1133 158.445L85.326 159.952L87.6094 165.94L90.9561 160.478L97.3358 160.15L93.1951 155.267L94.8582 149.079L88.9487 151.52L83.5948 148.021L84.0855 154.415Z" fill="#CE8201"/>
<path d="M61.61 168.355L56.6377 172.385L62.8505 173.892L65.1304 179.88L68.4805 174.421L74.8602 174.09L70.7195 169.211L72.3792 163.018L66.4732 165.463L61.1192 161.965L61.61 168.355Z" fill="#CE8201"/>
<path d="M551.137 443.187C550.722 443.187 550.384 442.85 550.384 442.437C550.302 391.924 565.267 348.346 577.836 320.689C591.454 290.717 605.287 272.433 605.427 272.252C605.679 271.922 606.149 271.857 606.48 272.109C606.81 272.361 606.875 272.832 606.623 273.163C606.486 273.343 592.739 291.521 579.188 321.35C566.691 348.864 551.809 392.207 551.89 442.434C551.89 442.85 551.553 443.187 551.137 443.187Z" fill="#DEB853"/>
<path d="M597.663 285.128C597.663 285.128 593.884 268.924 620.827 250.565C620.827 250.565 620.97 282.662 597.663 285.128Z" fill="#DEB853"/>
<path d="M589.975 294.6C590.329 294.798 594.794 278.925 578.759 261.051C578.759 261.051 576.745 287.228 589.975 294.6Z" fill="#DEB853"/>
<path d="M581.206 309.525C581.206 309.525 581.001 295.289 559.187 280.852C559.187 280.852 568.832 309.743 581.206 309.525Z" fill="#DEB853"/>
<path d="M573.357 327.959C573.763 327.928 568.729 312.229 545.494 306.177C545.494 306.18 558.253 329.122 573.357 327.959Z" fill="#DEB853"/>
<path d="M567.683 342.181C567.683 342.181 559.892 332.091 536.5 333.359C536.5 333.356 558.924 348.922 567.683 342.181Z" fill="#DEB853"/>
<path d="M561.256 362.046C561.256 362.046 551.638 356.474 533.17 365.224C533.17 365.224 556.409 370.383 561.256 362.046Z" fill="#DEB853"/>
<path d="M592.309 296.792C592.002 296.605 602.267 286.201 623.073 290.726C623.07 290.726 603.791 303.758 592.309 296.792Z" fill="#DEB853"/>
<path d="M585.132 311.84C585.132 311.84 597.602 304.976 620.933 316.805C620.933 316.801 591.062 322.71 585.132 311.84Z" fill="#DEB853"/>
<path d="M577.263 331.296C577.089 330.928 593.219 327.542 609.963 344.752C609.966 344.752 583.724 345.004 577.263 331.296Z" fill="#DEB853"/>
<path d="M571.289 344.708C571.289 344.708 583.905 346.491 594.374 367.458C594.374 367.458 569.762 355.657 571.289 344.708Z" fill="#DEB853"/>
<path d="M564.65 363.693C564.65 363.693 574.247 369.299 575.78 389.687C575.777 389.687 559.804 372.03 564.65 363.693Z" fill="#DEB853"/>
<path d="M501.725 398.941C501.64 398.941 501.554 398.927 501.473 398.896C501.081 398.757 500.876 398.327 501.016 397.935C523.829 333.864 504.7 272.722 504.502 272.112C504.376 271.716 504.594 271.294 504.99 271.164C505.385 271.038 505.808 271.253 505.937 271.652C506.135 272.265 525.424 333.874 502.434 398.443C502.325 398.75 502.035 398.941 501.725 398.941Z" fill="white"/>
<path d="M507.863 282.154C507.863 282.154 514.218 272.231 500.569 253.597C500.573 253.597 492.888 274.99 507.863 282.154Z" fill="white"/>
<path d="M510.756 290.297C510.473 290.344 511.243 278.693 526.177 270.554C526.177 270.554 521.334 288.506 510.756 290.297Z" fill="white"/>
<path d="M513.08 302.337C513.08 302.337 516.584 292.881 534.561 288.404C534.564 288.404 521.293 305.413 513.08 302.337Z" fill="white"/>
<path d="M513.963 316.501C513.7 316.386 520.772 307.094 537.717 308.557C537.717 308.557 523.771 320.852 513.963 316.501Z" fill="white"/>
<path d="M514.389 327.338C514.389 327.338 521.975 322.445 537.294 328.828C537.294 328.832 518.642 333.916 514.389 327.338Z" fill="white"/>
<path d="M513.98 342.123C513.98 342.123 521.719 340.68 531.981 350.893C531.981 350.893 515.244 348.837 513.98 342.123Z" fill="white"/>
<path d="M508.68 291.207C508.929 291.156 504.536 281.779 489.579 279.876C489.575 279.876 499.366 293.14 508.68 291.207Z" fill="white"/>
<path d="M509.914 302.951C509.914 302.951 503.211 295.418 484.838 297.792C484.838 297.792 503.381 308.805 509.914 302.951Z" fill="white"/>
<path d="M510.565 317.807C510.766 317.602 500.801 311.523 485.55 319.048C485.55 319.048 503.01 325.428 510.565 317.807Z" fill="white"/>
<path d="M511.383 328.173C511.383 328.173 502.539 326.376 490.591 337.898C490.587 337.898 509.812 335.845 511.383 328.173Z" fill="white"/>
<path d="M511.325 342.42C511.325 342.42 503.592 343.893 497.748 357.14C497.748 357.14 512.589 349.134 511.325 342.42Z" fill="white"/>
<path d="M567.557 403.889L369 487.852L394.84 549.022L409.596 559.381L407.504 578.997L418.788 605.7L617.341 521.739L606.06 495.037L592.187 485.121L593.396 465.058L567.557 403.889Z" fill="white"/>
<path d="M421.596 601.195L421.303 600.503L371.222 481.96L371.914 481.667L571.163 397.413L571.456 398.105L621.536 516.648L620.844 516.941L421.596 601.195ZM373.196 482.758L422.397 599.221L619.566 515.847L570.365 399.384L373.196 482.758Z" fill="#363E44"/>
<path d="M593.393 465.044L394.841 549.007L407.505 578.986L606.056 495.023L593.393 465.044Z" fill="#40484C"/>
<path d="M300.19 621.634L306.314 576.706L314.503 620.867H444.355L386.548 410.207L213.003 440.463L176.248 621.634H300.19Z" fill="#363E44"/>
<path d="M154.863 291.849C135.904 312.71 54.8346 394.781 82.0815 421.654C102.233 441.53 182.818 373.49 202.987 353.996C189.215 339.102 168.638 306.743 154.863 291.849Z" fill="#9D6C5B"/>
<path d="M425.198 282.55C444.157 303.411 525.226 385.483 497.979 412.355C477.828 432.231 397.242 364.192 377.074 344.697C390.849 329.803 411.423 297.441 425.198 282.55Z" fill="#9D6C5B"/>
<path d="M481.454 329.568C481.454 329.568 416.995 238.331 295.701 238.352C205.512 238.365 122.132 314.561 122.132 314.561L194.508 365.378L201.092 359.046L193.956 478.128L418.672 481.797L416.389 374.189L481.454 329.568Z" fill="#D3BBA3"/>
<path d="M197.94 363.809L180.276 382.212L109.867 321.797L127.05 305.757L197.94 363.809Z" fill="white"/>
<path d="M401.673 361.713L419.728 385.357L487.036 327.458L465.965 307.646L401.673 361.713Z" fill="white"/>
<path d="M417.353 383.266C417.125 383.266 416.9 383.164 416.753 382.97L373.226 325.579C372.974 325.248 373.039 324.774 373.37 324.525C373.7 324.273 374.174 324.341 374.423 324.668L417.949 382.059C418.202 382.39 418.137 382.864 417.806 383.113C417.67 383.215 417.51 383.266 417.353 383.266Z" fill="#363E44"/>
<path d="M395.289 339.638H217.539V496.855H395.289V339.638Z" fill="#CE8201" fill-opacity="0.71"/>
<path d="M401.673 323.543H211.486V340.742H401.673V323.543Z" fill="#CE8201" fill-opacity="0.71"/>
<path d="M391.946 342.123H221.925C221.509 342.123 221.172 341.786 221.172 341.37C221.172 340.954 221.509 340.616 221.925 340.616H391.946C392.362 340.616 392.7 340.954 392.7 341.37C392.7 341.786 392.362 342.123 391.946 342.123Z" fill="#363E44"/>
<path d="M316.18 323.543H296.979V496.855H316.18V323.543Z" fill="white"/>
<path d="M359.151 281.179L307.711 321.04L310.1 325.892L379.258 313.623L359.151 281.179ZM310.097 322.417L352.161 298.804L354.492 304.785L310.097 322.417Z" fill="white"/>
<path d="M226.666 308.014L307.489 328.289L310.717 322.745L253.156 271.287L226.666 308.014ZM256.707 299.613L259.962 292.728L307.779 324.174L256.707 299.613Z" fill="white"/>
<path d="M133.29 392.033C156.839 405.499 213.865 434.458 219.318 437.507C229.515 443.208 282.482 469.45 275.437 479.318C272.115 483.973 248.15 470.514 242.785 467.541C248.238 471.943 273.832 488.214 269.068 493.905C264.164 499.76 234.449 479.298 234.139 479.25C237.009 481.62 259.699 497.172 254.979 503.763C250.436 510.109 229.027 490.642 225.326 489.057C228.584 492.528 243.239 503.589 240.27 507.722C236.293 513.26 217.917 498.168 214.448 497.124C205.386 492.068 189.972 486.496 171.94 478.708C129.592 460.414 111.479 450.481 92.619 437.936C85.3054 433.071 73.875 420.713 76.9184 401.407C95.8566 398.222 114.355 395.225 133.29 392.033Z" fill="#9D6C5B"/>
<path d="M149.049 401.41C148.926 401.41 148.8 401.38 148.684 401.315C145.961 399.801 141.578 397.424 137.71 395.331C134.197 393.424 131.163 391.781 130.052 391.15C129.691 390.945 129.562 390.485 129.77 390.124C129.974 389.762 130.434 389.633 130.795 389.841C131.896 390.465 134.926 392.105 138.433 394.007C142.301 396.105 146.687 398.485 149.417 400.002C149.781 400.203 149.911 400.663 149.71 401.025C149.57 401.27 149.314 401.41 149.049 401.41Z" fill="#363E44"/>
<path d="M456.531 369.552C429.492 371.686 365.565 373.555 359.332 373.988C347.68 374.793 288.582 375.938 290.753 387.869C291.775 393.496 319.189 391.545 325.307 391.146C318.501 392.8 288.412 396.602 290.296 403.783C292.235 411.172 327.835 405.338 328.139 405.427C324.533 406.344 297.381 410.736 298.84 418.708C300.244 426.387 327.907 417.91 331.928 418.057C327.501 419.806 309.531 423.56 310.454 428.566C311.692 435.273 334.747 429.459 338.328 429.995C348.682 429.285 364.999 430.823 384.626 431.468C430.726 432.985 451.348 431.727 473.748 428.426C482.439 427.147 497.482 422.046 502.958 403.285C487.196 392.319 472.3 380.514 456.531 369.552Z" fill="#9D6C5B"/>
<path d="M437.174 371.103C436.782 371.103 436.451 370.8 436.424 370.401C436.397 369.985 436.71 369.627 437.126 369.6C440.48 369.378 450.274 368.996 458.92 368.659C465.426 368.406 471.046 368.185 472.198 368.099C472.617 368.072 472.971 368.379 473.002 368.795C473.033 369.211 472.723 369.569 472.307 369.603C471.131 369.692 465.498 369.91 458.978 370.166C450.346 370.503 440.561 370.885 437.228 371.107C437.208 371.1 437.191 371.103 437.174 371.103Z" fill="#363E44"/>
<path d="M274.673 184.597L336.53 190.422L341.077 142.09L279.219 136.265L274.673 184.597Z" fill="#363E44"/>
<path d="M304.947 265.548L282.73 238.867L284.84 204.662L325.143 202.753L326.861 240.629L304.947 265.548Z" fill="#9D6C5B"/>
<path d="M337.79 179.109C336.979 196.308 326.765 223.106 304.572 222.059C282.379 221.012 274.729 193.375 275.536 176.176C276.347 158.977 291.077 150.207 308.267 151.015C325.456 151.823 338.598 161.91 337.79 179.109Z" fill="#9D6C5B"/>
<path d="M278.467 199.078C282.999 197.317 284.532 190.376 281.892 183.576C279.251 176.776 273.437 172.691 268.906 174.452C264.374 176.214 262.841 183.154 265.481 189.954C268.122 196.755 273.936 200.839 278.467 199.078Z" fill="#9D6C5B"/>
<path d="M346.337 193.767C349.604 187.244 348.73 180.19 344.383 178.01C340.037 175.831 333.865 179.351 330.597 185.873C327.33 192.395 328.205 199.45 332.551 201.629C336.897 203.809 343.07 200.289 346.337 193.767Z" fill="#9D6C5B"/>
<path d="M339.215 196.578C338.952 196.578 338.7 196.441 338.56 196.199C338.356 195.838 338.482 195.377 338.843 195.173C340.118 194.446 341.249 193.185 342.033 191.62C342.817 190.055 343.151 188.391 342.97 186.935C342.803 185.591 342.217 184.602 341.317 184.152C341.14 184.064 340.953 183.995 340.758 183.951C340.353 183.859 340.101 183.457 340.193 183.051C340.285 182.645 340.687 182.393 341.092 182.485C341.403 182.556 341.706 182.665 341.989 182.805C343.352 183.487 344.228 184.889 344.46 186.747C344.678 188.493 344.289 190.464 343.376 192.291C342.459 194.119 341.116 195.606 339.586 196.479C339.467 196.544 339.341 196.578 339.215 196.578Z" fill="#363E44"/>
<path d="M272.67 193.441C272.52 193.441 272.37 193.397 272.237 193.305C270.799 192.292 269.6 190.686 268.857 188.78C267.262 184.671 268.26 180.579 271.126 179.467C271.423 179.352 271.733 179.273 272.05 179.232C272.459 179.178 272.841 179.467 272.892 179.88C272.946 180.293 272.657 180.671 272.244 180.722C272.047 180.75 271.852 180.797 271.668 180.869C269.658 181.65 269.01 185.022 270.254 188.234C270.888 189.867 271.897 191.231 273.096 192.074C273.437 192.312 273.519 192.783 273.28 193.124C273.14 193.328 272.909 193.441 272.67 193.441Z" fill="#363E44"/>
<path d="M334.215 197.594C334.133 197.594 334.048 197.58 333.963 197.55C333.571 197.41 333.367 196.98 333.506 196.588C335.129 192.005 336.26 187.081 336.778 182.352C336.822 181.939 337.204 181.643 337.606 181.687C338.019 181.731 338.318 182.103 338.274 182.516C337.743 187.361 336.587 192.401 334.924 197.089C334.815 197.403 334.525 197.594 334.215 197.594Z" fill="#363E44"/>
<path d="M277.864 196.571C277.537 196.571 277.234 196.353 277.142 196.022C275.54 190.317 274.681 183.992 274.729 178.213C274.732 177.797 275.076 177.476 275.485 177.466C275.901 177.469 276.235 177.81 276.232 178.226C276.187 183.866 277.022 190.045 278.59 195.616C278.702 196.015 278.471 196.431 278.069 196.544C278 196.564 277.932 196.571 277.864 196.571Z" fill="#363E44"/>
<path d="M334.767 179.522C334.767 179.522 333.24 181.83 330.528 184.094C328.725 185.602 323.047 185.523 323.047 185.523C323.047 185.523 316.739 188.517 314.142 187.954C311.542 187.388 309.804 186.58 309.804 186.58C309.804 186.58 310.642 185.315 312.179 183.736C314.098 181.769 322.103 181.472 322.103 181.472C322.103 181.472 327.345 177.548 329.867 178.035C332.774 178.591 334.767 179.522 334.767 179.522Z" fill="white"/>
<path d="M320.924 178.233C317.11 179.311 314.122 181.745 312.203 183.709C312.486 185.268 313.15 186.727 314.139 187.951C316.736 188.517 320.195 188.838 323.643 187.863C326.418 187.078 328.749 185.575 330.558 184.057C331.018 181.964 330.739 179.86 329.873 178.035C327.345 177.548 324.134 177.326 320.924 178.233Z" fill="#363E44"/>
<path d="M277.803 176.835C277.803 176.835 279.299 179.638 282.145 182.325C283.719 183.811 289.046 183.358 289.046 183.358C289.046 183.358 294.481 187.48 297.051 187.221C299.958 186.928 301.989 186.205 301.989 186.205C301.989 186.205 301.291 184.892 299.934 183.204C298.213 181.06 290.733 179.573 290.733 179.573C290.733 179.573 285.304 175.56 282.731 175.819C279.83 176.115 277.803 176.835 277.803 176.835Z" fill="white"/>
<path d="M299.948 183.222C298.227 181.074 295.449 178.308 291.7 176.859C288.572 175.648 285.338 175.57 282.768 175.826C281.913 177.602 281.596 179.655 282.015 181.735C282.056 181.943 282.114 182.144 282.172 182.345C283.743 183.825 285.719 185.271 288.088 186.188C291.217 187.399 294.451 187.477 297.02 187.221C298.343 186.171 299.351 184.787 299.948 183.222Z" fill="#363E44"/>
<path d="M305.636 223.382C305.237 223.382 304.838 223.369 304.433 223.345C295.742 222.816 289.121 216.74 284.326 211.509C284.046 211.202 284.067 210.728 284.373 210.445C284.677 210.166 285.154 210.183 285.437 210.49C290.327 215.826 296.421 221.347 304.528 221.841C312.656 222.336 319.465 217.265 324.502 212.791C324.813 212.515 325.286 212.542 325.566 212.853C325.842 213.163 325.815 213.64 325.501 213.917C320.491 218.37 313.767 223.382 305.636 223.382Z" fill="#363E44"/>
<path d="M306.3 199.531C306.017 199.531 305.751 199.374 305.622 199.101C305.441 198.726 305.601 198.276 305.976 198.098C306.842 197.686 307.912 197.007 308.089 196.131C308.192 195.619 307.98 195.183 307.561 194.392C307.241 193.788 306.842 193.042 306.576 192.053C306.184 190.607 306.174 189.059 306.549 187.453C306.644 187.047 307.043 186.795 307.452 186.89C307.858 186.986 308.106 187.388 308.014 187.794C307.697 189.154 307.701 190.454 308.028 191.657C308.253 192.482 308.59 193.12 308.89 193.686C309.347 194.549 309.783 195.364 309.568 196.431C309.326 197.624 308.338 198.641 306.627 199.459C306.518 199.507 306.409 199.531 306.3 199.531Z" fill="#363E44"/>
<path d="M304.211 206.347C302.418 206.347 300.558 205.406 299.402 203.896C298.659 202.924 298.237 201.758 298.216 200.612C298.21 200.196 298.54 199.855 298.956 199.845C299.351 199.824 299.713 200.169 299.723 200.585C299.736 201.41 300.047 202.259 300.599 202.978C301.522 204.185 303.022 204.915 304.422 204.833C304.828 204.806 305.193 205.126 305.216 205.539C305.24 205.955 304.923 206.31 304.511 206.334C304.412 206.347 304.313 206.347 304.211 206.347Z" fill="#363E44"/>
<path d="M328.871 150.494C330.715 155.217 336.038 157.549 340.758 155.704C345.478 153.859 355.096 148.526 353.252 143.804C351.408 139.081 338.799 136.759 334.079 138.604C329.355 140.445 327.028 145.771 328.871 150.494Z" fill="#363E44"/>
<path d="M262.753 152.366C265.005 158.132 279.513 157.634 285.276 155.38C291.039 153.126 293.885 146.627 291.632 140.861C289.379 135.095 282.884 132.248 277.121 134.502C271.355 136.752 260.5 146.6 262.753 152.366Z" fill="#363E44"/>
<path d="M322.13 139.876C324.383 145.642 330.879 148.489 336.641 146.235C342.404 143.981 352.025 130.649 348.205 126.213C344.166 121.524 334.249 123.103 328.486 125.353C322.723 127.607 319.878 134.11 322.13 139.876Z" fill="#363E44"/>
<path d="M283.507 136.493C284.929 140.128 289.022 141.922 292.655 140.503C296.287 139.081 298.08 134.986 296.662 131.351C295.241 127.716 288.398 122.499 284.765 123.921C281.132 125.343 282.086 132.858 283.507 136.493Z" fill="#363E44"/>
<path d="M293.718 138.955C295.971 144.721 302.466 147.568 308.229 145.314C313.992 143.06 316.838 136.561 314.585 130.795C312.332 125.029 300.616 108.359 294.853 110.612C289.09 112.866 291.465 133.189 293.718 138.955Z" fill="#363E44"/>
<path d="M295.16 159.554C297.412 165.32 310.192 163.925 315.955 161.671C321.718 159.417 324.564 152.918 322.311 147.152C320.058 141.386 313.563 138.539 307.8 140.793C302.037 143.047 292.907 153.788 295.16 159.554Z" fill="#363E44"/>
<path d="M308.543 134.161C310.795 139.927 317.291 142.774 323.054 140.52C328.817 138.266 331.662 131.767 329.41 126.001C327.157 120.235 318.041 112.338 312.278 114.588C306.518 116.842 306.29 128.395 308.543 134.161Z" fill="#363E44"/>
<path d="M318.099 162.316C319.52 165.951 325.007 171.222 328.64 169.801C332.272 168.379 332.675 160.805 331.253 157.17C329.832 153.536 325.739 151.742 322.106 153.161C318.47 154.582 316.677 158.681 318.099 162.316Z" fill="#363E44"/>
<path d="M283.61 224.624L298.735 258.088L276.671 278.748L265.588 241.039L283.61 224.624Z" fill="white"/>
<path d="M326.24 227.056L311.116 258.535L333.179 281.183L344.153 243.842L326.24 227.056Z" fill="white"/>
<path d="M305.049 298.689C304.637 298.689 304.3 298.355 304.296 297.943L304 264.434C303.996 264.018 304.33 263.677 304.746 263.674C304.75 263.674 304.75 263.674 304.753 263.674C305.165 263.674 305.503 264.008 305.506 264.421L305.803 297.929C305.806 298.345 305.472 298.686 305.056 298.689C305.053 298.689 305.049 298.689 305.049 298.689Z" fill="#363E44"/>
</g>
<defs>
<clipPath id="clip0_2934_6677">
<rect width="624" height="624" fill="white"/>
</clipPath>
</defs>
</svg>
