<svg width="90" height="90" viewBox="0 0 90 90" fill="none" xmlns="http://www.w3.org/2000/svg">
<path d="M20 2.1875C27.7664 2.1875 34.0625 8.48359 34.0625 16.25C34.0625 26.4062 20 37.8125 20 37.8125C20 37.8125 5.9375 26.4062 5.9375 16.25C5.9375 8.48359 12.2336 2.1875 20 2.1875ZM29.375 16.25C29.375 11.0719 25.1773 6.875 20 6.875C14.8227 6.875 10.625 11.0719 10.625 16.25C10.625 21.4273 14.8227 25.625 20 25.625C25.1773 25.625 29.375 21.4273 29.375 16.25Z" fill="#CE8201"/>
<path d="M70 2.1875C77.7664 2.1875 84.0625 8.48359 84.0625 16.25C84.0625 26.4062 70 37.8125 70 37.8125C70 37.8125 55.9375 26.4062 55.9375 16.25C55.9375 8.48359 62.2336 2.1875 70 2.1875ZM79.375 16.25C79.375 11.0719 75.1773 6.875 70 6.875C64.8227 6.875 60.625 11.0719 60.625 16.25C60.625 21.4273 64.8227 25.625 70 25.625C75.1773 25.625 79.375 21.4273 79.375 16.25Z" fill="#CE8201"/>
<path d="M45 52.1875C52.7664 52.1875 59.0625 58.4836 59.0625 66.25C59.0625 76.4062 45 87.8125 45 87.8125C45 87.8125 30.9375 76.4062 30.9375 66.25C30.9375 58.4836 37.2336 52.1875 45 52.1875ZM54.375 66.25C54.375 61.0719 50.1773 56.875 45 56.875C39.8227 56.875 35.625 61.0719 35.625 66.25C35.625 71.4273 39.8227 75.625 45 75.625C50.1773 75.625 54.375 71.4273 54.375 66.25Z" fill="#CE8201"/>
</svg>
