<svg width="80" height="80" viewBox="0 0 80 80" fill="none" xmlns="http://www.w3.org/2000/svg">
<g id="Layer_1" clip-path="url(#clip0_2934_5192)">
<path id="Vector" fill-rule="evenodd" clip-rule="evenodd" d="M46.0818 3.40454L47.2204 9.72235C47.26 9.95488 47.3657 10.1711 47.5248 10.3453C47.6839 10.5194 47.8897 10.6441 48.1177 10.7045C50.5075 11.3669 52.8058 12.323 54.9602 13.5509C55.1655 13.6667 55.3993 13.7218 55.6346 13.71C55.8699 13.6981 56.097 13.6198 56.2896 13.4841L61.5695 9.81219C61.7794 9.66443 62.0349 9.5957 62.2907 9.61818C62.5464 9.64065 62.786 9.75288 62.967 9.93501L70.0549 17.023C70.2384 17.205 70.3515 17.446 70.3741 17.7034C70.3968 17.9608 70.3276 18.218 70.1788 18.4292L66.5098 23.7089C66.3752 23.9019 66.2981 24.1292 66.2874 24.3643C66.2768 24.5993 66.333 24.8326 66.4496 25.037C67.6721 27.1928 68.6243 29.4909 69.2848 31.8795C69.3477 32.1062 69.4735 32.3104 69.6478 32.4684C69.822 32.6265 70.0374 32.7319 70.2691 32.7725L76.5937 33.9109C76.8482 33.9546 77.0787 34.0877 77.2438 34.2862C77.409 34.4847 77.4978 34.7356 77.4945 34.9938V38.7555H64.6312C64.4671 38.7554 64.3045 38.7877 64.1529 38.8505C64.0013 38.9133 63.8635 39.0054 63.7475 39.1215C63.6315 39.2376 63.5395 39.3754 63.4768 39.5271C63.4141 39.6788 63.3819 39.8414 63.3821 40.0055C63.3821 41.4533 62.807 42.8418 61.7832 43.8655C60.7595 44.8892 59.371 45.4644 57.9232 45.4644C56.4754 45.4644 55.0869 44.8892 54.0632 43.8655C53.0394 42.8418 52.4643 41.4533 52.4643 40.0055C52.4645 39.8413 52.4323 39.6787 52.3695 39.5269C52.3067 39.3752 52.2147 39.2373 52.0986 39.1212C51.9825 39.0051 51.8446 38.9131 51.6929 38.8503C51.5411 38.7875 51.3785 38.7553 51.2143 38.7555H41.2441V29.9375C43.1152 29.6392 44.8186 28.6836 46.0483 27.2423C47.2781 25.8009 47.9537 23.9683 47.9537 22.0737C47.9537 20.179 47.2781 18.3464 46.0483 16.9051C44.8186 15.4638 43.1152 14.5081 41.2441 14.2099V2.50001H45.0046C45.2627 2.49686 45.5133 2.58637 45.7109 2.75229C45.9086 2.91821 46.0402 3.14953 46.0818 3.40423V3.40454ZM33.9071 76.5953L32.7674 70.2773C32.728 70.0447 32.6224 69.8284 32.4633 69.6542C32.3041 69.48 32.0982 69.3554 31.8701 69.2952C29.4842 68.6278 27.1873 67.6759 25.0287 66.46C24.8414 66.3506 24.6284 66.2928 24.4115 66.2925C24.1571 66.2941 23.909 66.3719 23.6993 66.5158L18.4196 70.1877C18.2094 70.3354 17.9538 70.4041 17.6978 70.3817C17.4419 70.3592 17.2021 70.247 17.0209 70.0648L9.9329 62.9773C9.7494 62.7953 9.63637 62.5542 9.61388 62.2967C9.59139 62.0393 9.66091 61.7822 9.81009 61.5711L13.4791 56.2913C13.6137 56.0982 13.6908 55.871 13.7015 55.6359C13.7122 55.4008 13.656 55.1676 13.5395 54.9631C12.316 52.8079 11.3636 50.5097 10.7041 48.1208C10.6394 47.8951 10.513 47.6919 10.3391 47.5341C10.1652 47.3763 9.95071 47.2702 9.71977 47.2277L3.3943 46.0892C3.13999 46.0454 2.90966 45.9123 2.74474 45.7138C2.57982 45.5153 2.49113 45.2645 2.49462 45.0064V41.2444H15.3566C15.6865 41.2453 16.0034 41.1155 16.2377 40.8832C16.472 40.651 16.6047 40.3354 16.6066 40.0055C16.6028 39.2862 16.7411 38.5733 17.0137 37.9077C17.2863 37.2421 17.6878 36.6369 18.195 36.1269C18.7022 35.617 19.3053 35.2123 19.9694 34.9361C20.6336 34.66 21.3457 34.5178 22.065 34.5178C22.7843 34.5178 23.4965 34.66 24.1606 34.9361C24.8248 35.2123 25.4278 35.617 25.935 36.1269C26.4423 36.6369 26.8437 37.2421 27.1163 37.9077C27.3889 38.5733 27.5272 39.2862 27.5234 40.0055C27.5254 40.3354 27.658 40.651 27.8923 40.8832C28.1267 41.1155 28.4435 41.2453 28.7734 41.2444H38.7435V50.0625C36.8726 50.3609 35.1693 51.3165 33.9397 52.7579C32.71 54.1992 32.0345 56.0317 32.0345 57.9263C32.0345 59.8208 32.71 61.6533 33.9397 63.0947C35.1693 64.536 36.8726 65.4916 38.7435 65.79V77.5H34.9832C34.7253 77.5033 34.4748 77.4138 34.2772 77.2478C34.0797 77.0819 33.9484 76.8506 33.9071 76.5959V76.5953ZM2.95212 48.5445L8.51462 49.5492C9.14232 51.6114 9.96912 53.6077 10.9834 55.5098L7.75618 60.1533C7.27472 60.8443 7.05191 61.6828 7.12682 62.5216C7.20173 63.3605 7.56958 64.1462 8.16587 64.7409L15.254 71.8291C15.8497 72.4251 16.6358 72.793 17.4751 72.8685C18.3144 72.944 19.1535 72.7222 19.846 72.242L24.4874 69.0156C26.3876 70.0311 28.3829 70.8573 30.4446 71.4825L31.4459 77.0413C31.5933 77.8717 32.0288 78.6236 32.6758 79.1648C33.3227 79.7059 34.1398 80.0017 34.9832 80H45.0046C45.848 80.0019 46.665 79.7063 47.312 79.1653C47.959 78.6243 48.3945 77.8724 48.542 77.042L49.5443 71.4833C51.6053 70.8572 53.6001 70.0307 55.4999 69.0156L60.1423 72.2416C60.8348 72.7218 61.674 72.9435 62.5133 72.868C63.3526 72.7925 64.1387 72.4246 64.7345 71.8286L71.8213 64.7405C72.4177 64.1457 72.7856 63.36 72.8604 62.5211C72.9353 61.6822 72.7124 60.8438 72.2309 60.1528L69.0046 55.5098C70.0237 53.61 70.8507 51.6133 71.4734 49.5492L77.0359 48.5445C77.8663 48.3967 78.618 47.9609 79.159 47.3138C79.7 46.6667 79.9956 45.8496 79.9938 45.0061V34.9936C79.9955 34.1501 79.6999 33.3331 79.159 32.6859C78.618 32.0388 77.8663 31.603 77.0359 31.4552L71.4734 30.4506C70.8467 28.388 70.0199 26.3917 69.0046 24.49L72.2315 19.8464C72.7131 19.1555 72.936 18.317 72.8611 17.4781C72.7862 16.6392 72.4183 15.8535 71.822 15.2588L64.7351 8.17079C64.1394 7.57475 63.3532 7.20688 62.5139 7.13141C61.6746 7.05593 60.8354 7.27763 60.1429 7.75782L55.4999 10.9844C53.5998 9.96954 51.6049 9.1433 49.5437 8.51751L48.5413 2.95876C48.3941 2.12833 47.9587 1.37641 47.3118 0.83525C46.665 0.294088 45.848 -0.00166384 45.0046 7.04126e-06H34.9832C34.1399 -0.00165813 33.3229 0.293983 32.676 0.83497C32.029 1.37596 31.5935 2.12766 31.4459 2.95798L30.4446 8.51673C28.3831 9.14276 26.3878 9.96926 24.4874 10.9844L19.8468 7.7586C19.1543 7.2784 18.3152 7.05668 17.4759 7.13216C16.6366 7.20764 15.8505 7.57552 15.2548 8.17157L8.16587 15.2588C7.56958 15.8535 7.20173 16.6392 7.12682 17.4781C7.05191 18.3169 7.27472 19.1554 7.75618 19.8464L10.9832 24.49C9.96507 26.3903 9.1381 28.387 8.51446 30.4506L2.95196 31.4552C2.12157 31.603 1.36986 32.0388 0.828919 32.6859C0.287974 33.3331 -0.00759547 34.1502 -0.00585149 34.9936V45.0061C-0.00761984 45.8496 0.28796 46.6667 0.828942 47.3138C1.36992 47.961 2.12169 48.3967 2.95212 48.5445Z" fill="#CE8201"/>
</g>
<defs>
<clipPath id="clip0_2934_5192">
<rect width="80" height="80" fill="white"/>
</clipPath>
</defs>
</svg>
